<?xml version="1.0" encoding="UTF-8"?>
<svg width="27px" height="27px" viewBox="0 0 27 27" version="1.1" xmlns="http://www.w3.org/2000/svg" xmlns:xlink="http://www.w3.org/1999/xlink">
    <g stroke="none" stroke-width="1" fill="none" fill-rule="evenodd">
        <g transform="translate(-167.000000, 0.000000)" fill-rule="nonzero" fill="#C11F1F">
            <polygon points="186.632 13.696 193.249 15.657 193.029 16.867 186.118 16.116 191.49 20.497 190.848 21.468 184.798 18.168 188.024 24.254 187.09 24.896 182.727 19.562 183.442 26.4 182.286 26.619 180.252 20.02 178.309 26.619 177.099 26.4 177.814 19.562 173.506 24.896 172.516 24.254 175.779 18.168 169.711 21.468 169.07 20.497 174.478 16.116 167.566 16.867 167.346 15.657 173.873 13.696 167.346 11.752 167.566 10.543 174.478 11.295 169.07 6.913 169.711 5.941 175.779 9.241 172.516 3.155 173.506 2.514 177.814 7.848 177.099 1.01 178.309 0.79 180.252 7.39 182.286 0.79 183.442 1.01 182.727 7.848 187.09 2.514 188.024 3.155 184.798 9.241 190.848 5.941 191.49 6.913 186.118 11.295 193.029 10.543 193.249 11.752"></polygon>
        </g>
    </g>
</svg>