<svg width="20" height="20" viewBox="0 0 18 18" fill="none" xmlns="http://www.w3.org/2000/svg">
<g fill="black">
<path d="M15.8333 2.49999V17.5H10.8333V14.5833H9.16667V17.5H4.16667V2.49999H15.8333ZM12.5 5.83333H14.1667V4.16666H12.5V5.83333ZM9.16667 5.83333H10.8333V4.16666H9.16667V5.83333ZM5.83333 5.83333H7.5V4.16666H5.83333V5.83333ZM12.5 9.16666H14.1667V7.5H12.5V9.16666ZM9.16667 9.16666H10.8333V7.5H9.16667V9.16666ZM5.83333 9.16666H7.5V7.5H5.83333V9.16666ZM12.5 12.5H14.1667V10.8333H12.5V12.5ZM9.16667 12.5H10.8333V10.8333H9.16667V12.5ZM5.83333 12.5H7.5V10.8333H5.83333V12.5ZM12.5 15.8333H14.1667V14.1667H12.5V15.8333ZM5.83333 15.8333H7.5V14.1667H5.83333V15.8333ZM17.5 0.833328H2.5V19.1667H17.5V0.833328Z" />
</g>
</svg>
