<svg width="9" height="10" viewBox="0 0 9 10" fill="none" xmlns="http://www.w3.org/2000/svg">
<path d="M8.94856 5.94937C8.92747 5.82279 8.85363 5.71731 8.73759 5.65402L6.70173 4.64136C6.42747 5.20043 6.06882 5.89663 5.58359 6.74051C5.35152 7.14136 4.94013 7.38397 4.47599 7.38397C4.01186 7.38397 3.58992 7.14136 3.35785 6.74051C2.91481 5.98102 2.57726 5.34811 2.32409 4.82068L1.18485 5.01056C1.05827 5.03165 0.952785 5.11604 0.900042 5.22153L0.0350632 7.173C-0.049325 7.35233 0.0245146 7.57385 0.193291 7.65823L4.38105 9.95781C4.4338 9.98946 4.49709 10 4.56038 10C4.58148 10 4.61312 10 4.63422 9.98946L8.21017 9.25106C8.3262 9.22997 8.42114 9.15613 8.47388 9.05064C8.52662 8.94516 8.52662 8.82912 8.48443 8.72364L7.78823 7.16245L8.83253 6.26583C8.92747 6.20254 8.96966 6.07596 8.94856 5.94937Z" fill="white"/>
<path d="M4.92955 6.37131C5.58356 5.23207 6.7228 3.13291 6.7228 2.24684C6.7228 1.00211 5.71014 0 4.47596 0C3.24178 0 2.22913 1.01266 2.22913 2.24684C2.22913 3.13291 3.36837 5.23207 4.02237 6.37131C4.2228 6.71941 4.72913 6.71941 4.92955 6.37131ZM3.43166 2.23629C3.43166 1.65612 3.90634 1.19198 4.47596 1.19198C5.04558 1.19198 5.52027 1.66667 5.52027 2.23629C5.52027 2.81646 5.04558 3.28059 4.47596 3.28059C3.90634 3.28059 3.43166 2.81646 3.43166 2.23629Z" fill="white"/>
</svg>
