<svg width="12" height="5" viewBox="0 0 12 5" fill="none" xmlns="http://www.w3.org/2000/svg">
<path d="M0 4.90895V4.00607H1.04704V1.22155H0.144158V0.531108C0.407183 0.480526 0.629742 0.419828 0.811836 0.349014C0.99393 0.278199 1.17097 0.19221 1.34294 0.0910468H2.16237V4.00607H3.06525V4.90895H0Z" fill="white"/>
<path d="M4.10122 4.90895V4.27162C4.40977 3.98331 4.6905 3.71522 4.94341 3.46737C5.20137 3.21447 5.4214 2.97926 5.6035 2.76176C5.79065 2.5392 5.93481 2.33434 6.03597 2.14719C6.14219 1.95498 6.1953 1.77289 6.1953 1.60091C6.1953 1.36318 6.13461 1.18361 6.01321 1.06222C5.89181 0.935761 5.72489 0.872534 5.51245 0.872534C5.33541 0.872534 5.17861 0.923116 5.04204 1.02428C4.90547 1.12038 4.77649 1.23419 4.65509 1.36571L4.04811 0.766313C4.28584 0.513404 4.52864 0.323723 4.77649 0.197268C5.02434 0.0657561 5.32024 0 5.6642 0C5.90193 0 6.1169 0.0379362 6.30911 0.113809C6.50638 0.184623 6.67583 0.288316 6.81746 0.424886C6.95909 0.556399 7.06784 0.715731 7.14371 0.902883C7.21958 1.09004 7.25752 1.29995 7.25752 1.53263C7.25752 1.73495 7.21452 1.94234 7.12854 2.15478C7.04255 2.36216 6.92621 2.57208 6.77952 2.78452C6.63789 2.99191 6.4735 3.20182 6.28635 3.41426C6.10426 3.62165 5.91457 3.8265 5.71731 4.02883C5.8387 4.01366 5.97274 4.00101 6.11943 3.9909C6.27118 3.97572 6.40522 3.96813 6.52155 3.96813H7.49272V4.90895H4.10122Z" fill="white"/>
<path d="M9.98462 5C9.59008 5 9.25624 4.9393 8.9831 4.81791C8.70996 4.69145 8.48487 4.52453 8.30783 4.31715L8.82377 3.61153C8.97045 3.75316 9.12978 3.8695 9.30176 3.96055C9.4788 4.05159 9.67101 4.09712 9.87839 4.09712C10.1161 4.09712 10.3058 4.04906 10.4474 3.95296C10.5891 3.8518 10.6599 3.71017 10.6599 3.52807C10.6599 3.42185 10.6396 3.32575 10.5992 3.23976C10.5638 3.15377 10.498 3.08295 10.4019 3.02731C10.3058 2.96662 10.1743 2.92109 10.0074 2.89074C9.84046 2.85534 9.62549 2.83763 9.36246 2.83763V2.04856C9.57996 2.04856 9.75953 2.03338 9.90116 2.00303C10.0478 1.97269 10.1642 1.92969 10.2502 1.87405C10.3412 1.81335 10.4044 1.74507 10.4399 1.6692C10.4803 1.58826 10.5005 1.49975 10.5005 1.40364C10.5005 1.23672 10.45 1.10774 10.3488 1.01669C10.2476 0.920587 10.101 0.872534 9.90874 0.872534C9.73677 0.872534 9.57996 0.91047 9.43833 0.986343C9.30176 1.06222 9.1576 1.16591 9.00586 1.29742L8.4444 0.614567C8.66696 0.422357 8.89964 0.273141 9.14243 0.16692C9.39028 0.0556399 9.66342 0 9.96185 0C10.2097 0 10.4348 0.0303489 10.6371 0.0910468C10.8445 0.146687 11.019 0.232676 11.1606 0.349014C11.3073 0.460293 11.4211 0.596864 11.5021 0.758725C11.583 0.920586 11.6235 1.10774 11.6235 1.32018C11.6235 1.57309 11.5526 1.78806 11.411 1.9651C11.2744 2.13708 11.0772 2.27871 10.8192 2.38998V2.42033C11.0974 2.50126 11.325 2.64036 11.5021 2.83763C11.6842 3.02984 11.7752 3.28275 11.7752 3.59636C11.7752 3.81892 11.7272 4.01872 11.6311 4.19575C11.5349 4.36773 11.406 4.51442 11.2441 4.63581C11.0822 4.75215 10.8926 4.8432 10.6751 4.90895C10.4576 4.96965 10.2274 5 9.98462 5Z" fill="white"/>
</svg>
