<svg width="15" height="5" viewBox="0 0 15 5" fill="none" xmlns="http://www.w3.org/2000/svg">
<path d="M1.8375 2.47041L1.71293 2.9142H2.79518L2.67839 2.47041C2.60572 2.2288 2.53565 1.97239 2.46817 1.70118C2.40069 1.42998 2.33321 1.16864 2.26573 0.91716H2.23459C2.1723 1.17357 2.10742 1.43738 2.03994 1.70858C1.97765 1.97485 1.91017 2.2288 1.8375 2.47041ZM0 4.91124L1.58835 0.0887576H2.96648L4.55482 4.91124H3.3402L3.02876 3.76479H1.47934L1.1679 4.91124H0Z" fill="white"/>
<path d="M5.3721 4.91124V0.0887576H7.10838C7.37311 0.0887576 7.61707 0.108481 7.84027 0.147929C8.06866 0.182446 8.26591 0.246548 8.43201 0.340237C8.6033 0.433925 8.73566 0.557199 8.82909 0.710059C8.92772 0.862919 8.97703 1.05523 8.97703 1.28698C8.97703 1.39546 8.96146 1.50394 8.93031 1.61243C8.89917 1.72091 8.85505 1.82199 8.79795 1.91568C8.74085 2.00937 8.67078 2.0932 8.58773 2.16716C8.50987 2.24112 8.41903 2.29536 8.31522 2.32988V2.35947C8.44499 2.38905 8.56437 2.4359 8.67338 2.5C8.78238 2.55917 8.87841 2.6356 8.96146 2.72929C9.04451 2.82298 9.10939 2.93392 9.15611 3.06213C9.20282 3.1854 9.22618 3.3284 9.22618 3.49112C9.22618 3.73767 9.17428 3.9497 9.07046 4.12722C8.97184 4.30473 8.83169 4.45266 8.65002 4.57101C8.47353 4.68442 8.26591 4.77071 8.02713 4.82988C7.78836 4.88412 7.53142 4.91124 7.25632 4.91124H5.3721ZM6.51665 2.01923H7.05388C7.33418 2.01923 7.53662 1.96746 7.66119 1.86391C7.79096 1.76035 7.85584 1.62229 7.85584 1.4497C7.85584 1.26233 7.79096 1.12919 7.66119 1.0503C7.53142 0.9714 7.33158 0.931953 7.06167 0.931953H6.51665V2.01923ZM6.51665 4.06805H7.16289C7.79096 4.06805 8.105 3.85108 8.105 3.41716C8.105 3.20513 8.02714 3.05473 7.87142 2.96598C7.71569 2.87229 7.47952 2.82544 7.16289 2.82544H6.51665V4.06805Z" fill="white"/>
<path d="M12.414 5C12.0922 5 11.7885 4.94822 11.503 4.84467C11.2175 4.73619 10.9658 4.5784 10.7478 4.3713C10.5349 4.1642 10.3663 3.90779 10.2417 3.60207C10.1171 3.29142 10.0548 2.93392 10.0548 2.52959C10.0548 2.13018 10.1197 1.77515 10.2495 1.4645C10.3792 1.14892 10.5531 0.882643 10.7711 0.665681C10.9891 0.448718 11.2435 0.283531 11.5342 0.170118C11.8248 0.0567061 12.1311 0 12.4529 0C12.7799 0 13.0732 0.0641026 13.3327 0.192308C13.5923 0.315582 13.8077 0.461045 13.979 0.628698L13.3717 1.32396C13.2419 1.21055 13.1043 1.11933 12.959 1.0503C12.8188 0.976332 12.6579 0.939349 12.4763 0.939349C12.305 0.939349 12.1415 0.976332 11.9857 1.0503C11.8352 1.11933 11.7029 1.22041 11.5887 1.35355C11.4797 1.48669 11.3914 1.64941 11.3239 1.84172C11.2616 2.03402 11.2305 2.25099 11.2305 2.4926C11.2305 2.99063 11.3421 3.37771 11.5653 3.65385C11.7885 3.92505 12.087 4.06065 12.4607 4.06065C12.6683 4.06065 12.8526 4.01874 13.0135 3.93491C13.1796 3.84615 13.3249 3.73767 13.4495 3.60947L14.0568 4.28994C13.6312 4.76331 13.0836 5 12.414 5Z" fill="white"/>
</svg>
