<svg width="24" height="24" viewBox="0 0 24 24" fill="none" xmlns="http://www.w3.org/2000/svg">
<path d="M5 16V11.75C5 11.3358 5.33579 11 5.75 11C6.16422 11 6.5 11.3358 6.5 11.75V16C6.5 17.933 8.06701 19.5 10 19.5H13.25C13.6642 19.5 14 19.8358 14 20.25C14 20.6642 13.6642 21 13.25 21H10C7.23858 21 5 18.7614 5 16Z" fill="#0E1318"/>
<path d="M18.25 13C18.6642 13 19 12.6642 19 12.25V8C19 5.23858 16.7614 3 14 3H10.75C10.3358 3 10 3.33579 10 3.75C10 4.16421 10.3358 4.5 10.75 4.5H14C15.933 4.5 17.5 6.067 17.5 8V12.25C17.5 12.6642 17.8358 13 18.25 13Z" fill="#0E1318"/>
<path fill-rule="evenodd" clip-rule="evenodd" d="M8.78034 13.5732C8.48745 13.8661 8.01256 13.8661 7.71967 13.5732L5.75 11.6036L3.78034 13.5732C3.48745 13.8661 3.01256 13.8661 2.71967 13.5732C2.42678 13.2803 2.42678 12.8055 2.71967 12.5126L4.86499 10.3672C4.98097 10.2511 5.11937 10.1583 5.27094 10.0955C5.4228 10.0324 5.58559 10 5.75 10C5.91442 10 6.07724 10.0324 6.2291 10.0955C6.38079 10.1584 6.51858 10.2506 6.63462 10.3669L8.78034 12.5126C9.07323 12.8055 9.07323 13.2803 8.78034 13.5732Z" fill="#0E1318"/>
<path fill-rule="evenodd" clip-rule="evenodd" d="M15.2197 10.2197C15.5126 9.92678 15.9874 9.92678 16.2803 10.2197L18.25 12.1893L20.2197 10.2197C20.5126 9.92678 20.9874 9.92678 21.2803 10.2197C21.5732 10.5126 21.5732 10.9874 21.2803 11.2803L19.135 13.4257C19.019 13.5418 18.8807 13.6345 18.7291 13.6974C18.5772 13.7605 18.4144 13.7929 18.25 13.7929C18.0856 13.7929 17.9228 13.7605 17.7709 13.6974C17.6192 13.6345 17.4814 13.5423 17.3654 13.426L15.2197 11.2803C14.9268 10.9874 14.9268 10.5126 15.2197 10.2197Z" fill="#0E1318"/>
</svg>
