<svg width="24" height="24" viewBox="0 0 24 24" fill="none" xmlns="http://www.w3.org/2000/svg">
<path d="M12.95 12.7497H3.25C3.05109 12.7497 2.86032 12.6707 2.71967 12.5301C2.57902 12.3894 2.5 12.1986 2.5 11.9997C2.5 11.8008 2.57902 11.6101 2.71967 11.4694C2.86032 11.3288 3.05109 11.2497 3.25 11.2497H12.95L9.72 8.20973C9.58752 8.06756 9.5154 7.87951 9.51882 7.68521C9.52225 7.49091 9.60097 7.30552 9.73838 7.16811C9.87579 7.0307 10.0612 6.95199 10.2555 6.94856C10.4498 6.94513 10.6378 7.01725 10.78 7.14973L15.27 11.4697C15.57 11.7697 15.57 12.2397 15.27 12.5297L10.77 16.7097C10.7034 16.7909 10.6205 16.8572 10.5267 16.9044C10.4328 16.9515 10.3301 16.9784 10.2252 16.9833C10.1203 16.9882 10.0156 16.9711 9.91774 16.9329C9.81989 16.8948 9.73115 16.8365 9.65725 16.7619C9.58334 16.6873 9.52593 16.598 9.48873 16.4998C9.45153 16.4016 9.43536 16.2967 9.44127 16.1919C9.44719 16.087 9.47506 15.9846 9.52307 15.8912C9.57108 15.7978 9.63818 15.7156 9.72 15.6497L12.93 12.7497H12.95Z" fill="white"/>
<path d="M19.4969 19.5H13.4969C13.2208 19.5 12.9969 19.2761 12.9969 19V17.6067L11.4969 19C11.4969 20.1046 12.3924 21 13.4969 21H19.4969C20.6015 21 21.4969 20.1046 21.4969 19V5C21.4969 3.89543 20.6015 3 19.497 3H13.4969C12.3924 3 11.4969 3.89543 11.4969 5L12.9969 6.44321V5C12.9969 4.72386 13.2208 4.5 13.4969 4.5L19.497 4.5C19.7731 4.5 19.9969 4.72386 19.9969 5V19C19.9969 19.2761 19.7731 19.5 19.4969 19.5Z" fill="white"/>
</svg>
