<svg width="24" height="24" viewBox="0 0 24 24" fill="none" xmlns="http://www.w3.org/2000/svg">
<path fill-rule="evenodd" clip-rule="evenodd" d="M12 2C12.4142 2 12.75 2.33579 12.75 2.75V4H20C21.1046 4 22 4.89543 22 6V15C22 16.1046 21.1046 17 20 17H12.7677L16.7598 20.6999C17.0636 20.9815 17.0816 21.456 16.8001 21.7598C16.5185 22.0636 16.044 22.0816 15.7402 21.8001L12 18.3337L8.25982 21.8001C7.95602 22.0816 7.48148 22.0636 7.19992 21.7598C6.91836 21.456 6.93638 20.9815 7.24018 20.6999L11.2323 17H4C2.89543 17 2 16.1046 2 15V6C2 4.89543 2.89543 4 4 4H11.25V2.75C11.25 2.33579 11.5858 2 12 2ZM4 5.5C3.72386 5.5 3.5 5.72386 3.5 6V15C3.5 15.2761 3.72386 15.5 4 15.5H20C20.2761 15.5 20.5 15.2761 20.5 15V6C20.5 5.72386 20.2761 5.5 20 5.5H4ZM14.5 10.5L10 8V13L14.5 10.5Z" fill="#0E1318"/>
</svg>
