<svg width="24" height="24" viewBox="0 0 24 24" fill="none" xmlns="http://www.w3.org/2000/svg">
<path d="M9.25049 10.037C9.25049 8.9324 10.1459 8.03697 11.2505 8.03697C12.3551 8.03697 13.2505 8.9324 13.2505 10.037C13.2505 10.8763 12.7334 11.5949 12.0005 11.8916V15.5561C12.0005 15.9703 11.6647 16.3061 11.2505 16.3061C10.8363 16.3061 10.5005 15.9703 10.5005 15.5561V11.8916C9.76753 11.5949 9.25049 10.8763 9.25049 10.037Z" fill="#191E26"/>
<path fill-rule="evenodd" clip-rule="evenodd" d="M11.2083 3.5C8.38737 3.5 6.00771 5.64044 5.73408 8.43789C5.72701 8.51016 5.6759 8.573 5.61537 8.59515C3.36169 9.41986 1.75 11.5797 1.75 14.1184C1.75 17.3687 4.39162 20 7.64583 20H16.3542C19.6084 20 22.25 17.3687 22.25 14.1184C22.25 11.0469 19.8579 8.4838 16.8324 8.25121C16.7425 8.24431 16.6472 8.1616 16.6302 8.06181C16.1883 5.47358 13.9291 3.5 11.2083 3.5ZM7.22695 8.58391C7.42465 6.56282 9.15103 5 11.2083 5C13.1876 5 14.8309 6.43624 15.1516 8.31425C15.2825 9.08105 15.9307 9.68632 16.7174 9.7468C18.9618 9.91934 20.75 11.8312 20.75 14.1184C20.75 16.5363 18.7839 18.5 16.3542 18.5H7.64583C5.21612 18.5 3.25 16.5363 3.25 14.1184C3.25 12.2314 4.44741 10.6198 6.13085 10.0038C6.74038 9.78075 7.16456 9.22175 7.22695 8.58391Z" fill="#191E26"/>
</svg>
