<svg width="24" height="24" viewBox="0 0 24 24" fill="none" xmlns="http://www.w3.org/2000/svg">
<path fill-rule="evenodd" clip-rule="evenodd" d="M6.75 19.4877C3.81824 19.2947 1.5 16.8556 1.5 13.875C1.5 11.5167 2.95125 9.49741 5.00939 8.66141C5.18497 5.50522 7.79992 3 11 3C14.0599 3 16.5848 5.29054 16.9536 8.25054C20.024 8.29262 22.5 10.7947 22.5 13.875C22.5 16.8556 20.1818 19.2947 17.25 19.4877V19.5H16.875H15V18H16.75V17.9981C16.7915 17.9994 16.8332 18 16.875 18C19.1532 18 21 16.1532 21 13.875C21 11.5968 19.1532 9.75 16.875 9.75C16.3484 9.75 15.8449 9.84867 15.3819 10.0285C15.4592 9.69819 15.5 9.35386 15.5 9C15.5 6.51472 13.4853 4.5 11 4.5C8.51472 4.5 6.5 6.51472 6.5 9C6.5 9.26854 6.52352 9.53159 6.56862 9.7872C4.55357 10.0589 3 11.7855 3 13.875C3 16.1532 4.84683 18 7.125 18C7.16681 18 7.20848 17.9994 7.25 17.9981V18H9V19.5H7.125H6.75V19.4877ZM12.75 13.8107L14.5455 15.6062C14.8384 15.8991 15.3133 15.8991 15.6062 15.6062C15.8991 15.3133 15.8991 14.8384 15.6062 14.5455L13.2554 12.1947C12.572 11.5113 11.4639 11.5113 10.7805 12.1947L8.42969 14.5455C8.13679 14.8384 8.13679 15.3133 8.42969 15.6062C8.72258 15.8991 9.19745 15.8991 9.49035 15.6062L11.25 13.8465V21.25C11.25 21.6642 11.5858 22 12 22C12.4142 22 12.75 21.6642 12.75 21.25V13.8107Z" fill="#F8F9F9"/>
</svg>
