<svg width="24" height="24" viewBox="0 0 24 24" fill="none" xmlns="http://www.w3.org/2000/svg">
<path fill-rule="evenodd" clip-rule="evenodd" d="M9 9C7.60212 9 6.42755 8.04392 6.09451 6.75H3.25C2.83579 6.75 2.5 6.41421 2.5 6C2.5 5.58579 2.83579 5.25 3.25 5.25H6.09451C6.42755 3.95608 7.60212 3 9 3C10.3979 3 11.5725 3.95608 11.9055 5.25H20.75C21.1642 5.25 21.5 5.58579 21.5 6C21.5 6.41421 21.1642 6.75 20.75 6.75H11.9055C11.5725 8.04392 10.3979 9 9 9ZM2.5 12C2.5 11.5858 2.83579 11.25 3.25 11.25H12.0945C12.4275 9.95608 13.6021 9 15 9C16.3979 9 17.5725 9.95608 17.9055 11.25H20.75C21.1642 11.25 21.5 11.5858 21.5 12C21.5 12.4142 21.1642 12.75 20.75 12.75H17.9055C17.5725 14.0439 16.3979 15 15 15C13.6021 15 12.4275 14.0439 12.0945 12.75H3.25C2.83579 12.75 2.5 12.4142 2.5 12ZM3.25 17.25C2.83579 17.25 2.5 17.5858 2.5 18C2.5 18.4142 2.83579 18.75 3.25 18.75H6.09451C6.42755 20.0439 7.60212 21 9 21C10.3979 21 11.5725 20.0439 11.9055 18.75H20.75C21.1642 18.75 21.5 18.4142 21.5 18C21.5 17.5858 21.1642 17.25 20.75 17.25H11.9055C11.5725 15.9561 10.3979 15 9 15C7.60212 15 6.42755 15.9561 6.09451 17.25H3.25ZM10.5 6C10.5 6.82843 9.82843 7.5 9 7.5C8.17157 7.5 7.5 6.82843 7.5 6C7.5 5.17157 8.17157 4.5 9 4.5C9.82843 4.5 10.5 5.17157 10.5 6ZM15 13.5C15.8284 13.5 16.5 12.8284 16.5 12C16.5 11.1716 15.8284 10.5 15 10.5C14.1716 10.5 13.5 11.1716 13.5 12C13.5 12.8284 14.1716 13.5 15 13.5ZM10.5 18C10.5 18.8284 9.82843 19.5 9 19.5C8.17157 19.5 7.5 18.8284 7.5 18C7.5 17.1716 8.17157 16.5 9 16.5C9.82843 16.5 10.5 17.1716 10.5 18Z" fill="#191E26"/>
</svg>
