<svg width="24" height="24" viewBox="0 0 24 24" fill="none" xmlns="http://www.w3.org/2000/svg">
<path d="M17.129 13.375C17.7011 13.0169 18.1729 12.5193 18.5001 11.929C18.8274 11.3387 18.9994 10.675 19 10C19 8.93913 18.5786 7.92172 17.8284 7.17157C17.0783 6.42143 16.0609 6 15 6C14.25 6 13.557 6.219 12.957 6.578C12.744 4.57 11.065 3 9 3C7.93913 3 6.92172 3.42143 6.17157 4.17157C5.42143 4.92172 5 5.93913 5 7C5 8.442 5.771 9.696 6.915 10.399C5.79401 10.8335 4.82535 11.5877 4.12933 12.568C3.43332 13.5483 3.04062 14.7114 3 15.913C3 16.145 3.114 16.377 3.343 16.493C5.171 17.536 7 18 9.057 18C9.074 18 9.09 17.997 9.108 17.997C9.04916 18.2992 9.01306 18.6054 9 18.913C9 19.145 9.114 19.377 9.343 19.493C11.171 20.536 13 21 15.057 21C17.114 21 18.943 20.536 20.657 19.609C20.7625 19.5539 20.8506 19.4704 20.9112 19.3679C20.9718 19.2654 21.0025 19.148 21 19.029C21 16.409 19.401 14.218 17.129 13.375ZM10.547 18.439C10.575 18.25 10.629 18.072 10.677 17.892C10.754 17.607 10.855 17.334 10.981 17.074C11.1246 16.7697 11.3009 16.482 11.507 16.216C12.146 15.4081 13.0448 14.8463 14.051 14.626C14.297 14.57 14.551 14.538 14.811 14.524C14.894 14.519 14.974 14.501 15.058 14.501C17.383 14.501 19.238 16.234 19.475 18.529C18.107 19.182 16.656 19.501 15.058 19.501C13.411 19.5 11.964 19.161 10.547 18.439ZM9 4.5C10.378 4.5 11.5 5.622 11.5 7C11.5 8.378 10.378 9.5 9 9.5C7.622 9.5 6.5 8.378 6.5 7C6.5 5.622 7.622 4.5 9 4.5ZM15 12.5C14.4243 12.4973 13.8675 12.2943 13.425 11.926C13.2934 11.8182 13.1731 11.6972 13.066 11.565C12.7027 11.1241 12.5028 10.5713 12.5 10C12.5 8.622 13.622 7.5 15 7.5C16.378 7.5 17.5 8.622 17.5 10C17.5 11.378 16.378 12.5 15 12.5ZM9.057 11.5C10.193 11.5 11.213 11.918 11.99 12.609C12.107 12.713 12.209 12.831 12.314 12.946C12.463 13.11 12.6 13.283 12.724 13.469C11.3514 14.0549 10.2408 15.1231 9.602 16.472C9.421 16.481 9.243 16.5 9.057 16.5C7.411 16.5 5.964 16.161 4.547 15.439C4.875 13.192 6.765 11.5 9.057 11.5Z" fill="#333333"/>
</svg>
