<svg width="20" height="20" viewBox="0 0 20 20" fill="none" xmlns="http://www.w3.org/2000/svg">
<path fill-rule="evenodd" clip-rule="evenodd" d="M3 5.24074V15.3358C3 16.2563 3.74619 17 4.66667 17H16.3333C17.2538 17 18 16.2538 18 15.3333V5.24074L16.7985 2.90442C16.5129 2.34909 15.9408 2 15.3163 2H5.68368C5.05921 2 4.48714 2.34909 4.20154 2.90442L3 5.24074ZM16.273 4.61574L15.6869 3.4761C15.6155 3.33727 15.4724 3.25 15.3163 3.25H5.68368C5.52757 3.25 5.38455 3.33727 5.31315 3.4761L4.72705 4.61574H16.273ZM16.75 5.86574H4.25V15.3358C4.25 15.5635 4.43409 15.75 4.66667 15.75H16.3333C16.5635 15.75 16.75 15.5635 16.75 15.3333V5.86574Z" fill="#333333"/>
</svg>
