<svg width="24" height="24" viewBox="0 0 24 24" fill="none" xmlns="http://www.w3.org/2000/svg">
<path d="M6.85544 16.3802H4.99912V11.3144L5.01714 10.482L5.04718 9.57186C4.73879 9.87924 4.52453 10.0808 4.40438 10.1766L3.39512 10.985L2.5 9.87126L5.32953 7.62575H6.85544V16.3802Z" fill="#000000"/>
<path d="M14.5553 16.3802H8.41567V15.0928L10.6204 12.8713C11.2732 12.2046 11.6998 11.7435 11.9 11.488C12.1003 11.2285 12.2444 10.989 12.3326 10.7695C12.4207 10.5499 12.4647 10.3224 12.4647 10.0868C12.4647 9.73553 12.3666 9.47405 12.1704 9.3024C11.9781 9.13074 11.7198 9.04491 11.3954 9.04491C11.055 9.04491 10.7246 9.12275 10.4042 9.27844C10.0838 9.43413 9.74933 9.65569 9.4009 9.94311L8.39164 8.7515C8.82418 8.38423 9.18263 8.12475 9.46698 7.97305C9.75134 7.82136 10.0617 7.70559 10.3981 7.62575C10.7346 7.54192 11.111 7.5 11.5276 7.5C12.0762 7.5 12.5608 7.5998 12.9814 7.7994C13.4019 7.999 13.7283 8.27844 13.9606 8.63772C14.1929 8.99701 14.309 9.40818 14.309 9.87126C14.309 10.2745 14.2369 10.6537 14.0928 11.009C13.9526 11.3603 13.7323 11.7216 13.4319 12.0928C13.1356 12.4641 12.6109 12.993 11.858 13.6796L10.7286 14.7395V14.8234H14.5553V16.3802Z" fill="#000000"/>
<path d="M21.2417 9.58383C21.2417 10.1307 21.0755 10.5958 20.7431 10.979C20.4106 11.3623 19.9441 11.6257 19.3433 11.7695V11.8054C20.0522 11.8932 20.5889 12.1088 20.9533 12.4521C21.3178 12.7914 21.5 13.2505 21.5 13.8293C21.5 14.6717 21.1936 15.3283 20.5809 15.7994C19.9681 16.2665 19.093 16.5 17.9556 16.5C17.0024 16.5 16.1573 16.3423 15.4204 16.0269V14.4521C15.7608 14.6238 16.1353 14.7635 16.5438 14.8713C16.9523 14.979 17.3568 15.0329 17.7573 15.0329C18.3701 15.0329 18.8227 14.9291 19.115 14.7216C19.4074 14.514 19.5536 14.1806 19.5536 13.7216C19.5536 13.3104 19.3854 13.019 19.0489 12.8473C18.7125 12.6756 18.1759 12.5898 17.4389 12.5898H16.7721V11.1707H17.4509C18.1318 11.1707 18.6284 11.0828 18.9408 10.9072C19.2572 10.7275 19.4154 10.4222 19.4154 9.99102C19.4154 9.32834 18.9989 8.99701 18.1658 8.99701C17.8775 8.99701 17.5831 9.04491 17.2827 9.14072C16.9864 9.23653 16.656 9.4022 16.2915 9.63772L15.4324 8.36228C16.2334 7.78743 17.1886 7.5 18.298 7.5C19.2071 7.5 19.924 7.68363 20.4487 8.0509C20.9773 8.41816 21.2417 8.92914 21.2417 9.58383Z" fill="#000000"/>
</svg>
