<svg width="24" height="24" viewBox="0 0 24 24" fill="none" xmlns="http://www.w3.org/2000/svg">
<path fill-rule="evenodd" clip-rule="evenodd" d="M9.25211 3H4.24954C3.83533 3 3.49954 3.33579 3.49954 3.75C3.49954 4.16421 3.83533 4.5 4.24954 4.5H7.49245C3.4095 6.95172 2.03113 12.2342 4.42179 16.375C6.83803 20.56 12.1894 21.9939 16.3745 19.5777C20.5596 17.1614 21.9935 11.81 19.5772 7.62496C18.3704 5.53459 16.4297 4.13005 14.2703 3.54976C13.8703 3.44226 13.4589 3.6794 13.3514 4.07942C13.2439 4.47945 13.481 4.89087 13.881 4.99837C15.6723 5.47973 17.278 6.64261 18.2782 8.37496C20.2802 11.8426 19.0921 16.2766 15.6245 18.2786C12.1569 20.2807 7.72286 19.0926 5.72082 15.625C3.71879 12.1573 4.90689 7.72331 8.37451 5.72128C8.42109 5.69439 8.46369 5.66325 8.50211 5.62865L8.50211 8.75C8.50211 9.16421 8.83789 9.5 9.25211 9.5C9.66632 9.5 10.0021 9.16421 10.0021 8.75L10.0021 3.75C10.0021 3.55109 9.92309 3.36032 9.78244 3.21967C9.64179 3.07902 9.45102 3 9.25211 3ZM8.50211 4.51481V4.5H8.4852C8.4909 4.50484 8.49654 4.50978 8.50211 4.51481Z" fill="#0E1318"/>
</svg>
