<svg width="24" height="24" viewBox="0 0 24 24" fill="none" xmlns="http://www.w3.org/2000/svg">
<path d="M5.73408 8.43789C6.00771 5.64044 8.38737 3.5 11.2083 3.5C13.9291 3.5 16.1883 5.47358 16.6302 8.06181C16.6472 8.1616 16.7425 8.24431 16.8324 8.25121C19.8579 8.4838 22.25 11.0469 22.25 14.1184C22.25 17.3687 19.6084 20 16.3542 20H14.75C14.3358 20 14 19.6642 14 19.25V19.25C14 18.8358 14.3358 18.5 14.75 18.5H16.3542C18.7839 18.5 20.75 16.5363 20.75 14.1184C20.75 11.8312 18.9618 9.91934 16.7174 9.7468C15.9307 9.68632 15.2825 9.08105 15.1516 8.31425C14.8309 6.43624 13.1876 5 11.2083 5C9.15103 5 7.42465 6.56282 7.22695 8.58391C7.16456 9.22175 6.74038 9.78075 6.13085 10.0038C4.44741 10.6198 3.25 12.2314 3.25 14.1184C3.25 16.5363 5.21612 18.5 7.64583 18.5H7.75C10.0972 18.5 12 16.5972 12 14.25V13.3005L9.9899 15.3187C9.6976 15.6122 9.22272 15.6132 8.92924 15.3209C8.63575 15.0286 8.6348 14.5537 8.9271 14.2602L12.2033 10.9707C12.344 10.8294 12.5353 10.75 12.7347 10.75C12.9341 10.75 13.1254 10.8294 13.2661 10.9707L16.5423 14.2602C16.8346 14.5537 16.8337 15.0286 16.5402 15.3209C16.2467 15.6132 15.7718 15.6122 15.4795 15.3187L13.5 13.3312V14.25C13.5 17.4256 10.9256 20 7.75 20H7.64583C4.39162 20 1.75 17.3687 1.75 14.1184C1.75 11.5797 3.36169 9.41986 5.61537 8.59515C5.6759 8.573 5.72701 8.51016 5.73408 8.43789Z" fill="black"/>
</svg>
