<svg width="24" height="24" viewBox="0 0 24 24" fill="none" xmlns="http://www.w3.org/2000/svg">
<path fill-rule="evenodd" clip-rule="evenodd" d="M19 7.29999H18.7262C19.3242 6.00235 18.9375 4.18581 17.73 3.28019C15.7001 2.19263 13.6433 4.47527 12.0016 6.62169C10.36 4.47527 8.30318 2.19263 6.27332 3.28019C5.06581 4.18581 4.67912 6.00235 5.27712 7.29999H5C3.89543 7.29999 3 8.19542 3 9.29999V11.3C3 12.4046 3.89543 13.3 5 13.3L5 19C5 20.1046 5.89543 21 7 21H17C18.1046 21 19 20.1046 19 19V13.3C20.1046 13.3 21 12.4046 21 11.3V9.29999C21 8.19542 20.1046 7.29999 19 7.29999ZM16.23 7.28017C16.7171 7.27993 16.9756 7.13779 17.1204 7.00927C17.2794 6.86827 17.4136 6.64192 17.4729 6.32026C17.5946 5.66051 17.3498 4.94324 16.9219 4.55608C16.6316 4.44262 16.2206 4.4709 15.4739 5.04733C14.7847 5.57935 14.086 6.38446 13.3884 7.28017L16.23 7.28017ZM11.25 8.79999H5C4.72386 8.79999 4.5 9.02385 4.5 9.29999V11.3C4.5 11.5761 4.72386 11.8 5 11.8H11.25V8.79999ZM12.75 8.79999V11.8H19C19.2761 11.8 19.5 11.5761 19.5 11.3V9.29999C19.5 9.02385 19.2761 8.79999 19 8.79999H12.75ZM11.25 13.3H6.5V19C6.5 19.2761 6.72386 19.5 7 19.5H11.25V13.3ZM12.75 19.5V13.3H17.5V19C17.5 19.2761 17.2761 19.5 17 19.5H12.75ZM7.77377 7.28017L10.6149 7.28017C9.9173 6.38446 9.21857 5.57935 8.52939 5.04733C7.78267 4.4709 7.37166 4.44262 7.08139 4.55608C6.65352 4.94324 6.40869 5.66051 6.53036 6.32026C6.58968 6.64192 6.72393 6.86827 6.88285 7.00927C7.0277 7.13779 7.28668 7.27993 7.77377 7.28017Z" fill="black"/>
</svg>
