<svg width="24" height="24" viewBox="0 0 24 24" fill="none" xmlns="http://www.w3.org/2000/svg">
<path d="M8.25 4C8.66421 4 9 4.33579 9 4.75C9 5.16421 8.66421 5.5 8.25 5.5H5.25C4.83579 5.5 4.5 5.83579 4.5 6.25V18.75C4.5 19.1642 4.83579 19.5 5.25 19.5H17.75C18.1642 19.5 18.5 19.1642 18.5 18.75V15.75C18.5 15.3358 18.8358 15 19.25 15C19.6642 15 20 15.3358 20 15.75V18.75C20 19.9926 18.9926 21 17.75 21H5.25C4.00736 21 3 19.9926 3 18.75V6.25C3 5.00736 4.00736 4 5.25 4H8.25ZM20.25 3C20.295 3 20.339 3.00413 20.3818 3.01172C20.3874 3.0127 20.3929 3.01354 20.3984 3.01465C20.4118 3.01733 20.4244 3.02298 20.4375 3.02637C20.4707 3.03495 20.5041 3.04344 20.5361 3.05664C20.5653 3.06868 20.592 3.08512 20.6191 3.10059C20.6763 3.1331 20.7315 3.171 20.7803 3.21973C20.8287 3.26812 20.866 3.32319 20.8984 3.37988C20.914 3.40703 20.9303 3.43375 20.9424 3.46289C20.9631 3.51289 20.9779 3.56459 20.9873 3.61719C20.995 3.66035 21 3.70462 21 3.75V10.25C21 10.6642 20.6642 11 20.25 11C19.8358 11 19.5 10.6642 19.5 10.25V5.56055L10.7803 14.2803C10.4874 14.5732 10.0126 14.5732 9.71973 14.2803C9.42683 13.9874 9.42683 13.5126 9.71973 13.2197L18.4395 4.5H13.75C13.3358 4.5 13 4.16421 13 3.75C13 3.33579 13.3358 3 13.75 3H20.25Z" fill="#0E1318"/>
</svg>
