<svg xmlns="http://www.w3.org/2000/svg" width="13" height="13" viewBox="0 0 13 13" fill="none">
  <path d="M7.46764 6.40698L12.594 11.5334C12.8869 11.8263 12.8869 12.3011 12.594 12.594C12.3011 12.8869 11.8263 12.8869 11.5334 12.594L6.40698 7.46764L1.28059 12.594C0.987693 12.8869 0.51282 12.8869 0.219927 12.594C-0.0729667 12.3011 -0.0729667 11.8263 0.219927 11.5334L5.34632 6.40698L0.21967 1.28033C-0.0732233 0.987437 -0.0732233 0.512563 0.21967 0.21967C0.512563 -0.0732233 0.987437 -0.0732233 1.28033 0.21967L6.40698 5.34632L11.5336 0.21967C11.8265 -0.0732233 12.3014 -0.0732233 12.5943 0.21967C12.8872 0.512563 12.8872 0.987437 12.5943 1.28033L7.46764 6.40698Z" fill="white"/>
</svg>