<svg width="20" height="20" viewBox="0 0 20 20" fill="none" xmlns="http://www.w3.org/2000/svg">
<path fill-rule="evenodd" clip-rule="evenodd" d="M9.29873 3.5H4.66667C3.74619 3.5 3 4.37116 3 5.29163V6.9583C3 7.04226 3.00621 7.12477 3.01819 7.2054C3.00622 7.2781 3 7.35263 3 7.42854V14.5714C3 15.3604 3.67157 16 4.5 16H15.5C16.3284 16 17 15.3604 17 14.5714V7.42854C17 6.63956 16.3284 5.99997 15.5 5.99997H11.2917L10.8799 4.76459C10.653 4.08402 10.0161 3.5 9.29873 3.5ZM4.5 5.99997H10.1737L9.69402 4.78487C9.63731 4.61473 9.47808 4.49997 9.29873 4.49997H4.41667C4.18655 4.49997 4 4.68652 4 4.91663V6.08126C4.15639 6.02861 4.32468 5.99997 4.5 5.99997ZM4.00003 7.26782C4.00003 7.13928 4.14711 6.99997 4.36767 6.99997H15.6324C15.8529 6.99997 16 7.13928 16 7.26782V14.7321C16 14.8607 15.8529 15 15.6324 15H4.36767C4.14711 15 4.00003 14.8607 4.00003 14.7321V7.26782Z" fill="#333333"/>
</svg>
