<svg width="24" height="24" viewBox="0 0 24 24" fill="none" xmlns="http://www.w3.org/2000/svg">
<path fill-rule="evenodd" clip-rule="evenodd" d="M12.75 3.75C12.75 3.33579 12.4142 3 12 3C11.5858 3 11.25 3.33579 11.25 3.75V18H7.75V11.75C7.75 11.3358 7.41421 11 7 11C6.58579 11 6.25 11.3358 6.25 11.75V18H2.75C2.33579 18 2 18.3358 2 18.75C2 19.1642 2.33579 19.5 2.75 19.5H21.25C21.6642 19.5 22 19.1642 22 18.75C22 18.3358 21.6642 18 21.25 18H17.75V7.75C17.75 7.33579 17.4142 7 17 7C16.5858 7 16.25 7.33579 16.25 7.75V18H12.75V3.75Z" fill="#191E26"/>
</svg>
