<svg width="24" height="24" viewBox="0 0 24 24" fill="none" xmlns="http://www.w3.org/2000/svg">
<path fill-rule="evenodd" clip-rule="evenodd" d="M9.25 3.5C9.25 3.08579 8.91421 2.75 8.5 2.75C8.08579 2.75 7.75 3.08579 7.75 3.5V5H7C4.79086 5 3 6.79086 3 9V17C3 19.2091 4.79086 21 7 21H17C19.2091 21 21 19.2091 21 17V9C21 6.79086 19.2091 5 17 5H16.25V3.5C16.25 3.08579 15.9142 2.75 15.5 2.75C15.0858 2.75 14.75 3.08579 14.75 3.5V5H9.25V3.5ZM14.75 7.5V6.5H9.25V7.5C9.25 7.91421 8.91421 8.25 8.5 8.25C8.08579 8.25 7.75 7.91421 7.75 7.5V6.5H7C5.61929 6.5 4.5 7.61929 4.5 9V10H19.5V9C19.5 7.61929 18.3807 6.5 17 6.5H16.25V7.5C16.25 7.91421 15.9142 8.25 15.5 8.25C15.0858 8.25 14.75 7.91421 14.75 7.5ZM19.5 11.5H4.5V17C4.5 18.3807 5.61929 19.5 7 19.5H17C18.3807 19.5 19.5 18.3807 19.5 17V11.5Z" fill="#000"/>
</svg>
