<svg width="24" height="24" viewBox="0 0 24 24" fill="none" xmlns="http://www.w3.org/2000/svg">
<path fill-rule="evenodd" clip-rule="evenodd" d="M12 22C6.47715 22 2 17.5228 2 12C2 6.47715 6.47715 2 12 2C17.5228 2 22 6.47715 22 12C22 17.5228 17.5228 22 12 22ZM12 20.5C12.8843 20.5 13.7371 20.365 14.5389 20.1144L11.3132 12.3018C11.2726 12.2094 11.25 12.1073 11.25 12V3.53263C6.90686 3.91233 3.5 7.55831 3.5 12C3.5 16.6944 7.30558 20.5 12 20.5ZM20.4597 12.8335C20.1752 15.7561 18.4107 18.2451 15.9251 19.5414L13.1257 12.7611L20.4597 12.8335ZM20.4743 11.3335C20.1535 7.19842 16.8738 3.89316 12.75 3.53263V11.2574L20.4743 11.3335Z" fill="black"/>
</svg>
