<svg width="24" height="24" viewBox="0 0 24 24" fill="none" xmlns="http://www.w3.org/2000/svg">
<path d="M19.5 14.5V13H20C20.1326 13 20.2598 12.9473 20.3536 12.8536C20.4473 12.7598 20.5 12.6326 20.5 12.5V6.5C20.5 6.36739 20.4473 6.24021 20.3536 6.14645C20.2598 6.05268 20.1326 6 20 6L8 6C7.72 6 7.5 6.22 7.5 6.5V8H6V6.5C6 5.96957 6.21071 5.46086 6.58579 5.08579C6.96086 4.71071 7.46957 4.5 8 4.5L20 4.5C21.1 4.5 22 5.4 22 6.5V12.5C22 13.0304 21.7893 13.5391 21.4142 13.9142C21.0391 14.2893 20.5304 14.5 20 14.5H19.5ZM16.5 11.5C16.5 11.3674 16.4473 11.2402 16.3536 11.1464C16.2598 11.0527 16.1326 11 16 11H4C3.72 11 3.5 11.22 3.5 11.5V17.5C3.5 17.6326 3.55268 17.7598 3.64645 17.8536C3.74021 17.9473 3.86739 18 4 18H16C16.1326 18 16.2598 17.9473 16.3536 17.8536C16.4473 17.7598 16.5 17.6326 16.5 17.5V11.5ZM18 11.5V17.5C18 18.0304 17.7893 18.5391 17.4142 18.9142C17.0391 19.2893 16.5304 19.5 16 19.5H4C3.46957 19.5 2.96086 19.2893 2.58579 18.9142C2.21071 18.5391 2 18.0304 2 17.5V11.5C2 10.9696 2.21071 10.4609 2.58579 10.0858C2.96086 9.71071 3.46957 9.5 4 9.5H16C17.1 9.5 18 10.4 18 11.5ZM8.24 12.5L11.8 14.48L8.24 16.46V12.5Z" fill="white"/>
</svg>
