<svg width="24" height="24" viewBox="0 0 24 24" fill="none" xmlns="http://www.w3.org/2000/svg">
<path fill-rule="evenodd" clip-rule="evenodd" d="M14.0351 7.97091L12.1293 3.85215C12.1091 3.80849 12.0904 3.79551 12.08 3.78917C12.0636 3.77921 12.0359 3.76929 11.9996 3.76929C11.9634 3.76929 11.9357 3.77921 11.9193 3.78917C11.9089 3.79551 11.8902 3.80849 11.87 3.85215L9.9642 7.97091C9.62663 8.70045 8.93567 9.20344 8.13769 9.30051L3.63442 9.8483C3.58694 9.85407 3.5688 9.86779 3.55948 9.87582C3.54493 9.88834 3.527 9.91157 3.51583 9.94587C3.50467 9.98016 3.50547 10.0095 3.50986 10.0282C3.51267 10.0402 3.51924 10.0619 3.55421 10.0946L6.8828 13.2002C7.46846 13.7466 7.73106 14.5563 7.57754 15.3425L6.70478 19.8116C6.69558 19.8587 6.70308 19.8801 6.70782 19.8914C6.71525 19.9091 6.73186 19.9334 6.76115 19.9546C6.79044 19.9758 6.81867 19.9841 6.83778 19.9856C6.84998 19.9866 6.87273 19.9871 6.91464 19.9637L10.8678 17.7562C11.5713 17.3634 12.428 17.3634 13.1314 17.7562L17.0846 19.9637C17.1265 19.9871 17.1493 19.9866 17.1615 19.9856C17.1806 19.9841 17.2088 19.9758 17.2381 19.9546C17.2674 19.9334 17.284 19.9091 17.2914 19.8914C17.2962 19.8801 17.3037 19.8587 17.2945 19.8116L16.4217 15.3425C16.2682 14.5563 16.5308 13.7466 17.1165 13.2002L20.445 10.0946C20.48 10.0619 20.4866 10.0402 20.4894 10.0282C20.4938 10.0095 20.4946 9.98016 20.4834 9.94587C20.4723 9.91158 20.4543 9.88834 20.4398 9.87582C20.4305 9.86779 20.4123 9.85407 20.3648 9.8483L15.8616 9.30051C15.0636 9.20344 14.3726 8.70046 14.0351 7.97091ZM13.4906 3.22225C12.9027 1.95163 11.0966 1.95163 10.5086 3.22225L8.60286 7.34101C8.48342 7.59916 8.23892 7.77713 7.95656 7.81148L3.45329 8.35927C2.06735 8.52786 1.5101 10.2389 2.53093 11.1913L5.85952 14.2969C6.06675 14.4903 6.15967 14.7768 6.10534 15.055L5.23259 19.5241C4.96453 20.8967 6.42486 21.9552 7.64595 21.2733L11.5992 19.0659C11.8481 18.9269 12.1512 18.9269 12.4001 19.0659L16.3533 21.2733C17.5744 21.9552 19.0347 20.8967 18.7667 19.524L17.8939 15.055C17.8396 14.7768 17.9325 14.4903 18.1397 14.2969L21.4683 11.1913C22.4892 10.2389 21.9319 8.52786 20.546 8.35927L16.0427 7.81148C15.7603 7.77713 15.5158 7.59916 15.3964 7.34101L13.4906 3.22225Z" fill="black"/>
</svg>
