<svg width="24" height="24" viewBox="0 0 24 24" fill="none" xmlns="http://www.w3.org/2000/svg">
<path fill-rule="evenodd" clip-rule="evenodd" d="M23.1425 6.50101C24.1476 5.49591 24.0126 3.73137 22.841 2.5598C21.6695 1.38822 19.9049 1.25327 18.8998 2.25837L10.1351 11.0231C9.61301 11.5452 9.22794 12.1921 9.00605 12.92L7.90523 16.5309C7.85875 16.6834 7.87196 16.8561 7.94244 17.0175C8.10438 17.3883 8.51962 17.6024 8.86991 17.4956L12.4809 16.3948C13.2087 16.1729 13.8556 15.7878 14.3778 15.2657L23.1425 6.50101ZM13.3165 14.2055C12.9249 14.597 12.4397 14.8858 11.8938 15.0523L11.2818 15.2388L10.1618 14.1188L10.3484 13.5068C10.5148 12.9609 10.8036 12.4757 11.1952 12.0841L11.7527 11.5266L13.8741 13.6479L13.3165 14.2055ZM14.9347 12.5872L19.7306 7.79135L17.6093 5.67003L12.8134 10.4659L14.9347 12.5872ZM22.0812 5.44074L20.7912 6.73069L18.6699 4.60937L19.9599 3.31942C20.4624 2.81687 21.3447 2.88435 21.9305 3.47013C22.5163 4.05592 22.5837 4.93819 22.0812 5.44074ZM12 2C13.3931 2 14.6754 2.47481 15.6938 3.27143L14.6225 4.34272C13.8841 3.81232 12.9785 3.5 12 3.5C9.51472 3.5 7.5 5.51472 7.5 8H10.9652L9.46519 9.5H6C5.72386 9.5 5.5 9.72386 5.5 10V19C5.5 19.2761 5.72386 19.5 6 19.5H18C18.2761 19.5 18.5 19.2761 18.5 19V13.3345L20 11.8345V19C20 20.1046 19.1046 21 18 21H6C4.89543 21 4 20.1046 4 19V10C4 8.89543 4.89543 8 6 8C6 4.68629 8.68629 2 12 2Z" fill="white"/>
</svg>
