<svg width="24" height="24" viewBox="0 0 24 24" fill="none" xmlns="http://www.w3.org/2000/svg">
<path d="M4.98926 5.5C4.98926 4.67157 5.66083 4 6.48926 4H17.4893C18.3177 4 18.9893 4.67157 18.9893 5.5V7.34986C18.9893 7.76408 18.6535 8.09986 18.2393 8.09986C17.825 8.09986 17.4893 7.76408 17.4893 7.34986V6.00086C17.4893 5.72438 17.2649 5.50039 16.9884 5.50087L12.7475 5.50819L12.7584 17.5C12.7584 18.0523 13.2062 18.5 13.7584 18.5H15.1652C15.5794 18.5 15.9152 18.8358 15.9152 19.25C15.9152 19.6642 15.5794 20 15.1652 20H8.85165C8.43744 20 8.10165 19.6642 8.10165 19.25C8.10165 18.8358 8.43744 18.5 8.85165 18.5H10.2584C10.8107 18.5 11.2584 18.0523 11.2584 17.5L11.2475 5.50819L6.99012 5.50086C6.71364 5.50039 6.48926 5.72438 6.48926 6.00086V7.37752C6.48926 7.79174 6.15347 8.12752 5.73926 8.12752C5.32504 8.12752 4.98926 7.79174 4.98926 7.37752V5.5Z" fill="#000000"/>
</svg>
