<svg width="20" height="20" viewBox="0 0 20 20" fill="none" xmlns="http://www.w3.org/2000/svg">
<g id="icon-add-folder">
<path id="Union" fill-rule="evenodd" clip-rule="evenodd" d="M4.66667 3.5H9.29873C10.0161 3.5 10.653 4.08402 10.8799 4.76459L11.2917 6H15.5C16.3284 6 17 6.63959 17 7.42857V14.5714C17 15.3604 16.3284 16 15.5 16H7.64582C7.96983 15.714 8.24715 15.3764 8.46489 15H15.6324C15.8529 15 16 14.8607 16 14.7321V7.26782C16 7.13928 15.8529 6.99997 15.6324 6.99997H4.36767C4.14711 6.99997 4.00003 7.13928 4.00003 7.26782V9.12601C3.64525 9.21732 3.30951 9.35608 3 9.53513V7.42857C3 7.35266 3.00622 7.27813 3.01819 7.20541C3.00621 7.12478 3 7.04227 3 6.9583V5.29163C3 4.37116 3.74619 3.5 4.66667 3.5ZM10.1737 6H4.5C4.32468 6 4.15639 6.02864 4 6.08129V4.91663C4 4.68652 4.18655 4.49997 4.41667 4.49997H9.29873C9.47808 4.49997 9.63731 4.61473 9.69402 4.78487L10.1737 6ZM2 13C2 11.3432 3.34315 10 5 10C6.65685 10 8 11.3432 8 13C8 14.6569 6.65685 16 5 16C3.34315 16 2 14.6569 2 13ZM4.61393 14.7104C4.59402 14.6577 4.58498 14.6015 4.58737 14.5451L4.58662 14.5444V13.3513H3.39349C3.28264 13.3513 3.17633 13.3072 3.09795 13.2288C3.01956 13.1505 2.97552 13.0441 2.97552 12.9333C2.97552 12.8224 3.01956 12.7161 3.09795 12.6377C3.17633 12.5594 3.28264 12.5153 3.39349 12.5153H4.58737V11.3222C4.58737 11.2113 4.63141 11.105 4.70979 11.0266C4.78818 10.9483 4.89449 10.9042 5.00534 10.9042C5.1162 10.9042 5.22251 10.9483 5.30089 11.0266C5.37928 11.105 5.42331 11.2113 5.42331 11.3222V12.5153H6.61644C6.72729 12.5153 6.83361 12.5594 6.91199 12.6377C6.99037 12.7161 7.03441 12.8224 7.03441 12.9333C7.03441 13.0441 6.99037 13.1505 6.91199 13.2288C6.83361 13.3072 6.72729 13.3513 6.61644 13.3513H5.42256V14.5451C5.42495 14.6015 5.41592 14.6577 5.39601 14.7104C5.3761 14.7632 5.34572 14.8114 5.30671 14.8521C5.2677 14.8928 5.22086 14.9252 5.169 14.9473C5.11714 14.9694 5.06135 14.9808 5.00497 14.9808C4.94859 14.9808 4.89279 14.9694 4.84094 14.9473C4.78908 14.9252 4.74224 14.8928 4.70322 14.8521C4.66421 14.8114 4.63384 14.7632 4.61393 14.7104Z" fill="#333333"/>
</g>
</svg>
