<svg width="14" height="14" viewBox="0 0 14 14" fill="none" xmlns="http://www.w3.org/2000/svg">
<g id="icon-search">
<path id="fill" fill-rule="evenodd" clip-rule="evenodd" d="M6.125 10.5C3.70875 10.5 1.75 8.54125 1.75 6.125C1.75 3.70875 3.70875 1.75 6.125 1.75C8.54125 1.75 10.5 3.70875 10.5 6.125C10.5 7.08198 10.1927 7.96719 9.6715 8.68737L12.1174 11.1333C12.3452 11.3611 12.3452 11.7304 12.1174 11.9582C11.8896 12.1861 11.5203 12.1861 11.2925 11.9582L8.86784 9.53363C8.11755 10.1381 7.16353 10.5 6.125 10.5ZM9.625 6.125C9.625 8.058 8.058 9.625 6.125 9.625C4.192 9.625 2.625 8.058 2.625 6.125C2.625 4.192 4.192 2.625 6.125 2.625C8.058 2.625 9.625 4.192 9.625 6.125Z" fill="#333333"/>
</g>
</svg>
