<svg width="24" height="24" viewBox="0 0 24 24" fill="none" xmlns="http://www.w3.org/2000/svg">
<g clip-path="url(#clip0_611_573)">
<path fill-rule="evenodd" clip-rule="evenodd" d="M23.3995 4.96806C24.4046 3.96297 24.2697 2.19842 23.0981 1.02685C21.9265 -0.144721 20.162 -0.279675 19.1569 0.725423L10.3922 9.49014C9.87008 10.0123 9.48501 10.6592 9.26312 11.387L8.1623 14.998C8.11582 15.1504 8.12903 15.3232 8.19951 15.4846C8.36145 15.8554 8.77669 16.0695 9.12698 15.9627L12.7379 14.8619C13.4658 14.64 14.1127 14.2549 14.6348 13.7328L23.3995 4.96806ZM13.5736 12.6725C13.182 13.0641 12.6968 13.3529 12.1509 13.5193L11.5389 13.7059L10.4188 12.5859L10.6054 11.9739C10.7718 11.428 11.0606 10.9428 11.4522 10.5512L12.0098 9.99362L14.1311 12.1149L13.5736 12.6725ZM15.1918 11.0543L19.9877 6.25841L17.8663 4.13709L13.0705 8.93296L15.1918 11.0543ZM22.3383 3.9078L21.0483 5.19775L18.927 3.07643L20.2169 1.78648C20.7195 1.28393 21.6018 1.3514 22.1876 1.93719C22.7733 2.52298 22.8408 3.40525 22.3383 3.9078ZM6 4.00001H10.5V5.50001H6C5.72386 5.50001 5.5 5.72387 5.5 6.00001V18C5.5 18.2762 5.72386 18.5 6 18.5H16C16.2761 18.5 16.5 18.2762 16.5 18V14.875H18V18C18 19.1046 17.1046 20 16 20H6C4.89543 20 4 19.1046 4 18V6.00001C4 4.89544 4.89543 4.00001 6 4.00001Z" fill="#333333"/>
</g>
<defs>
<clipPath id="clip0_611_573">
<rect width="24" height="24" fill="white"/>
</clipPath>
</defs>
</svg>
