<svg width="24" height="24" viewBox="0 0 24 24" fill="none" xmlns="http://www.w3.org/2000/svg">
<path fill-rule="evenodd" clip-rule="evenodd" d="M4.53033 15.5303L10.0704 9.99028L13.55 12.6C13.8662 12.8372 14.3122 12.7882 14.5694 12.4881L20.5694 5.48809C20.839 5.1736 20.8026 4.70012 20.4881 4.43056C20.1736 4.16099 19.7001 4.19741 19.4306 4.5119L13.8879 10.9784L10.45 8.4C10.1514 8.17606 9.73359 8.20575 9.46967 8.46967L3.46967 14.4697C3.17678 14.7626 3.17678 15.2374 3.46967 15.5303C3.76256 15.8232 4.23744 15.8232 4.53033 15.5303ZM2.75 19C2.33579 19 2 19.3358 2 19.75C2 20.1642 2.33579 20.5 2.75 20.5H21.25C21.6642 20.5 22 20.1642 22 19.75C22 19.3358 21.6642 19 21.25 19H2.75Z" fill="black"/>
</svg>
