<svg width="24" height="24" viewBox="0 0 24 24" fill="none" xmlns="http://www.w3.org/2000/svg">
<path fill-rule="evenodd" clip-rule="evenodd" d="M10.013 10.0304C10.1636 9.94679 10.3077 9.85311 10.4447 9.75027V9.75C10.4447 8.42463 11.0176 7.23308 11.9294 6.40955C11.7574 4.49803 10.151 3 8.19465 3C6.12358 3 4.44465 4.67893 4.44465 6.75C4.44465 8.16126 5.22423 9.39044 6.37624 10.0304C4.24162 10.7083 2.62561 12.5482 2.26844 14.8076C2.18095 15.361 2.40917 15.917 2.86021 16.2493C4.35311 17.3494 6.20008 18 8.19463 18L8.25035 17.9998C8.25228 17.8971 8.26128 17.7937 8.27761 17.6904C8.34303 17.2766 8.44596 16.8753 8.58283 16.4901C8.45425 16.4967 8.32483 16.5 8.19463 16.5C6.53101 16.5 4.9939 15.9583 3.75004 15.0418C4.08973 12.893 5.95031 11.25 8.19463 11.25C9.57983 11.25 10.8189 11.8759 11.6443 12.8603L11.6758 12.8427C11.0083 12.1374 10.5666 11.2163 10.4664 10.1949C10.3181 10.1342 10.1669 10.0793 10.013 10.0304ZM8.19465 9C9.43729 9 10.4446 7.99264 10.4446 6.75C10.4446 5.50736 9.43729 4.5 8.19465 4.5C6.95201 4.5 5.94465 5.50736 5.94465 6.75C5.94465 7.99264 6.95201 9 8.19465 9ZM18.6943 9.75C18.6943 11.1612 17.9148 12.3904 16.7628 13.0303C18.8975 13.7082 20.5136 15.5482 20.8708 17.8076C20.9583 18.361 20.7301 18.917 20.279 19.2493C18.7861 20.3494 16.9392 21 14.9446 21C12.9501 21 11.1031 20.3494 9.61022 19.2493C9.15918 18.917 8.93096 18.361 9.01845 17.8076C9.3756 15.5483 10.9915 13.7085 13.126 13.0305C11.9739 12.3905 11.1943 11.1613 11.1943 9.75C11.1943 7.67893 12.8732 6 14.9443 6C17.0154 6 18.6943 7.67893 18.6943 9.75ZM14.9443 12C16.1869 12 17.1943 10.9926 17.1943 9.75C17.1943 8.50736 16.1869 7.5 14.9443 7.5C13.7017 7.5 12.6943 8.50736 12.6943 9.75C12.6943 10.9926 13.7017 12 14.9443 12ZM14.9446 14.25C12.7003 14.25 10.8397 15.893 10.5 18.0418C11.7439 18.9583 13.281 19.5 14.9446 19.5C16.6082 19.5 18.1454 18.9583 19.3892 18.0418C19.0495 15.893 17.1889 14.25 14.9446 14.25Z" fill="white"/>
</svg>
