<svg width="24" height="24" viewBox="0 0 24 24" fill="none" xmlns="http://www.w3.org/2000/svg">
<path fill-rule="evenodd" clip-rule="evenodd" d="M12 2C15.3137 2 18 4.68629 18 8C19.1046 8 20 8.89543 20 10V19C20 20.1046 19.1046 21 18 21H6C4.89543 21 4 20.1046 4 19V10C4 8.89543 4.89543 8 6 8C6 4.68629 8.68629 2 12 2ZM7.5 8C7.5 5.51472 9.51472 3.5 12 3.5C14.4853 3.5 16.5 5.51472 16.5 8H7.5ZM6 9.5C5.72386 9.5 5.5 9.72386 5.5 10V19C5.5 19.2761 5.72386 19.5 6 19.5H18C18.2761 19.5 18.5 19.2761 18.5 19V10C18.5 9.72386 18.2761 9.5 18 9.5H6ZM13.7778 12.6428C13.7778 13.3883 13.3574 14.0311 12.7508 14.3268L12.7481 17.3607C12.7477 17.7749 12.4117 18.1104 11.9975 18.11C11.5832 18.1097 11.2477 17.7736 11.2481 17.3594L11.2507 14.3275C10.6433 14.0322 10.2222 13.3889 10.2222 12.6428C10.2222 11.6172 11.0182 10.7857 12 10.7857C12.9818 10.7857 13.7778 11.6172 13.7778 12.6428Z" fill="#333333"/>
</svg>
