<svg width="20" height="20" viewBox="0 0 20 20" fill="none" xmlns="http://www.w3.org/2000/svg">
<g clip-path="url(#clip0_627_1897)">
<path d="M7.27273 13.6214V14.1785C7.27273 14.254 7.24574 14.3193 7.19176 14.3744C7.13778 14.4295 7.07386 14.4571 7 14.4571H6.45455C6.38068 14.4571 6.31676 14.4295 6.26278 14.3744C6.20881 14.3193 6.18182 14.254 6.18182 14.1785V13.6214C6.18182 13.5459 6.20881 13.4806 6.26278 13.4255C6.31676 13.3704 6.38068 13.3428 6.45455 13.3428H7C7.07386 13.3428 7.13778 13.3704 7.19176 13.4255C7.24574 13.4806 7.27273 13.5459 7.27273 13.6214ZM7.27273 11.3928V11.95C7.27273 12.0254 7.24574 12.0907 7.19176 12.1458C7.13778 12.201 7.07386 12.2285 7 12.2285H6.45455C6.38068 12.2285 6.31676 12.201 6.26278 12.1458C6.20881 12.0907 6.18182 12.0254 6.18182 11.95V11.3928C6.18182 11.3174 6.20881 11.2521 6.26278 11.1969C6.31676 11.1418 6.38068 11.1142 6.45455 11.1142H7C7.07386 11.1142 7.13778 11.1418 7.19176 11.1969C7.24574 11.2521 7.27273 11.3174 7.27273 11.3928ZM9.45455 11.3928V11.95C9.45455 12.0254 9.42756 12.0907 9.37358 12.1458C9.3196 12.201 9.25568 12.2285 9.18182 12.2285H8.63636C8.5625 12.2285 8.49858 12.201 8.4446 12.1458C8.39063 12.0907 8.36364 12.0254 8.36364 11.95V11.3928C8.36364 11.3174 8.39063 11.2521 8.4446 11.1969C8.49858 11.1418 8.5625 11.1142 8.63636 11.1142H9.18182C9.25568 11.1142 9.3196 11.1418 9.37358 11.1969C9.42756 11.2521 9.45455 11.3174 9.45455 11.3928ZM7.27273 9.16424V9.72138C7.27273 9.79683 7.24574 9.86212 7.19176 9.91725C7.13778 9.97238 7.07386 9.99995 7 9.99995H6.45455C6.38068 9.99995 6.31676 9.97238 6.26278 9.91725C6.20881 9.86212 6.18182 9.79683 6.18182 9.72138V9.16424C6.18182 9.08879 6.20881 9.0235 6.26278 8.96837C6.31676 8.91323 6.38068 8.88567 6.45455 8.88567H7C7.07386 8.88567 7.13778 8.91323 7.19176 8.96837C7.24574 9.0235 7.27273 9.08879 7.27273 9.16424ZM13.8182 13.6214V14.1785C13.8182 14.254 13.7912 14.3193 13.7372 14.3744C13.6832 14.4295 13.6193 14.4571 13.5455 14.4571H13C12.9261 14.4571 12.8622 14.4295 12.8082 14.3744C12.7543 14.3193 12.7273 14.254 12.7273 14.1785V13.6214C12.7273 13.5459 12.7543 13.4806 12.8082 13.4255C12.8622 13.3704 12.9261 13.3428 13 13.3428H13.5455C13.6193 13.3428 13.6832 13.3704 13.7372 13.4255C13.7912 13.4806 13.8182 13.5459 13.8182 13.6214ZM11.6364 11.3928V11.95C11.6364 12.0254 11.6094 12.0907 11.5554 12.1458C11.5014 12.201 11.4375 12.2285 11.3636 12.2285H10.8182C10.7443 12.2285 10.6804 12.201 10.6264 12.1458C10.5724 12.0907 10.5455 12.0254 10.5455 11.95V11.3928C10.5455 11.3174 10.5724 11.2521 10.6264 11.1969C10.6804 11.1418 10.7443 11.1142 10.8182 11.1142H11.3636C11.4375 11.1142 11.5014 11.1418 11.5554 11.1969C11.6094 11.2521 11.6364 11.3174 11.6364 11.3928ZM9.45455 9.16424V9.72138C9.45455 9.79683 9.42756 9.86212 9.37358 9.91725C9.3196 9.97238 9.25568 9.99995 9.18182 9.99995H8.63636C8.5625 9.99995 8.49858 9.97238 8.4446 9.91725C8.39063 9.86212 8.36364 9.79683 8.36364 9.72138V9.16424C8.36364 9.08879 8.39063 9.0235 8.4446 8.96837C8.49858 8.91323 8.5625 8.88567 8.63636 8.88567H9.18182C9.25568 8.88567 9.3196 8.91323 9.37358 8.96837C9.42756 9.0235 9.45455 9.08879 9.45455 9.16424ZM7.27273 6.93567V7.49281C7.27273 7.56825 7.24574 7.63354 7.19176 7.68868C7.13778 7.74381 7.07386 7.77138 7 7.77138H6.45455C6.38068 7.77138 6.31676 7.74381 6.26278 7.68868C6.20881 7.63354 6.18182 7.56825 6.18182 7.49281V6.93567C6.18182 6.86022 6.20881 6.79493 6.26278 6.73979C6.31676 6.68466 6.38068 6.65709 6.45455 6.65709H7C7.07386 6.65709 7.13778 6.68466 7.19176 6.73979C7.24574 6.79493 7.27273 6.86022 7.27273 6.93567ZM13.8182 11.3928V11.95C13.8182 12.0254 13.7912 12.0907 13.7372 12.1458C13.6832 12.201 13.6193 12.2285 13.5455 12.2285H13C12.9261 12.2285 12.8622 12.201 12.8082 12.1458C12.7543 12.0907 12.7273 12.0254 12.7273 11.95V11.3928C12.7273 11.3174 12.7543 11.2521 12.8082 11.1969C12.8622 11.1418 12.9261 11.1142 13 11.1142H13.5455C13.6193 11.1142 13.6832 11.1418 13.7372 11.1969C13.7912 11.2521 13.8182 11.3174 13.8182 11.3928ZM11.6364 9.16424V9.72138C11.6364 9.79683 11.6094 9.86212 11.5554 9.91725C11.5014 9.97238 11.4375 9.99995 11.3636 9.99995H10.8182C10.7443 9.99995 10.6804 9.97238 10.6264 9.91725C10.5724 9.86212 10.5455 9.79683 10.5455 9.72138V9.16424C10.5455 9.08879 10.5724 9.0235 10.6264 8.96837C10.6804 8.91323 10.7443 8.88567 10.8182 8.88567H11.3636C11.4375 8.88567 11.5014 8.91323 11.5554 8.96837C11.6094 9.0235 11.6364 9.08879 11.6364 9.16424ZM9.45455 6.93567V7.49281C9.45455 7.56825 9.42756 7.63354 9.37358 7.68868C9.3196 7.74381 9.25568 7.77138 9.18182 7.77138H8.63636C8.5625 7.77138 8.49858 7.74381 8.4446 7.68868C8.39063 7.63354 8.36364 7.56825 8.36364 7.49281V6.93567C8.36364 6.86022 8.39063 6.79493 8.4446 6.73979C8.49858 6.68466 8.5625 6.65709 8.63636 6.65709H9.18182C9.25568 6.65709 9.3196 6.68466 9.37358 6.73979C9.42756 6.79493 9.45455 6.86022 9.45455 6.93567ZM7.27273 4.70709V5.26424C7.27273 5.33968 7.24574 5.40497 7.19176 5.46011C7.13778 5.51524 7.07386 5.54281 7 5.54281H6.45455C6.38068 5.54281 6.31676 5.51524 6.26278 5.46011C6.20881 5.40497 6.18182 5.33968 6.18182 5.26424V4.70709C6.18182 4.63165 6.20881 4.56636 6.26278 4.51122C6.31676 4.45609 6.38068 4.42852 6.45455 4.42852H7C7.07386 4.42852 7.13778 4.45609 7.19176 4.51122C7.24574 4.56636 7.27273 4.63165 7.27273 4.70709ZM13.8182 9.16424V9.72138C13.8182 9.79683 13.7912 9.86212 13.7372 9.91725C13.6832 9.97238 13.6193 9.99995 13.5455 9.99995H13C12.9261 9.99995 12.8622 9.97238 12.8082 9.91725C12.7543 9.86212 12.7273 9.79683 12.7273 9.72138V9.16424C12.7273 9.08879 12.7543 9.0235 12.8082 8.96837C12.8622 8.91323 12.9261 8.88567 13 8.88567H13.5455C13.6193 8.88567 13.6832 8.91323 13.7372 8.96837C13.7912 9.0235 13.8182 9.08879 13.8182 9.16424ZM11.6364 6.93567V7.49281C11.6364 7.56825 11.6094 7.63354 11.5554 7.68868C11.5014 7.74381 11.4375 7.77138 11.3636 7.77138H10.8182C10.7443 7.77138 10.6804 7.74381 10.6264 7.68868C10.5724 7.63354 10.5455 7.56825 10.5455 7.49281V6.93567C10.5455 6.86022 10.5724 6.79493 10.6264 6.73979C10.6804 6.68466 10.7443 6.65709 10.8182 6.65709H11.3636C11.4375 6.65709 11.5014 6.68466 11.5554 6.73979C11.6094 6.79493 11.6364 6.86022 11.6364 6.93567ZM9.45455 4.70709V5.26424C9.45455 5.33968 9.42756 5.40497 9.37358 5.46011C9.3196 5.51524 9.25568 5.54281 9.18182 5.54281H8.63636C8.5625 5.54281 8.49858 5.51524 8.4446 5.46011C8.39063 5.40497 8.36364 5.33968 8.36364 5.26424V4.70709C8.36364 4.63165 8.39063 4.56636 8.4446 4.51122C8.49858 4.45609 8.5625 4.42852 8.63636 4.42852H9.18182C9.25568 4.42852 9.3196 4.45609 9.37358 4.51122C9.42756 4.56636 9.45455 4.63165 9.45455 4.70709ZM13.8182 6.93567V7.49281C13.8182 7.56825 13.7912 7.63354 13.7372 7.68868C13.6832 7.74381 13.6193 7.77138 13.5455 7.77138H13C12.9261 7.77138 12.8622 7.74381 12.8082 7.68868C12.7543 7.63354 12.7273 7.56825 12.7273 7.49281V6.93567C12.7273 6.86022 12.7543 6.79493 12.8082 6.73979C12.8622 6.68466 12.9261 6.65709 13 6.65709H13.5455C13.6193 6.65709 13.6832 6.68466 13.7372 6.73979C13.7912 6.79493 13.8182 6.86022 13.8182 6.93567ZM11.6364 4.70709V5.26424C11.6364 5.33968 11.6094 5.40497 11.5554 5.46011C11.5014 5.51524 11.4375 5.54281 11.3636 5.54281H10.8182C10.7443 5.54281 10.6804 5.51524 10.6264 5.46011C10.5724 5.40497 10.5455 5.33968 10.5455 5.26424V4.70709C10.5455 4.63165 10.5724 4.56636 10.6264 4.51122C10.6804 4.45609 10.7443 4.42852 10.8182 4.42852H11.3636C11.4375 4.42852 11.5014 4.45609 11.5554 4.51122C11.6094 4.56636 11.6364 4.63165 11.6364 4.70709ZM13.8182 4.70709V5.26424C13.8182 5.33968 13.7912 5.40497 13.7372 5.46011C13.6832 5.51524 13.6193 5.54281 13.5455 5.54281H13C12.9261 5.54281 12.8622 5.51524 12.8082 5.46011C12.7543 5.40497 12.7273 5.33968 12.7273 5.26424V4.70709C12.7273 4.63165 12.7543 4.56636 12.8082 4.51122C12.8622 4.45609 12.9261 4.42852 13 4.42852H13.5455C13.6193 4.42852 13.6832 4.45609 13.7372 4.51122C13.7912 4.56636 13.8182 4.63165 13.8182 4.70709ZM11.6364 16.6857H14.9091V3.31424H5.09091V16.6857H8.36364V14.7357C8.36364 14.6602 8.39063 14.5949 8.4446 14.5398C8.49858 14.4847 8.5625 14.4571 8.63636 14.4571H11.3636C11.4375 14.4571 11.5014 14.4847 11.5554 14.5398C11.6094 14.5949 11.6364 14.6602 11.6364 14.7357V16.6857ZM16 2.75709V17.2428C16 17.3937 15.946 17.5243 15.8381 17.6345C15.7301 17.7448 15.6023 17.8 15.4545 17.8H4.54545C4.39773 17.8 4.26989 17.7448 4.16193 17.6345C4.05398 17.5243 4 17.3937 4 17.2428V2.75709C4 2.6062 4.05398 2.47562 4.16193 2.36535C4.26989 2.25509 4.39773 2.19995 4.54545 2.19995H15.4545C15.6023 2.19995 15.7301 2.25509 15.8381 2.36535C15.946 2.47562 16 2.6062 16 2.75709Z" fill="#333333"/>
</g>
<defs>
<clipPath id="clip0_627_1897">
<rect width="12" height="15.6" fill="white" transform="translate(4 2.19995)"/>
</clipPath>
</defs>
</svg>
