<svg xmlns="http://www.w3.org/2000/svg" xmlns:xlink="http://www.w3.org/1999/xlink" width="500" zoomAndPan="magnify" viewBox="0 0 375 374.999991" height="500" preserveAspectRatio="xMidYMid meet" version="1.0"><defs><clipPath id="903c941aa7"><path d="M 37.5 37.5 L 337.5 37.5 L 337.5 337.5 L 37.5 337.5 Z M 37.5 37.5 " clip-rule="nonzero"/></clipPath></defs><g clip-path="url(#903c941aa7)"><path fill="#ffffff" d="M 125.375 38.550781 C 109.414062 39.304688 98.515625 41.851562 88.988281 45.59375 C 79.128906 49.4375 70.769531 54.59375 62.453125 62.941406 C 54.136719 71.285156 49.015625 79.648438 45.199219 89.527344 C 41.507812 99.074219 39.007812 109.984375 38.300781 125.953125 C 37.597656 141.921875 37.441406 147.054688 37.519531 187.789062 C 37.597656 228.523438 37.777344 233.628906 38.550781 249.628906 C 39.3125 265.585938 41.851562 276.484375 45.59375 286.015625 C 49.441406 295.875 54.59375 304.230469 62.941406 312.550781 C 71.292969 320.867188 79.648438 325.976562 89.550781 329.800781 C 99.089844 333.484375 110 336 125.96875 336.699219 C 141.933594 337.398438 147.070312 337.558594 187.792969 337.480469 C 228.515625 337.402344 233.644531 337.222656 249.640625 336.464844 C 265.640625 335.707031 276.480469 333.148438 286.015625 329.425781 C 295.875 325.566406 304.234375 320.425781 312.550781 312.070312 C 320.863281 303.71875 325.980469 295.351562 329.792969 285.46875 C 333.488281 275.929688 336 265.015625 336.691406 249.0625 C 337.390625 233.050781 337.558594 227.941406 337.480469 187.210938 C 337.402344 146.484375 337.21875 141.378906 336.457031 125.382812 C 335.699219 109.386719 333.160156 98.523438 329.417969 88.984375 C 325.5625 79.125 320.417969 70.777344 312.070312 62.449219 C 303.726562 54.125 295.351562 49.011719 285.472656 45.207031 C 275.925781 41.515625 265.019531 38.996094 249.054688 38.308594 C 233.089844 37.617188 227.949219 37.441406 187.210938 37.519531 C 146.476562 37.597656 141.375 37.769531 125.375 38.550781 M 127.128906 309.714844 C 112.503906 309.078125 104.5625 306.648438 99.269531 304.613281 C 92.261719 301.914062 87.269531 298.648438 81.996094 293.425781 C 76.722656 288.203125 73.480469 283.195312 70.746094 276.199219 C 68.691406 270.910156 66.214844 262.976562 65.53125 248.351562 C 64.789062 232.546875 64.632812 227.800781 64.546875 187.753906 C 64.457031 147.703125 64.609375 142.964844 65.304688 127.152344 C 65.929688 112.539062 68.371094 104.589844 70.402344 99.300781 C 73.105469 92.28125 76.355469 87.300781 81.589844 82.027344 C 86.824219 76.757812 91.820312 73.511719 98.820312 70.777344 C 104.105469 68.710938 112.039062 66.257812 126.65625 65.5625 C 142.476562 64.8125 147.214844 64.660156 187.257812 64.574219 C 227.296875 64.488281 232.050781 64.636719 247.875 65.335938 C 262.488281 65.96875 270.441406 68.390625 275.722656 70.433594 C 282.734375 73.132812 287.722656 76.378906 292.996094 81.621094 C 298.265625 86.863281 301.515625 91.84375 304.25 98.855469 C 306.316406 104.128906 308.773438 112.054688 309.460938 126.683594 C 310.214844 142.503906 310.386719 147.246094 310.457031 187.285156 C 310.53125 227.320312 310.390625 232.078125 309.695312 247.882812 C 309.058594 262.507812 306.632812 270.453125 304.597656 275.75 C 301.894531 282.757812 298.640625 287.75 293.402344 293.019531 C 288.164062 298.285156 283.175781 301.53125 276.175781 304.269531 C 270.894531 306.328125 262.953125 308.789062 248.347656 309.484375 C 232.527344 310.230469 227.785156 310.386719 187.730469 310.472656 C 147.675781 310.558594 142.949219 310.398438 127.132812 309.714844 M 249.410156 107.332031 C 249.410156 107.921875 249.441406 108.507812 249.5 109.09375 C 249.558594 109.683594 249.648438 110.265625 249.761719 110.84375 C 249.878906 111.421875 250.023438 111.992188 250.195312 112.554688 C 250.367188 113.117188 250.566406 113.671875 250.792969 114.21875 C 251.019531 114.761719 251.273438 115.292969 251.550781 115.8125 C 251.828125 116.332031 252.132812 116.835938 252.460938 117.328125 C 252.789062 117.816406 253.140625 118.289062 253.515625 118.742188 C 253.890625 119.199219 254.289062 119.632812 254.703125 120.050781 C 255.121094 120.46875 255.558594 120.863281 256.015625 121.234375 C 256.472656 121.609375 256.945312 121.957031 257.4375 122.285156 C 257.925781 122.613281 258.433594 122.914062 258.953125 123.191406 C 259.472656 123.46875 260.007812 123.71875 260.550781 123.941406 C 261.097656 124.167969 261.652344 124.363281 262.214844 124.535156 C 262.78125 124.707031 263.351562 124.847656 263.929688 124.960938 C 264.507812 125.074219 265.089844 125.160156 265.679688 125.21875 C 266.265625 125.273438 266.851562 125.300781 267.441406 125.300781 C 268.03125 125.300781 268.621094 125.269531 269.207031 125.210938 C 269.792969 125.152344 270.375 125.066406 270.953125 124.949219 C 271.53125 124.832031 272.101562 124.6875 272.667969 124.515625 C 273.230469 124.34375 273.785156 124.144531 274.328125 123.917969 C 274.875 123.691406 275.40625 123.4375 275.925781 123.160156 C 276.445312 122.882812 276.949219 122.578125 277.4375 122.25 C 277.929688 121.921875 278.402344 121.570312 278.855469 121.195312 C 279.308594 120.820312 279.746094 120.421875 280.164062 120.003906 C 280.578125 119.585938 280.972656 119.152344 281.347656 118.695312 C 281.71875 118.238281 282.070312 117.765625 282.394531 117.273438 C 282.722656 116.78125 283.023438 116.277344 283.300781 115.757812 C 283.578125 115.234375 283.828125 114.703125 284.054688 114.160156 C 284.277344 113.613281 284.476562 113.058594 284.644531 112.492188 C 284.816406 111.929688 284.957031 111.359375 285.070312 110.78125 C 285.1875 110.199219 285.269531 109.617188 285.328125 109.03125 C 285.382812 108.445312 285.410156 107.855469 285.410156 107.265625 C 285.410156 106.675781 285.378906 106.089844 285.320312 105.503906 C 285.261719 104.917969 285.175781 104.332031 285.058594 103.753906 C 284.941406 103.179688 284.796875 102.605469 284.625 102.042969 C 284.453125 101.480469 284.253906 100.925781 284.027344 100.378906 C 283.800781 99.835938 283.546875 99.304688 283.269531 98.785156 C 282.992188 98.265625 282.6875 97.761719 282.359375 97.273438 C 282.03125 96.78125 281.679688 96.308594 281.304688 95.855469 C 280.929688 95.398438 280.53125 94.964844 280.113281 94.546875 C 279.695312 94.132812 279.257812 93.738281 278.804688 93.363281 C 278.347656 92.992188 277.871094 92.640625 277.382812 92.316406 C 276.890625 91.988281 276.386719 91.6875 275.863281 91.410156 C 275.34375 91.132812 274.8125 90.882812 274.265625 90.65625 C 273.722656 90.433594 273.167969 90.234375 272.601562 90.066406 C 272.039062 89.894531 271.464844 89.753906 270.886719 89.640625 C 270.308594 89.527344 269.726562 89.441406 269.140625 89.382812 C 268.554688 89.328125 267.964844 89.300781 267.375 89.300781 C 266.785156 89.300781 266.199219 89.332031 265.609375 89.390625 C 265.023438 89.449219 264.441406 89.539062 263.863281 89.652344 C 263.285156 89.769531 262.714844 89.914062 262.152344 90.085938 C 261.589844 90.257812 261.035156 90.457031 260.492188 90.683594 C 259.945312 90.910156 259.414062 91.164062 258.894531 91.441406 C 258.375 91.722656 257.871094 92.023438 257.382812 92.351562 C 256.894531 92.683594 256.421875 93.035156 255.964844 93.40625 C 255.511719 93.78125 255.074219 94.179688 254.660156 94.597656 C 254.242188 95.015625 253.847656 95.449219 253.476562 95.90625 C 253.101562 96.363281 252.753906 96.835938 252.425781 97.328125 C 252.101562 97.816406 251.796875 98.324219 251.519531 98.84375 C 251.246094 99.363281 250.992188 99.898438 250.769531 100.441406 C 250.542969 100.988281 250.347656 101.542969 250.175781 102.105469 C 250.007812 102.671875 249.863281 103.242188 249.75 103.820312 C 249.636719 104.398438 249.550781 104.980469 249.496094 105.566406 C 249.4375 106.152344 249.410156 106.742188 249.410156 107.332031 M 110.480469 187.648438 C 110.566406 230.191406 145.113281 264.597656 187.644531 264.515625 C 230.175781 264.433594 264.605469 229.890625 264.523438 187.351562 C 264.445312 144.808594 229.886719 110.394531 187.351562 110.476562 C 144.8125 110.5625 110.398438 145.117188 110.480469 187.648438 M 137.5 187.597656 C 137.496094 185.957031 137.574219 184.324219 137.730469 182.695312 C 137.886719 181.066406 138.125 179.445312 138.441406 177.839844 C 138.757812 176.234375 139.152344 174.644531 139.625 173.078125 C 140.09375 171.507812 140.644531 169.96875 141.265625 168.453125 C 141.890625 166.941406 142.585938 165.460938 143.355469 164.015625 C 144.125 162.566406 144.964844 161.164062 145.871094 159.800781 C 146.777344 158.4375 147.75 157.121094 148.785156 155.851562 C 149.824219 154.585938 150.917969 153.371094 152.074219 152.210938 C 153.230469 151.050781 154.4375 149.949219 155.703125 148.910156 C 156.96875 147.867188 158.277344 146.890625 159.636719 145.976562 C 161 145.066406 162.398438 144.222656 163.84375 143.445312 C 165.285156 142.671875 166.761719 141.96875 168.273438 141.339844 C 169.785156 140.710938 171.324219 140.15625 172.890625 139.679688 C 174.457031 139.199219 176.042969 138.800781 177.648438 138.476562 C 179.253906 138.152344 180.871094 137.910156 182.5 137.746094 C 184.128906 137.582031 185.761719 137.5 187.402344 137.496094 C 189.039062 137.492188 190.671875 137.570312 192.300781 137.726562 C 193.933594 137.882812 195.550781 138.121094 197.15625 138.4375 C 198.765625 138.753906 200.351562 139.148438 201.917969 139.621094 C 203.488281 140.09375 205.027344 140.640625 206.542969 141.265625 C 208.058594 141.886719 209.535156 142.585938 210.984375 143.355469 C 212.429688 144.121094 213.832031 144.960938 215.195312 145.867188 C 216.558594 146.773438 217.875 147.746094 219.144531 148.78125 C 220.410156 149.820312 221.625 150.914062 222.785156 152.070312 C 223.945312 153.226562 225.046875 154.4375 226.089844 155.699219 C 227.128906 156.964844 228.105469 158.277344 229.019531 159.636719 C 229.929688 160.996094 230.773438 162.398438 231.550781 163.839844 C 232.324219 165.28125 233.027344 166.757812 233.65625 168.269531 C 234.285156 169.78125 234.839844 171.320312 235.320312 172.886719 C 235.796875 174.453125 236.199219 176.039062 236.519531 177.644531 C 236.84375 179.25 237.085938 180.867188 237.25 182.496094 C 237.414062 184.128906 237.496094 185.761719 237.5 187.398438 C 237.503906 189.035156 237.425781 190.667969 237.269531 192.300781 C 237.113281 193.929688 236.875 195.546875 236.558594 197.15625 C 236.242188 198.761719 235.847656 200.347656 235.375 201.917969 C 234.902344 203.484375 234.355469 205.027344 233.734375 206.539062 C 233.109375 208.054688 232.414062 209.535156 231.644531 210.980469 C 230.875 212.425781 230.035156 213.832031 229.128906 215.195312 C 228.222656 216.558594 227.25 217.871094 226.214844 219.140625 C 225.175781 220.410156 224.082031 221.621094 222.925781 222.78125 C 221.769531 223.941406 220.558594 225.042969 219.296875 226.085938 C 218.03125 227.125 216.722656 228.105469 215.359375 229.015625 C 214 229.929688 212.601562 230.773438 211.15625 231.546875 C 209.714844 232.320312 208.238281 233.023438 206.726562 233.652344 C 205.214844 234.285156 203.675781 234.835938 202.109375 235.316406 C 200.542969 235.792969 198.957031 236.195312 197.351562 236.519531 C 195.746094 236.839844 194.128906 237.082031 192.5 237.246094 C 190.871094 237.410156 189.238281 237.496094 187.597656 237.496094 C 185.960938 237.5 184.328125 237.425781 182.699219 237.265625 C 181.066406 237.109375 179.449219 236.875 177.84375 236.558594 C 176.234375 236.242188 174.648438 235.847656 173.078125 235.375 C 171.511719 234.902344 169.96875 234.355469 168.457031 233.730469 C 166.941406 233.109375 165.460938 232.410156 164.015625 231.640625 C 162.570312 230.875 161.164062 230.035156 159.800781 229.128906 C 158.4375 228.222656 157.121094 227.25 155.855469 226.214844 C 154.585938 225.175781 153.371094 224.082031 152.210938 222.925781 C 151.050781 221.769531 149.949219 220.558594 148.910156 219.296875 C 147.867188 218.03125 146.890625 216.71875 145.980469 215.359375 C 145.066406 214 144.222656 212.597656 143.449219 211.15625 C 142.671875 209.714844 141.972656 208.234375 141.339844 206.722656 C 140.710938 205.210938 140.15625 203.671875 139.679688 202.105469 C 139.199219 200.539062 138.800781 198.953125 138.476562 197.347656 C 138.15625 195.742188 137.914062 194.125 137.75 192.496094 C 137.585938 190.867188 137.503906 189.234375 137.5 187.597656 " fill-opacity="1" fill-rule="nonzero"/></g></svg>