<svg xmlns="http://www.w3.org/2000/svg" xmlns:xlink="http://www.w3.org/1999/xlink" width="500" zoomAndPan="magnify" viewBox="0 0 375 374.999991" height="500" preserveAspectRatio="xMidYMid meet" version="1.0"><defs><clipPath id="b8f4468bd5"><path d="M 27 50.671875 L 299 50.671875 L 299 323 L 27 323 Z M 27 50.671875 " clip-rule="nonzero"/></clipPath></defs><path fill="#ffffff" d="M 332.234375 306.652344 C 332.578125 306.65625 332.917969 306.625 333.257812 306.558594 C 333.59375 306.492188 333.921875 306.390625 334.242188 306.257812 C 334.558594 306.121094 334.859375 305.957031 335.140625 305.761719 C 335.425781 305.566406 335.683594 305.34375 335.921875 305.09375 C 336.160156 304.84375 336.371094 304.574219 336.550781 304.28125 C 336.734375 303.988281 336.882812 303.683594 337.003906 303.359375 C 337.121094 303.035156 337.207031 302.703125 337.257812 302.363281 C 337.304688 302.023438 337.320312 301.679688 337.304688 301.335938 C 337.304688 297.566406 335.027344 295.765625 330.363281 295.765625 L 322.820312 295.765625 L 322.820312 315.503906 L 325.65625 315.503906 L 325.65625 306.898438 L 329.144531 306.898438 L 329.222656 307.003906 L 334.628906 315.503906 L 337.664062 315.503906 L 331.84375 306.707031 Z M 328.953125 304.675781 L 325.667969 304.675781 L 325.667969 298.003906 L 329.835938 298.003906 C 331.988281 298.003906 334.441406 298.355469 334.441406 301.171875 C 334.441406 304.414062 331.957031 304.675781 328.9375 304.675781 " fill-opacity="1" fill-rule="nonzero"/><g clip-path="url(#b8f4468bd5)"><path fill="#ffffff" d="M 258.257812 281.917969 L 218.046875 281.917969 L 218.046875 218.941406 C 218.046875 203.921875 217.777344 184.59375 197.128906 184.59375 C 176.1875 184.59375 172.980469 200.953125 172.980469 217.847656 L 172.980469 281.914062 L 132.769531 281.914062 L 132.769531 152.410156 L 171.371094 152.410156 L 171.371094 170.105469 L 171.914062 170.105469 C 172.875 168.460938 173.941406 166.890625 175.117188 165.390625 C 176.289062 163.890625 177.558594 162.476562 178.921875 161.148438 C 180.289062 159.820312 181.734375 158.589844 183.265625 157.457031 C 184.796875 156.324219 186.398438 155.300781 188.066406 154.382812 C 189.734375 153.464844 191.460938 152.664062 193.238281 151.980469 C 195.015625 151.296875 196.828125 150.734375 198.683594 150.296875 C 200.535156 149.859375 202.410156 149.546875 204.304688 149.359375 C 206.199219 149.175781 208.101562 149.117188 210.003906 149.1875 C 250.761719 149.1875 258.277344 175.996094 258.277344 210.871094 Z M 87.394531 134.707031 C 86.628906 134.707031 85.867188 134.667969 85.105469 134.59375 C 84.34375 134.519531 83.589844 134.40625 82.839844 134.257812 C 82.089844 134.109375 81.351562 133.925781 80.621094 133.703125 C 79.886719 133.480469 79.167969 133.222656 78.460938 132.929688 C 77.757812 132.640625 77.066406 132.3125 76.390625 131.953125 C 75.71875 131.59375 75.0625 131.199219 74.425781 130.777344 C 73.792969 130.351562 73.179688 129.898438 72.589844 129.410156 C 71.996094 128.925781 71.429688 128.414062 70.890625 127.875 C 70.351562 127.332031 69.835938 126.769531 69.351562 126.175781 C 68.867188 125.585938 68.414062 124.972656 67.988281 124.339844 C 67.5625 123.703125 67.171875 123.046875 66.808594 122.375 C 66.449219 121.699219 66.125 121.011719 65.832031 120.304688 C 65.539062 119.597656 65.28125 118.878906 65.058594 118.148438 C 64.835938 117.417969 64.652344 116.675781 64.5 115.925781 C 64.351562 115.175781 64.242188 114.421875 64.164062 113.660156 C 64.089844 112.902344 64.054688 112.136719 64.054688 111.375 C 64.054688 110.609375 64.089844 109.847656 64.164062 109.085938 C 64.238281 108.324219 64.351562 107.570312 64.5 106.820312 C 64.648438 106.070312 64.835938 105.332031 65.054688 104.601562 C 65.277344 103.867188 65.535156 103.148438 65.828125 102.441406 C 66.121094 101.738281 66.445312 101.046875 66.808594 100.371094 C 67.167969 99.699219 67.558594 99.042969 67.984375 98.410156 C 68.40625 97.773438 68.863281 97.160156 69.347656 96.570312 C 69.832031 95.976562 70.34375 95.410156 70.886719 94.871094 C 71.425781 94.332031 71.992188 93.816406 72.582031 93.332031 C 73.171875 92.847656 73.785156 92.394531 74.421875 91.96875 C 75.054688 91.542969 75.710938 91.152344 76.382812 90.789062 C 77.058594 90.429688 77.75 90.105469 78.453125 89.8125 C 79.160156 89.519531 79.878906 89.261719 80.609375 89.039062 C 81.34375 88.816406 82.082031 88.632812 82.832031 88.484375 C 83.582031 88.332031 84.335938 88.222656 85.097656 88.144531 C 85.859375 88.070312 86.621094 88.035156 87.386719 88.035156 C 88.148438 88.035156 88.910156 88.070312 89.671875 88.144531 C 90.433594 88.21875 91.1875 88.332031 91.9375 88.480469 C 92.6875 88.628906 93.429688 88.816406 94.160156 89.035156 C 94.890625 89.257812 95.609375 89.515625 96.316406 89.808594 C 97.023438 90.101562 97.710938 90.425781 98.386719 90.785156 C 99.058594 91.148438 99.714844 91.539062 100.351562 91.964844 C 100.988281 92.386719 101.597656 92.84375 102.191406 93.328125 C 102.78125 93.8125 103.347656 94.324219 103.886719 94.867188 C 104.429688 95.40625 104.941406 95.972656 105.425781 96.5625 C 105.910156 97.152344 106.363281 97.765625 106.789062 98.402344 C 107.214844 99.035156 107.609375 99.691406 107.96875 100.367188 C 108.328125 101.039062 108.65625 101.730469 108.949219 102.433594 C 109.242188 103.140625 109.496094 103.859375 109.71875 104.589844 C 109.941406 105.324219 110.128906 106.0625 110.277344 106.8125 C 110.425781 107.5625 110.539062 108.316406 110.613281 109.078125 C 110.6875 109.839844 110.726562 110.601562 110.726562 111.367188 C 110.726562 112.128906 110.6875 112.890625 110.613281 113.652344 C 110.539062 114.414062 110.425781 115.167969 110.277344 115.917969 C 110.128906 116.667969 109.945312 117.410156 109.722656 118.140625 C 109.5 118.871094 109.242188 119.589844 108.949219 120.296875 C 108.660156 121.003906 108.332031 121.691406 107.972656 122.367188 C 107.613281 123.039062 107.21875 123.695312 106.796875 124.332031 C 106.371094 124.96875 105.917969 125.582031 105.429688 126.171875 C 104.945312 126.761719 104.433594 127.328125 103.894531 127.867188 C 103.351562 128.410156 102.789062 128.921875 102.195312 129.40625 C 101.605469 129.890625 100.992188 130.347656 100.359375 130.769531 C 99.722656 131.195312 99.066406 131.589844 98.394531 131.949219 C 97.71875 132.308594 97.03125 132.636719 96.324219 132.929688 C 95.617188 133.222656 94.898438 133.476562 94.167969 133.699219 C 93.4375 133.921875 92.695312 134.109375 91.945312 134.257812 C 91.195312 134.40625 90.441406 134.519531 89.679688 134.59375 C 88.921875 134.667969 88.15625 134.707031 87.394531 134.707031 M 107.5 281.917969 L 67.246094 281.917969 L 67.246094 152.410156 L 107.5 152.410156 Z M 278.308594 50.6875 L 47.039062 50.6875 C 46.390625 50.683594 45.742188 50.707031 45.097656 50.761719 C 44.449219 50.820312 43.808594 50.90625 43.171875 51.027344 C 42.535156 51.144531 41.90625 51.296875 41.28125 51.476562 C 40.660156 51.65625 40.046875 51.867188 39.445312 52.109375 C 38.84375 52.351562 38.257812 52.621094 37.679688 52.917969 C 37.105469 53.21875 36.546875 53.546875 36.003906 53.898438 C 35.460938 54.253906 34.933594 54.632812 34.429688 55.039062 C 33.921875 55.441406 33.4375 55.871094 32.976562 56.324219 C 32.511719 56.777344 32.070312 57.253906 31.652344 57.75 C 31.238281 58.246094 30.84375 58.761719 30.476562 59.296875 C 30.113281 59.832031 29.773438 60.382812 29.460938 60.949219 C 29.148438 61.519531 28.863281 62.101562 28.609375 62.695312 C 28.351562 63.292969 28.128906 63.898438 27.933594 64.515625 C 27.734375 65.132812 27.570312 65.761719 27.4375 66.394531 C 27.304688 67.027344 27.199219 67.667969 27.128906 68.3125 C 27.058594 68.957031 27.019531 69.601562 27.011719 70.25 L 27.011719 302.480469 C 27.019531 303.128906 27.058594 303.777344 27.128906 304.421875 C 27.199219 305.066406 27.300781 305.703125 27.4375 306.339844 C 27.570312 306.972656 27.734375 307.601562 27.929688 308.21875 C 28.125 308.835938 28.351562 309.445312 28.605469 310.039062 C 28.859375 310.636719 29.144531 311.21875 29.457031 311.789062 C 29.769531 312.355469 30.109375 312.90625 30.476562 313.441406 C 30.839844 313.976562 31.234375 314.496094 31.652344 314.992188 C 32.066406 315.488281 32.507812 315.960938 32.972656 316.417969 C 33.433594 316.871094 33.921875 317.300781 34.425781 317.707031 C 34.933594 318.109375 35.457031 318.492188 36 318.84375 C 36.542969 319.199219 37.101562 319.527344 37.675781 319.824219 C 38.253906 320.125 38.839844 320.394531 39.441406 320.636719 C 40.046875 320.878906 40.65625 321.089844 41.28125 321.273438 C 41.902344 321.453125 42.53125 321.605469 43.171875 321.722656 C 43.808594 321.84375 44.449219 321.933594 45.09375 321.988281 C 45.742188 322.046875 46.390625 322.070312 47.039062 322.0625 L 278.308594 322.0625 C 278.957031 322.070312 279.605469 322.046875 280.253906 321.992188 C 280.898438 321.9375 281.542969 321.851562 282.183594 321.730469 C 282.820312 321.613281 283.453125 321.460938 284.078125 321.28125 C 284.703125 321.101562 285.316406 320.890625 285.917969 320.648438 C 286.523438 320.410156 287.113281 320.136719 287.691406 319.839844 C 288.265625 319.539062 288.828125 319.214844 289.371094 318.859375 C 289.917969 318.507812 290.445312 318.125 290.953125 317.722656 C 291.460938 317.316406 291.945312 316.886719 292.410156 316.433594 C 292.878906 315.980469 293.320312 315.503906 293.738281 315.007812 C 294.15625 314.511719 294.550781 313.992188 294.917969 313.457031 C 295.289062 312.921875 295.628906 312.371094 295.941406 311.800781 C 296.257812 311.234375 296.542969 310.648438 296.796875 310.050781 C 297.054688 309.457031 297.28125 308.847656 297.480469 308.226562 C 297.675781 307.609375 297.84375 306.980469 297.980469 306.347656 C 298.113281 305.710938 298.21875 305.070312 298.292969 304.421875 C 298.363281 303.777344 298.40625 303.128906 298.414062 302.480469 L 298.414062 70.234375 C 298.40625 69.585938 298.363281 68.9375 298.289062 68.292969 C 298.21875 67.648438 298.113281 67.007812 297.976562 66.371094 C 297.839844 65.734375 297.675781 65.109375 297.476562 64.488281 C 297.28125 63.871094 297.054688 63.261719 296.796875 62.667969 C 296.539062 62.070312 296.253906 61.488281 295.941406 60.917969 C 295.625 60.351562 295.285156 59.796875 294.917969 59.261719 C 294.546875 58.730469 294.15625 58.214844 293.734375 57.714844 C 293.316406 57.21875 292.875 56.746094 292.410156 56.292969 C 291.941406 55.839844 291.457031 55.410156 290.949219 55.003906 C 290.441406 54.601562 289.914062 54.222656 289.371094 53.867188 C 288.824219 53.515625 288.265625 53.1875 287.6875 52.890625 C 287.109375 52.589844 286.519531 52.320312 285.917969 52.082031 C 285.3125 51.839844 284.699219 51.628906 284.074219 51.449219 C 283.453125 51.269531 282.820312 51.121094 282.179688 51.003906 C 281.542969 50.882812 280.898438 50.796875 280.253906 50.742188 C 279.605469 50.6875 278.957031 50.664062 278.308594 50.671875 " fill-opacity="1" fill-rule="nonzero"/></g><path fill="#ffffff" d="M 329.296875 286.972656 C 328.894531 286.976562 328.492188 286.992188 328.09375 287.023438 C 327.691406 287.054688 327.289062 287.097656 326.890625 287.152344 C 326.492188 287.210938 326.097656 287.277344 325.703125 287.359375 C 325.308594 287.441406 324.917969 287.539062 324.527344 287.644531 C 324.140625 287.753906 323.757812 287.875 323.375 288.007812 C 322.996094 288.140625 322.621094 288.285156 322.25 288.441406 C 321.878906 288.597656 321.515625 288.765625 321.15625 288.949219 C 320.796875 289.128906 320.441406 289.320312 320.09375 289.527344 C 319.746094 289.730469 319.40625 289.945312 319.074219 290.171875 C 318.742188 290.398438 318.417969 290.636719 318.097656 290.882812 C 317.78125 291.128906 317.472656 291.386719 317.171875 291.65625 C 316.871094 291.921875 316.578125 292.199219 316.296875 292.488281 C 316.011719 292.773438 315.742188 293.070312 315.476562 293.375 C 315.214844 293.679688 314.960938 293.992188 314.71875 294.3125 C 314.472656 294.632812 314.242188 294.960938 314.019531 295.296875 C 313.800781 295.636719 313.589844 295.976562 313.390625 296.328125 C 313.191406 296.679688 313.003906 297.035156 312.828125 297.398438 C 312.652344 297.757812 312.488281 298.125 312.335938 298.5 C 312.183594 298.871094 312.046875 299.25 311.917969 299.632812 C 311.789062 300.015625 311.675781 300.398438 311.574219 300.789062 C 311.472656 301.179688 311.382812 301.570312 311.304688 301.964844 C 311.230469 302.363281 311.167969 302.757812 311.117188 303.160156 C 311.066406 303.558594 311.027344 303.957031 311.003906 304.359375 C 310.980469 304.761719 310.96875 305.164062 310.96875 305.566406 C 310.972656 305.96875 310.988281 306.371094 311.015625 306.773438 C 311.042969 307.175781 311.085938 307.574219 311.140625 307.976562 C 311.195312 308.375 311.261719 308.769531 311.339844 309.164062 C 311.421875 309.558594 311.515625 309.953125 311.621094 310.339844 C 311.726562 310.726562 311.84375 311.113281 311.976562 311.492188 C 312.105469 311.875 312.25 312.25 312.402344 312.621094 C 312.558594 312.992188 312.726562 313.359375 312.90625 313.71875 C 313.085938 314.082031 313.277344 314.433594 313.476562 314.78125 C 313.679688 315.132812 313.894531 315.472656 314.117188 315.804688 C 314.34375 316.140625 314.578125 316.46875 314.824219 316.785156 C 315.070312 317.105469 315.328125 317.414062 315.59375 317.71875 C 315.859375 318.019531 316.136719 318.3125 316.421875 318.597656 C 316.707031 318.878906 317 319.15625 317.304688 319.417969 C 317.609375 319.683594 317.917969 319.9375 318.238281 320.183594 C 318.558594 320.429688 318.886719 320.660156 319.222656 320.882812 C 319.558594 321.109375 319.898438 321.320312 320.246094 321.519531 C 320.597656 321.722656 320.953125 321.910156 321.3125 322.089844 C 321.675781 322.265625 322.042969 322.429688 322.414062 322.585938 C 322.785156 322.738281 323.164062 322.878906 323.546875 323.007812 C 323.925781 323.136719 324.3125 323.253906 324.699219 323.359375 C 325.089844 323.460938 325.480469 323.554688 325.878906 323.632812 C 326.273438 323.710938 326.667969 323.773438 327.066406 323.828125 C 327.46875 323.878906 327.867188 323.917969 328.269531 323.945312 C 328.671875 323.972656 329.074219 323.984375 329.476562 323.984375 C 329.878906 323.984375 330.28125 323.972656 330.683594 323.945312 C 331.085938 323.917969 331.484375 323.878906 331.882812 323.828125 C 332.285156 323.777344 332.679688 323.710938 333.074219 323.632812 C 333.472656 323.554688 333.863281 323.460938 334.25 323.359375 C 334.640625 323.253906 335.027344 323.136719 335.40625 323.007812 C 335.789062 322.878906 336.167969 322.738281 336.539062 322.585938 C 336.910156 322.433594 337.277344 322.265625 337.640625 322.089844 C 338 321.910156 338.355469 321.722656 338.703125 321.519531 C 339.050781 321.320312 339.394531 321.109375 339.730469 320.886719 C 340.066406 320.660156 340.394531 320.429688 340.710938 320.183594 C 341.03125 319.9375 341.34375 319.683594 341.648438 319.417969 C 341.949219 319.15625 342.246094 318.878906 342.53125 318.597656 C 342.816406 318.3125 343.089844 318.019531 343.359375 317.71875 C 343.625 317.414062 343.878906 317.105469 344.125 316.785156 C 344.371094 316.46875 344.609375 316.140625 344.832031 315.808594 C 345.058594 315.472656 345.269531 315.132812 345.472656 314.785156 C 345.675781 314.433594 345.867188 314.082031 346.046875 313.722656 C 346.226562 313.359375 346.394531 312.996094 346.546875 312.621094 C 346.703125 312.25 346.847656 311.875 346.976562 311.496094 C 347.109375 311.113281 347.226562 310.730469 347.332031 310.339844 C 347.4375 309.953125 347.53125 309.558594 347.613281 309.164062 C 347.691406 308.769531 347.757812 308.375 347.8125 307.976562 C 347.867188 307.578125 347.910156 307.175781 347.9375 306.773438 C 347.964844 306.371094 347.980469 305.972656 347.980469 305.566406 C 347.984375 305.164062 347.972656 304.761719 347.949219 304.359375 C 347.925781 303.960938 347.886719 303.558594 347.835938 303.160156 C 347.785156 302.757812 347.722656 302.363281 347.648438 301.964844 C 347.570312 301.570312 347.480469 301.179688 347.378906 300.789062 C 347.277344 300.398438 347.164062 300.015625 347.035156 299.632812 C 346.90625 299.25 346.769531 298.871094 346.617188 298.5 C 346.464844 298.125 346.300781 297.757812 346.125 297.398438 C 345.949219 297.035156 345.761719 296.679688 345.5625 296.328125 C 345.363281 295.980469 345.152344 295.636719 344.929688 295.300781 C 344.710938 294.964844 344.476562 294.632812 344.234375 294.3125 C 343.992188 293.992188 343.738281 293.679688 343.476562 293.375 C 343.210938 293.070312 342.9375 292.773438 342.65625 292.488281 C 342.375 292.199219 342.082031 291.921875 341.78125 291.65625 C 341.480469 291.386719 341.171875 291.128906 340.855469 290.882812 C 340.535156 290.636719 340.210938 290.398438 339.878906 290.171875 C 339.546875 289.945312 339.203125 289.730469 338.855469 289.527344 C 338.511719 289.320312 338.15625 289.128906 337.796875 288.949219 C 337.4375 288.765625 337.074219 288.597656 336.703125 288.441406 C 336.332031 288.285156 335.957031 288.140625 335.574219 288.007812 C 335.195312 287.875 334.8125 287.753906 334.421875 287.644531 C 334.035156 287.539062 333.644531 287.441406 333.25 287.359375 C 332.855469 287.277344 332.460938 287.210938 332.0625 287.152344 C 331.664062 287.097656 331.261719 287.054688 330.859375 287.023438 C 330.460938 286.992188 330.058594 286.976562 329.652344 286.972656 L 329.296875 286.972656 M 329.296875 321.867188 C 328.765625 321.875 328.234375 321.859375 327.707031 321.816406 C 327.175781 321.769531 326.648438 321.703125 326.128906 321.605469 C 325.605469 321.511719 325.085938 321.390625 324.574219 321.246094 C 324.066406 321.101562 323.5625 320.929688 323.070312 320.734375 C 322.574219 320.539062 322.089844 320.320312 321.617188 320.078125 C 321.144531 319.835938 320.683594 319.570312 320.238281 319.28125 C 319.792969 318.992188 319.359375 318.683594 318.941406 318.355469 C 318.527344 318.023438 318.128906 317.675781 317.746094 317.304688 C 317.363281 316.933594 317 316.546875 316.65625 316.144531 C 316.3125 315.738281 315.988281 315.316406 315.6875 314.878906 C 315.382812 314.441406 315.101562 313.992188 314.84375 313.527344 C 314.585938 313.0625 314.351562 312.585938 314.140625 312.097656 C 313.929688 311.613281 313.742188 311.113281 313.578125 310.609375 C 313.417969 310.101562 313.277344 309.589844 313.167969 309.070312 C 313.054688 308.550781 312.96875 308.027344 312.90625 307.5 C 312.847656 306.972656 312.8125 306.441406 312.804688 305.910156 C 312.792969 305.378906 312.8125 304.847656 312.855469 304.320312 C 312.898438 303.789062 312.964844 303.261719 313.0625 302.738281 C 313.15625 302.21875 313.277344 301.699219 313.421875 301.1875 C 313.570312 300.679688 313.738281 300.175781 313.933594 299.679688 C 314.128906 299.1875 314.347656 298.703125 314.589844 298.230469 C 314.835938 297.757812 315.097656 297.296875 315.386719 296.851562 C 315.675781 296.402344 315.984375 295.972656 316.3125 295.554688 C 316.644531 295.140625 316.996094 294.742188 317.363281 294.359375 C 317.734375 293.976562 318.121094 293.613281 318.527344 293.269531 C 318.929688 292.925781 319.351562 292.601562 319.789062 292.300781 C 320.226562 291.996094 320.675781 291.714844 321.140625 291.457031 C 321.605469 291.199219 322.082031 290.964844 322.570312 290.753906 C 323.058594 290.542969 323.554688 290.355469 324.058594 290.191406 C 324.566406 290.03125 325.078125 289.890625 325.597656 289.78125 C 326.117188 289.667969 326.640625 289.582031 327.167969 289.519531 C 327.695312 289.457031 328.226562 289.425781 328.757812 289.414062 C 329.289062 289.40625 329.820312 289.421875 330.347656 289.46875 C 330.878906 289.511719 331.40625 289.578125 331.929688 289.675781 C 332.453125 289.769531 332.96875 289.890625 333.480469 290.035156 C 333.992188 290.179688 334.492188 290.351562 334.988281 290.546875 C 335.480469 290.742188 335.964844 290.960938 336.4375 291.203125 C 336.910156 291.445312 337.371094 291.710938 337.816406 292 C 338.261719 292.289062 338.695312 292.597656 339.113281 292.925781 C 339.527344 293.257812 339.929688 293.605469 340.308594 293.976562 C 340.691406 294.347656 341.054688 294.734375 341.398438 295.136719 C 341.742188 295.542969 342.066406 295.964844 342.367188 296.402344 C 342.671875 296.839844 342.953125 297.289062 343.210938 297.753906 C 343.46875 298.21875 343.703125 298.695312 343.914062 299.179688 C 344.125 299.667969 344.3125 300.164062 344.476562 300.671875 C 344.640625 301.179688 344.777344 301.691406 344.886719 302.210938 C 345 302.730469 345.085938 303.253906 345.148438 303.78125 C 345.210938 304.308594 345.246094 304.839844 345.253906 305.371094 C 345.253906 305.460938 345.253906 305.550781 345.253906 305.644531 C 345.265625 306.164062 345.25 306.683594 345.210938 307.199219 C 345.171875 307.71875 345.105469 308.234375 345.015625 308.746094 C 344.925781 309.257812 344.808594 309.765625 344.667969 310.265625 C 344.527344 310.765625 344.363281 311.257812 344.175781 311.742188 C 343.988281 312.226562 343.773438 312.703125 343.539062 313.164062 C 343.304688 313.628906 343.046875 314.082031 342.769531 314.519531 C 342.488281 314.957031 342.1875 315.382812 341.867188 315.789062 C 341.546875 316.199219 341.203125 316.589844 340.84375 316.964844 C 340.484375 317.34375 340.109375 317.699219 339.714844 318.039062 C 339.320312 318.375 338.90625 318.695312 338.480469 318.992188 C 338.054688 319.289062 337.617188 319.566406 337.164062 319.820312 C 336.710938 320.078125 336.246094 320.308594 335.769531 320.519531 C 335.292969 320.726562 334.808594 320.914062 334.316406 321.074219 C 333.820312 321.238281 333.320312 321.375 332.8125 321.484375 C 332.304688 321.597656 331.792969 321.6875 331.273438 321.746094 C 330.757812 321.808594 330.242188 321.847656 329.722656 321.859375 L 329.300781 321.859375 " fill-opacity="1" fill-rule="nonzero"/></svg>