<?xml version="1.0" standalone="no"?><!DOCTYPE svg PUBLIC "-//W3C//DTD SVG 1.1//EN" "http://www.w3.org/Graphics/SVG/1.1/DTD/svg11.dtd"><svg width="100%" height="100%" viewBox="0 0 195 59" version="1.1" xmlns="http://www.w3.org/2000/svg" xmlns:xlink="http://www.w3.org/1999/xlink" xml:space="preserve" style="fill-rule:evenodd;clip-rule:evenodd;stroke-linejoin:round;stroke-miterlimit:1.41421;"><path d="M8.317,57.317l0,-18.173l13.424,0l0,-6.629l-13.424,0l0,-9.829l17.936,0l0,-6.629l-25.622,0l0,41.26l7.686,0Z" style="fill:#000;fill-rule:nonzero;"/><rect x="28.759" y="16.057" width="6.907" height="41.26" style="fill:#000;fill-rule:nonzero;"/><path d="M56.777,42.459c0,6.629 -1.838,9.715 -5.682,9.715c-3.843,0 -5.681,-3.086 -5.681,-9.715c0,-6.629 1.838,-9.715 5.681,-9.715c3.844,0 5.682,3.086 5.682,9.715ZM38.507,42.459c0,9.429 4.734,15.429 12.588,15.429c7.854,0 12.588,-6 12.588,-15.429c0,-9.429 -4.734,-15.43 -12.588,-15.43c-7.854,0 -12.588,6.001 -12.588,15.43Z" style="fill:#000;fill-rule:nonzero;"/><path d="M82.733,27.601l0,21.43c-1.17,1.371 -3.453,3.143 -6.461,3.143c-2.34,0 -3.565,-1.257 -3.565,-5.258l0,-19.315l-6.907,0l0,20.344c0,6.057 2.785,9.943 8.578,9.943c3.398,0 6.35,-1.943 8.912,-3.771l0,3.2l6.35,0l0,-29.716l-6.907,0Z" style="fill:#000;fill-rule:nonzero;"/><path d="M100.446,57.317l0,-18.058c0,-0.743 3.008,-4.801 6.461,-4.801c0.501,0 0.891,0 1.225,0.057l0,-7.486c-4.121,0.115 -6.461,2.115 -8.132,5.658l-0.111,0l0,-5.086l-6.35,0l0,29.716l6.907,0Z" style="fill:#000;fill-rule:nonzero;"/><path d="M117.379,27.601l-6.907,0l0,29.716l6.907,0l0,-29.716ZM117.379,22.115l0,-6.629l-6.907,0l0,6.629l6.907,0Z" style="fill:#000;fill-rule:nonzero;"/><path d="M140.884,31.544c-2.506,-3.029 -6.35,-4.515 -10.193,-4.515c-5.013,0 -9.58,3.086 -9.58,8.629c0,10.344 14.482,8.515 14.482,13.601c0,2 -1.671,3.372 -4.122,3.372c-2.952,0 -5.125,-2 -6.74,-4.286l-4.623,3.543c2.562,3.886 6.35,6 10.973,6c6.071,0 10.639,-2.743 10.639,-8.914c0,-10.858 -14.482,-8.687 -14.482,-13.773c0,-1.771 1.225,-2.914 3.899,-2.914c2.172,0 4.01,1.6 5.403,3.143l4.344,-3.886Z" style="fill:#000;fill-rule:nonzero;"/><path d="M151.3,57.317l0,-21.43c1.17,-1.372 3.454,-3.143 6.462,-3.143c2.339,0 3.564,1.257 3.564,5.257l0,19.316l6.907,0l0,-20.344c0,-6.058 -2.785,-9.944 -8.578,-9.944c-3.397,0 -6.238,1.943 -8.355,3.772l0,-14.744l-6.907,0l0,41.26l6.907,0Z" style="fill:#000;fill-rule:nonzero;"/><path d="M186.632,13.696l6.617,1.961l-0.22,1.21l-6.911,-0.751l5.372,4.381l-0.642,0.971l-6.05,-3.3l3.226,6.086l-0.934,0.642l-4.363,-5.334l0.715,6.838l-1.156,0.219l-2.034,-6.599l-1.943,6.599l-1.21,-0.219l0.715,-6.838l-4.308,5.334l-0.99,-0.642l3.263,-6.086l-6.068,3.3l-0.641,-0.971l5.408,-4.381l-6.912,0.751l-0.22,-1.21l6.527,-1.961l-6.527,-1.944l0.22,-1.209l6.912,0.752l-5.408,-4.382l0.641,-0.972l6.068,3.3l-3.263,-6.086l0.99,-0.641l4.308,5.334l-0.715,-6.838l1.21,-0.22l1.943,6.6l2.034,-6.6l1.156,0.22l-0.715,6.838l4.363,-5.334l0.934,0.641l-3.226,6.086l6.05,-3.3l0.642,0.972l-5.372,4.382l6.911,-0.752l0.22,1.209l-6.617,1.944Z" style="fill:#c11f1f;fill-rule:nonzero;"/></svg>