<?xml version="1.0" encoding="UTF-8"?>
<svg id="Layer_1" data-name="Layer 1" xmlns="http://www.w3.org/2000/svg" width="106px" height="11px" viewBox="0 0 106.4 10.75">
  <defs>
    <style>
      .cls-1 {
        fill: #010101;
      }

      .cls-1, .cls-2 {
        stroke-width: 0px;
      }

      .cls-2 {
        fill: #231f20;
      }
    </style>
  </defs>
  <g>
    <path class="cls-2" d="M2.78,9.66h-1.15V1.7h1.72l2.22,6.3h.11L7.88,1.7h1.68v7.96h-1.19V3.78l-.14-.02-2.1,5.9h-1.12L2.91,3.75l-.14.02v5.88Z"/>
    <path class="cls-2" d="M11.43,9.3c-.33-.31-.5-.76-.5-1.34,0-.36.07-.66.22-.9.15-.24.38-.44.7-.6.32-.15.73-.27,1.23-.36.4-.07.7-.14.9-.22.21-.08.35-.17.42-.27.07-.1.11-.23.11-.38,0-.23-.08-.41-.24-.53-.16-.12-.42-.19-.79-.19-.69,0-1.27.28-1.75.85h-.11l-.53-.78c.28-.33.63-.59,1.04-.78.42-.19.88-.28,1.39-.28.75,0,1.3.16,1.65.48.35.32.52.78.52,1.36v2.9c0,.3.13.45.39.45.09,0,.18-.02.27-.05l.08.02.1.83c-.07.05-.17.09-.3.12s-.27.04-.41.04c-.34,0-.61-.07-.79-.21-.18-.14-.31-.36-.38-.65h-.11c-.16.3-.38.54-.66.7-.28.16-.63.23-1.05.23-.59,0-1.05-.16-1.38-.47ZM13.89,8.66c.21-.13.37-.31.48-.55.11-.24.17-.52.17-.84v-.69l-.1-.02c-.11.08-.25.15-.42.21-.17.06-.41.11-.72.16-.42.06-.72.17-.9.33-.18.16-.26.38-.26.67,0,.3.09.54.27.69.18.16.43.24.75.24.28,0,.52-.06.74-.19Z"/>
    <path class="cls-2" d="M18.17,9.43c-.37-.23-.66-.58-.86-1.04s-.31-1.04-.31-1.73.11-1.26.32-1.73c.22-.47.51-.81.89-1.05.38-.23.82-.35,1.32-.35.39,0,.73.07,1.03.21.3.14.55.36.76.67l.11-.03V1.24h1.2v8.42h-1.2v-.83l-.11-.02c-.19.29-.43.52-.75.7-.31.18-.69.26-1.13.26-.48,0-.9-.12-1.27-.35ZM21,8.22c.29-.34.44-.86.44-1.56s-.14-1.23-.44-1.57c-.29-.34-.68-.51-1.18-.51-1.06,0-1.58.7-1.58,2.09s.53,2.07,1.58,2.07c.49,0,.89-.17,1.18-.51Z"/>
    <path class="cls-2" d="M29.14,6.92h-4c.07,1.21.63,1.81,1.68,1.81.39,0,.7-.07.94-.21.24-.14.43-.36.56-.65h.11l.79.49c-.19.43-.47.77-.86,1.03-.39.26-.91.38-1.54.38-.6,0-1.12-.12-1.55-.35-.44-.23-.77-.58-1.01-1.05-.24-.46-.35-1.04-.35-1.72s.12-1.26.37-1.73c.25-.47.58-.82,1.01-1.05s.91-.35,1.45-.35c.81,0,1.44.22,1.88.66.44.44.66,1.09.67,1.96,0,.32,0,.56-.03.7l-.11.07ZM28.12,6.07c-.01-.55-.14-.95-.37-1.2s-.57-.38-1.01-.38-.8.12-1.06.38-.43.65-.5,1.2h2.95Z"/>
    <path class="cls-2" d="M35.01,9.66h-1.35l-1.45-6.01h1.14l1.01,4.51h.12l1.27-4.51h1.12l1.31,4.51h.11l.99-4.51h1.11l-1.43,6.01h-1.36l-1.26-4.38h-.11l-1.21,4.38Z"/>
    <path class="cls-2" d="M41.39,2.5c-.15-.14-.22-.32-.22-.54s.07-.4.22-.54c.14-.14.33-.21.56-.21s.42.07.56.21c.15.14.22.32.22.54s-.07.4-.22.54-.33.21-.57.21-.42-.07-.56-.21ZM41.35,9.66V3.65h1.2v6.01h-1.2Z"/>
    <path class="cls-2" d="M47.33,8.46l.34.88c-.15.14-.35.24-.59.32-.24.07-.5.11-.79.11-.6,0-1.06-.16-1.38-.48-.32-.32-.47-.8-.47-1.43v-3.25h-.98v-.96h.98v-1.22l1.2-.2v1.42h1.82v.96h-1.82v3.15c0,.33.07.58.21.72.14.15.34.22.6.22.29,0,.55-.08.77-.25h.11Z"/>
    <path class="cls-2" d="M48.53,9.66V1.24h1.2v3.23l.11.02c.42-.64,1.03-.95,1.82-.95.7,0,1.21.19,1.54.57.33.38.49.94.49,1.69v3.87h-1.2v-3.76c0-.48-.09-.82-.28-1.02-.19-.21-.48-.31-.89-.31-.48,0-.87.16-1.16.47-.29.32-.43.82-.43,1.52v3.1h-1.2Z"/>
  </g>
  <g>
    <polygon class="cls-1" points="64.96 4.99 62.26 4.73 63.99 2.65 63.43 2.08 61.34 3.82 61.09 1.11 60.29 1.11 60.04 3.82 57.95 2.08 57.39 2.65 59.12 4.73 56.41 4.99 56.41 5.78 59.12 6.04 57.39 8.12 57.95 8.68 60.04 6.95 60.29 9.66 61.09 9.66 61.34 6.95 63.43 8.68 63.99 8.12 62.26 6.04 64.96 5.78 64.96 4.99"/>
    <path class="cls-1" d="M66.2,9.65V1.12h5.64v1.39h-4.08v7.14h-1.56,0ZM67.44,6.25v-1.39h4.09v1.39h-4.09,0Z"/>
    <path class="cls-1" d="M72.39,9.65V1.12h1.44v8.53h-1.44Z"/>
    <path class="cls-1" d="M77.46,9.77c-.63,0-1.17-.13-1.63-.39-.46-.26-.82-.64-1.08-1.14s-.38-1.1-.38-1.8.13-1.31.38-1.81c.26-.5.62-.87,1.08-1.14.46-.26,1.01-.4,1.63-.4s1.16.14,1.62.4.82.65,1.08,1.14c.26.5.38,1.1.38,1.81s-.13,1.3-.38,1.8c-.26.5-.62.88-1.08,1.14s-1,.39-1.62.39h0ZM77.46,8.48c.31,0,.59-.08.84-.22.25-.15.45-.38.59-.69.14-.31.21-.68.21-1.12s-.07-.83-.21-1.14-.34-.54-.59-.69-.53-.22-.84-.22-.6.08-.85.22-.45.38-.59.69c-.14.31-.21.69-.21,1.14s.07.81.21,1.12.34.54.59.69.53.22.85.22Z"/>
    <path class="cls-1" d="M83.46,9.77c-.45,0-.86-.11-1.23-.32s-.65-.51-.85-.9-.31-.85-.31-1.38v-3.95h1.44v3.79c0,.31.05.57.16.79s.26.39.45.5.42.17.69.17.51-.06.72-.19c.21-.13.38-.3.49-.53.12-.23.17-.48.17-.74v-3.79h1.43v6.42h-1.21l-.16-.77h-.06c-.21.29-.47.51-.77.67s-.63.22-.98.22h.01Z"/>
    <path class="cls-1" d="M87.47,9.65V3.23h1.22l.16.78h.06c.17-.28.39-.48.66-.6.27-.13.58-.18.93-.18h.75v1.38h-.67c-.34,0-.64.07-.88.2-.25.14-.44.32-.58.55s-.2.51-.2.83v3.46h-1.44,0Z"/>
    <path class="cls-1" d="M91.76,9.65V3.23h1.44v6.42h-1.44ZM91.75,2.44v-1.33h1.44v1.32h-1.44Z"/>
    <path class="cls-1" d="M96.46,9.77c-.5,0-.94-.08-1.32-.24-.38-.16-.69-.39-.93-.69s-.4-.67-.48-1.08h1.53c.05.23.18.41.4.55.21.14.48.2.79.2s.74-.06.95-.19c.2-.13.3-.3.3-.51s-.06-.28-.17-.37-.26-.17-.44-.22c-.18-.06-.42-.12-.73-.18-.5-.11-.9-.22-1.22-.34s-.59-.32-.83-.59-.35-.65-.35-1.12.1-.67.3-.95c.2-.29.49-.51.86-.68s.82-.26,1.34-.26.9.07,1.27.22c.37.15.67.36.9.64.23.28.39.62.46,1.01h-1.53c-.05-.17-.16-.33-.34-.44-.18-.12-.43-.17-.75-.17s-.59.06-.76.17c-.17.12-.26.27-.26.46s.06.29.17.39c.12.1.27.17.44.24s.42.13.74.19c.5.11.9.22,1.21.34.32.12.59.31.82.58s.35.64.35,1.1-.11.74-.33,1.03-.52.52-.93.68c-.41.16-.89.24-1.47.24h0Z"/>
    <path class="cls-1" d="M99.72,9.65V1.12h1.44v2.83h.06c.22-.29.47-.5.73-.64.27-.14.59-.2.95-.2s.87.11,1.23.32.64.51.84.9c.2.39.31.85.31,1.39v3.94h-1.43v-3.78c0-.31-.05-.57-.16-.79s-.26-.39-.45-.51c-.19-.12-.42-.17-.69-.17s-.51.07-.72.19c-.21.13-.38.31-.49.53-.12.22-.17.47-.17.75v3.78h-1.45Z"/>
  </g>
</svg>
