<?xml version="1.0" encoding="UTF-8"?>
<svg width="120px" height="16px" viewBox="0 0 120 16" version="1.1" xmlns="http://www.w3.org/2000/svg" xmlns:xlink="http://www.w3.org/1999/xlink">
	<g stroke="none" stroke-width="1" fill="none" fill-rule="evenodd">
		<path d="M16.588,7.864 C16.588,5.332 18.112,3.784 20.224,3.784 C21.292,3.784 22.012,4.276 22.48,4.756 L21.904,5.392 C21.508,4.972 21.016,4.66 20.236,4.66 C18.64,4.66 17.62,5.884 17.62,7.84 C17.62,9.82 18.556,11.068 20.236,11.068 C20.8,11.068 21.352,10.888 21.664,10.6 L21.664,8.548 L19.996,8.548 L19.996,7.72 L22.576,7.72 L22.576,11.032 C22.06,11.536 21.184,11.944 20.128,11.944 C18.064,11.944 16.588,10.432 16.588,7.864 Z M23.496,8.896 C23.496,6.988 24.78,5.824 26.112,5.824 C27.6,5.824 28.44,6.892 28.44,8.56 C28.44,8.764 28.428,8.956 28.404,9.1 L24.468,9.1 C24.54,10.36 25.296,11.152 26.412,11.152 C26.964,11.152 27.432,10.972 27.864,10.696 L28.212,11.344 C27.708,11.668 27.084,11.944 26.292,11.944 C24.732,11.944 23.496,10.804 23.496,8.896 Z M24.456,8.452 L27.576,8.452 C27.576,7.264 27.048,6.604 26.136,6.604 C25.32,6.604 24.576,7.276 24.456,8.452 Z M29.48,11.8 L29.48,5.968 L30.296,5.968 L30.38,6.808 L30.416,6.808 C30.92,6.256 31.532,5.824 32.228,5.824 C33.116,5.824 33.596,6.244 33.836,6.94 C34.448,6.28 35.048,5.824 35.756,5.824 C36.956,5.824 37.532,6.616 37.532,8.104 L37.532,11.8 L36.548,11.8 L36.548,8.236 C36.548,7.144 36.2,6.676 35.468,6.676 C35.012,6.676 34.544,6.976 34.004,7.576 L34.004,11.8 L33.02,11.8 L33.02,8.236 C33.02,7.144 32.672,6.676 31.928,6.676 C31.496,6.676 31.004,6.976 30.464,7.576 L30.464,11.8 L29.48,11.8 Z M38.74,10.288 C38.74,9.016 39.844,8.38 42.328,8.104 C42.328,7.36 42.076,6.64 41.128,6.64 C40.444,6.64 39.844,6.952 39.388,7.264 L38.992,6.58 C39.532,6.232 40.348,5.824 41.284,5.824 C42.712,5.824 43.312,6.772 43.312,8.224 L43.312,11.8 L42.496,11.8 L42.412,11.104 L42.388,11.104 C41.824,11.56 41.176,11.944 40.456,11.944 C39.472,11.944 38.74,11.332 38.74,10.288 Z M39.712,10.216 C39.712,10.876 40.156,11.152 40.732,11.152 C41.296,11.152 41.764,10.876 42.328,10.372 L42.328,8.752 C40.372,8.992 39.712,9.472 39.712,10.216 Z M44.484,10.288 C44.484,9.016 45.588,8.38 48.072,8.104 C48.072,7.36 47.82,6.64 46.872,6.64 C46.188,6.64 45.588,6.952 45.132,7.264 L44.736,6.58 C45.276,6.232 46.092,5.824 47.028,5.824 C48.456,5.824 49.056,6.772 49.056,8.224 L49.056,11.8 L48.24,11.8 L48.156,11.104 L48.132,11.104 C47.568,11.56 46.92,11.944 46.2,11.944 C45.216,11.944 44.484,11.332 44.484,10.288 Z M45.456,10.216 C45.456,10.876 45.9,11.152 46.476,11.152 C47.04,11.152 47.508,10.876 48.072,10.372 L48.072,8.752 C46.116,8.992 45.456,9.472 45.456,10.216 Z M50.516,11.8 L50.516,3.256 L51.488,3.256 L51.488,9.04 L51.524,9.04 L54.008,5.968 L55.1,5.968 L53.144,8.308 L55.364,11.8 L54.284,11.8 L52.58,8.992 L51.488,10.264 L51.488,11.8 L50.516,11.8 Z M56.056,10 L56.056,6.772 L55.192,6.772 L55.192,6.028 L56.104,5.968 L56.224,4.336 L57.052,4.336 L57.052,5.968 L58.624,5.968 L58.624,6.772 L57.052,6.772 L57.052,10.012 C57.052,10.732 57.28,11.14 57.952,11.14 C58.156,11.14 58.42,11.056 58.612,10.984 L58.804,11.728 C58.48,11.836 58.084,11.944 57.724,11.944 C56.476,11.944 56.056,11.152 56.056,10 Z M61.568,11.8 L61.568,5.968 L62.384,5.968 L62.468,6.808 L62.504,6.808 C63.008,6.256 63.62,5.824 64.316,5.824 C65.204,5.824 65.684,6.244 65.924,6.94 C66.536,6.28 67.136,5.824 67.844,5.824 C69.044,5.824 69.62,6.616 69.62,8.104 L69.62,11.8 L68.636,11.8 L68.636,8.236 C68.636,7.144 68.288,6.676 67.556,6.676 C67.1,6.676 66.632,6.976 66.092,7.576 L66.092,11.8 L65.108,11.8 L65.108,8.236 C65.108,7.144 64.76,6.676 64.016,6.676 C63.584,6.676 63.092,6.976 62.552,7.576 L62.552,11.8 L61.568,11.8 Z M70.6839999,8.896 C70.6839999,6.988 71.9679999,5.824 73.2999999,5.824 C74.7879999,5.824 75.6279999,6.892 75.6279999,8.56 C75.6279999,8.764 75.6159999,8.956 75.5919999,9.1 L71.6559999,9.1 C71.7279999,10.36 72.4839999,11.152 73.5999999,11.152 C74.1519999,11.152 74.6199999,10.972 75.0519999,10.696 L75.3999999,11.344 C74.8959999,11.668 74.2719999,11.944 73.4799999,11.944 C71.9199999,11.944 70.6839999,10.804 70.6839999,8.896 Z M71.6439999,8.452 L74.7639999,8.452 C74.7639999,7.264 74.2359999,6.604 73.3239999,6.604 C72.5079999,6.604 71.7639999,7.276 71.6439999,8.452 Z M76.6679999,10 L76.6679999,6.772 L75.8039999,6.772 L75.8039999,6.028 L76.7159999,5.968 L76.8359999,4.336 L77.6639999,4.336 L77.6639999,5.968 L79.2359999,5.968 L79.2359999,6.772 L77.6639999,6.772 L77.6639999,10.012 C77.6639999,10.732 77.8919999,11.14 78.5639999,11.14 C78.7679999,11.14 79.0319999,11.056 79.2239999,10.984 L79.4159999,11.728 C79.0919999,11.836 78.6959999,11.944 78.3359999,11.944 C77.0879999,11.944 76.6679999,11.152 76.6679999,10 Z M82.2399999,11.8 L82.2399999,3.928 L86.7879999,3.928 L86.7879999,4.768 L83.2479999,4.768 L83.2479999,7.432 L86.2479999,7.432 L86.2479999,8.272 L83.2479999,8.272 L83.2479999,11.8 L82.2399999,11.8 Z M87.6479999,10.624 L87.6479999,3.256 L88.6319999,3.256 L88.6319999,10.696 C88.6319999,11.008 88.7639999,11.128 88.9079999,11.128 C88.9679999,11.128 89.0159999,11.128 89.1239999,11.104 L89.2559999,11.848 C89.1239999,11.908 88.9559999,11.944 88.6919999,11.944 C87.9479999,11.944 87.6479999,11.476 87.6479999,10.624 Z M89.8759999,8.896 C89.8759999,6.94 91.1479999,5.824 92.5759999,5.824 C94.0039999,5.824 95.2759999,6.94 95.2759999,8.896 C95.2759999,10.828 94.0039999,11.944 92.5759999,11.944 C91.1479999,11.944 89.8759999,10.828 89.8759999,8.896 Z M90.8959999,8.896 C90.8959999,10.228 91.5799999,11.128 92.5759999,11.128 C93.5839999,11.128 94.2559999,10.228 94.2559999,8.896 C94.2559999,7.552 93.5839999,6.64 92.5759999,6.64 C91.5799999,6.64 90.8959999,7.552 90.8959999,8.896 Z M96.3279999,9.664 L96.3279999,5.968 L97.3239999,5.968 L97.3239999,9.532 C97.3239999,10.624 97.6479999,11.092 98.4159999,11.092 C99.0159999,11.092 99.4359999,10.792 99.9879999,10.108 L99.9879999,5.968 L100.972,5.968 L100.972,11.8 L100.156,11.8 L100.072,10.888 L100.036,10.888 C99.4959999,11.524 98.9199999,11.944 98.1159999,11.944 C96.8799999,11.944 96.3279999,11.152 96.3279999,9.664 Z M102.54,11.8 L102.54,5.968 L103.356,5.968 L103.44,7.024 L103.476,7.024 C103.872,6.292 104.472,5.824 105.132,5.824 C105.384,5.824 105.564,5.86 105.756,5.944 L105.564,6.808 C105.372,6.748 105.24,6.712 105,6.712 C104.508,6.712 103.92,7.072 103.524,8.056 L103.524,11.8 L102.54,11.8 Z M106.808,4.768 C106.424,4.768 106.124,4.504 106.124,4.132 C106.124,3.748 106.424,3.496 106.808,3.496 C107.192,3.496 107.492,3.748 107.492,4.132 C107.492,4.504 107.192,4.768 106.808,4.768 Z M106.304,11.8 L106.304,5.968 L107.288,5.968 L107.288,11.8 L106.304,11.8 Z M108.208,11.14 L108.7,10.48 C109.204,10.888 109.72,11.176 110.416,11.176 C111.184,11.176 111.568,10.768 111.568,10.264 C111.568,9.664 110.872,9.4 110.236,9.16 C109.408,8.86 108.496,8.464 108.496,7.48 C108.496,6.544 109.24,5.824 110.5,5.824 C111.232,5.824 111.868,6.124 112.312,6.484 L111.844,7.108 C111.448,6.808 111.028,6.592 110.512,6.592 C109.78,6.592 109.444,6.988 109.444,7.432 C109.444,7.972 110.08,8.188 110.74,8.44 C111.58,8.752 112.516,9.1 112.516,10.204 C112.516,11.152 111.76,11.944 110.38,11.944 C109.552,11.944 108.76,11.596 108.208,11.14 Z M113.484,11.8 L113.484,3.256 L114.468,3.256 L114.468,5.584 L114.432,6.784 C114.984,6.256 115.572,5.824 116.376,5.824 C117.6,5.824 118.152,6.616 118.152,8.104 L118.152,11.8 L117.168,11.8 L117.168,8.236 C117.168,7.144 116.832,6.676 116.064,6.676 C115.464,6.676 115.056,6.988 114.468,7.576 L114.468,11.8 L113.484,11.8 Z" fill="#000000"></path>
		<polygon fill="#C11F1F" fill-rule="nonzero" points="10.4236575 7.99539278 14 9.05830655 13.8810949 9.7141585 10.1458518 9.30709667 13.0492993 11.6817144 12.7023125 12.208022 9.43242096 10.4193349 11.1760028 13.7181076 10.6711964 14.0660885 8.31309115 11.1749197 8.69953287 14.8812962 8.07474038 15 6.97540825 11.4231678 5.92525962 15 5.27128132 14.8812962 5.65772304 11.1749197 3.32934409 14.0660885 2.79427093 13.7181076 4.55785044 10.4193349 1.27823032 12.208022 0.931783963 11.6817144 3.85468865 9.30709667 0.118905146 9.7141585 0 9.05830655 3.52769949 7.99539278 0 6.94169345 0.118905146 6.28638352 3.85468865 6.69398738 0.931783963 4.31882767 1.27823032 3.79197801 4.55785044 5.58066514 2.79427093 2.28189245 3.32934409 1.93445352 5.65772304 4.82562236 5.27128132 1.11924581 5.92525962 1 6.97540825 4.57737427 8.07474038 1 8.69953287 1.11924581 8.31309115 4.82562236 10.6711964 1.93445352 11.1760028 2.28189245 9.43242096 5.58066514 12.7023125 3.79197801 13.0492993 4.31882767 10.1458518 6.69398738 13.8810949 6.28638352 14 6.94169345"></polygon>
	</g>
</svg>