<?xml version="1.0" encoding="UTF-8"?>
<svg width="120px" height="16px" viewBox="0 0 120 16" version="1.1" xmlns="http://www.w3.org/2000/svg" xmlns:xlink="http://www.w3.org/1999/xlink">
	<g stroke="none" stroke-width="1" fill="none" fill-rule="evenodd">
		<path d="M32.044,11.8 L32.044,3.928 L33.232,3.928 L34.756,8.152 L35.32,9.76 L35.368,9.76 L35.92,8.152 L37.432,3.928 L38.608,3.928 L38.608,11.8 L37.66,11.8 L37.66,7.468 C37.66,6.772 37.744,5.836 37.792,5.14 L37.744,5.14 L37.12,6.892 L35.608,11.008 L35.032,11.008 L33.52,6.892 L32.896,5.14 L32.848,5.14 C32.896,5.836 32.968,6.772 32.968,7.468 L32.968,11.8 L32.044,11.8 Z M39.96,10.288 C39.96,9.016 41.064,8.38 43.548,8.104 C43.548,7.36 43.296,6.64 42.348,6.64 C41.664,6.64 41.064,6.952 40.608,7.264 L40.212,6.58 C40.752,6.232 41.568,5.824 42.504,5.824 C43.932,5.824 44.532,6.772 44.532,8.224 L44.532,11.8 L43.716,11.8 L43.632,11.104 L43.608,11.104 C43.044,11.56 42.396,11.944 41.676,11.944 C40.692,11.944 39.96,11.332 39.96,10.288 Z M40.932,10.216 C40.932,10.876 41.376,11.152 41.952,11.152 C42.516,11.152 42.984,10.876 43.548,10.372 L43.548,8.752 C41.592,8.992 40.932,9.472 40.932,10.216 Z M45.572,8.896 C45.572,7 46.772,5.824 48.104,5.824 C48.776,5.824 49.22,6.076 49.736,6.496 L49.688,5.5 L49.688,3.256 L50.684,3.256 L50.684,11.8 L49.868,11.8 L49.784,11.116 L49.748,11.116 C49.292,11.56 48.668,11.944 47.984,11.944 C46.52,11.944 45.572,10.84 45.572,8.896 Z M46.592,8.884 C46.592,10.276 47.18,11.116 48.2,11.116 C48.74,11.116 49.208,10.852 49.688,10.312 L49.688,7.264 C49.196,6.82 48.752,6.652 48.272,6.652 C47.336,6.652 46.592,7.552 46.592,8.884 Z M51.82,8.896 C51.82,6.988 53.104,5.824 54.436,5.824 C55.924,5.824 56.764,6.892 56.764,8.56 C56.764,8.764 56.752,8.956 56.728,9.1 L52.792,9.1 C52.864,10.36 53.62,11.152 54.736,11.152 C55.288,11.152 55.756,10.972 56.188,10.696 L56.536,11.344 C56.032,11.668 55.408,11.944 54.616,11.944 C53.056,11.944 51.82,10.804 51.82,8.896 Z M52.78,8.452 L55.9,8.452 C55.9,7.264 55.372,6.604 54.46,6.604 C53.644,6.604 52.9,7.276 52.78,8.452 Z M60.752,11.8 L59.132,5.968 L60.14,5.968 L61.004,9.34 C61.136,9.892 61.244,10.42 61.352,10.96 L61.4,10.96 C61.532,10.42 61.652,9.88 61.796,9.34 L62.696,5.968 L63.656,5.968 L64.568,9.34 C64.712,9.892 64.844,10.42 64.976,10.96 L65.024,10.96 C65.156,10.42 65.264,9.892 65.384,9.34 L66.236,5.968 L67.172,5.968 L65.612,11.8 L64.412,11.8 L63.572,8.668 C63.428,8.116 63.32,7.576 63.176,6.988 L63.128,6.988 C62.996,7.576 62.876,8.128 62.72,8.68 L61.904,11.8 L60.752,11.8 Z M68.548,4.768 C68.164,4.768 67.864,4.504 67.864,4.132 C67.864,3.748 68.164,3.496 68.548,3.496 C68.932,3.496 69.232,3.748 69.232,4.132 C69.232,4.504 68.932,4.768 68.548,4.768 Z M68.044,11.8 L68.044,5.968 L69.028,5.968 L69.028,11.8 L68.044,11.8 Z M70.764,10 L70.764,6.772 L69.9,6.772 L69.9,6.028 L70.812,5.968 L70.932,4.336 L71.76,4.336 L71.76,5.968 L73.332,5.968 L73.332,6.772 L71.76,6.772 L71.76,10.012 C71.76,10.732 71.988,11.14 72.66,11.14 C72.864,11.14 73.128,11.056 73.32,10.984 L73.512,11.728 C73.188,11.836 72.792,11.944 72.432,11.944 C71.184,11.944 70.764,11.152 70.764,10 Z M74.252,11.8 L74.252,3.256 L75.236,3.256 L75.236,5.584 L75.2,6.784 C75.752,6.256 76.34,5.824 77.144,5.824 C78.368,5.824 78.92,6.616 78.92,8.104 L78.92,11.8 L77.936,11.8 L77.936,8.236 C77.936,7.144 77.6,6.676 76.832,6.676 C76.232,6.676 75.824,6.988 75.236,7.576 L75.236,11.8 L74.252,11.8 Z M82.4639999,11.8 L82.4639999,3.928 L87.0119999,3.928 L87.0119999,4.768 L83.4719999,4.768 L83.4719999,7.432 L86.4719999,7.432 L86.4719999,8.272 L83.4719999,8.272 L83.4719999,11.8 L82.4639999,11.8 Z M87.8719999,10.624 L87.8719999,3.256 L88.8559999,3.256 L88.8559999,10.696 C88.8559999,11.008 88.9879999,11.128 89.1319999,11.128 C89.1919999,11.128 89.2399999,11.128 89.3479999,11.104 L89.4799999,11.848 C89.3479999,11.908 89.1799999,11.944 88.9159999,11.944 C88.1719999,11.944 87.8719999,11.476 87.8719999,10.624 Z M90.0999999,8.896 C90.0999999,6.94 91.3719999,5.824 92.7999999,5.824 C94.2279999,5.824 95.4999999,6.94 95.4999999,8.896 C95.4999999,10.828 94.2279999,11.944 92.7999999,11.944 C91.3719999,11.944 90.0999999,10.828 90.0999999,8.896 Z M91.1199999,8.896 C91.1199999,10.228 91.8039999,11.128 92.7999999,11.128 C93.8079999,11.128 94.4799999,10.228 94.4799999,8.896 C94.4799999,7.552 93.8079999,6.64 92.7999999,6.64 C91.8039999,6.64 91.1199999,7.552 91.1199999,8.896 Z M96.5519999,9.664 L96.5519999,5.968 L97.5479999,5.968 L97.5479999,9.532 C97.5479999,10.624 97.8719999,11.092 98.6399999,11.092 C99.2399999,11.092 99.6599999,10.792 100.212,10.108 L100.212,5.968 L101.196,5.968 L101.196,11.8 L100.38,11.8 L100.296,10.888 L100.26,10.888 C99.7199999,11.524 99.1439999,11.944 98.3399999,11.944 C97.1039999,11.944 96.5519999,11.152 96.5519999,9.664 Z M102.764,11.8 L102.764,5.968 L103.58,5.968 L103.664,7.024 L103.7,7.024 C104.096,6.292 104.696,5.824 105.356,5.824 C105.608,5.824 105.788,5.86 105.98,5.944 L105.788,6.808 C105.596,6.748 105.464,6.712 105.224,6.712 C104.732,6.712 104.144,7.072 103.748,8.056 L103.748,11.8 L102.764,11.8 Z M107.032,4.768 C106.648,4.768 106.348,4.504 106.348,4.132 C106.348,3.748 106.648,3.496 107.032,3.496 C107.416,3.496 107.716,3.748 107.716,4.132 C107.716,4.504 107.416,4.768 107.032,4.768 Z M106.528,11.8 L106.528,5.968 L107.512,5.968 L107.512,11.8 L106.528,11.8 Z M108.432,11.14 L108.924,10.48 C109.428,10.888 109.944,11.176 110.64,11.176 C111.408,11.176 111.792,10.768 111.792,10.264 C111.792,9.664 111.096,9.4 110.46,9.16 C109.632,8.86 108.72,8.464 108.72,7.48 C108.72,6.544 109.464,5.824 110.724,5.824 C111.456,5.824 112.092,6.124 112.536,6.484 L112.068,7.108 C111.672,6.808 111.252,6.592 110.736,6.592 C110.004,6.592 109.668,6.988 109.668,7.432 C109.668,7.972 110.304,8.188 110.964,8.44 C111.804,8.752 112.74,9.1 112.74,10.204 C112.74,11.152 111.984,11.944 110.604,11.944 C109.776,11.944 108.984,11.596 108.432,11.14 Z M113.708,11.8 L113.708,3.256 L114.692,3.256 L114.692,5.584 L114.656,6.784 C115.208,6.256 115.796,5.824 116.6,5.824 C117.824,5.824 118.376,6.616 118.376,8.104 L118.376,11.8 L117.392,11.8 L117.392,8.236 C117.392,7.144 117.056,6.676 116.288,6.676 C115.688,6.676 115.28,6.988 114.692,7.576 L114.692,11.8 L113.708,11.8 Z" fill="#000000"></path>
		<polygon fill="#C11F1F" fill-rule="nonzero" points="25.4236575 7.99539278 29 9.05830655 28.8810949 9.7141585 25.1458518 9.30709667 28.0492993 11.6817144 27.7023125 12.208022 24.432421 10.4193349 26.1760028 13.7181076 25.6711964 14.0660885 23.3130911 11.1749197 23.6995329 14.8812962 23.0747404 15 21.9754083 11.4231678 20.9252596 15 20.2712813 14.8812962 20.657723 11.1749197 18.3293441 14.0660885 17.7942709 13.7181076 19.5578504 10.4193349 16.2782303 12.208022 15.931784 11.6817144 18.8546886 9.30709667 15.1189051 9.7141585 15 9.05830655 18.5276995 7.99539278 15 6.94169345 15.1189051 6.28638352 18.8546886 6.69398738 15.931784 4.31882767 16.2782303 3.79197801 19.5578504 5.58066514 17.7942709 2.28189245 18.3293441 1.93445352 20.657723 4.82562236 20.2712813 1.11924581 20.9252596 1 21.9754083 4.57737427 23.0747404 1 23.6995329 1.11924581 23.3130911 4.82562236 25.6711964 1.93445352 26.1760028 2.28189245 24.432421 5.58066514 27.7023125 3.79197801 28.0492993 4.31882767 25.1458518 6.69398738 28.8810949 6.28638352 29 6.94169345"></polygon>
	</g>
</svg>