<?xml version="1.0" encoding="UTF-8"?>
<svg width="120px" height="16px" viewBox="0 0 120 16" version="1.1" xmlns="http://www.w3.org/2000/svg" xmlns:xlink="http://www.w3.org/1999/xlink">
	<g stroke="none" stroke-width="1" fill="none" fill-rule="evenodd">
		<path d="M20.044,11.8 L20.044,3.928 L21.052,3.928 L21.052,7.228 L24.712,7.228 L24.712,3.928 L25.708,3.928 L25.708,11.8 L24.712,11.8 L24.712,8.092 L21.052,8.092 L21.052,11.8 L20.044,11.8 Z M27.06,10.288 C27.06,9.016 28.164,8.38 30.648,8.104 C30.648,7.36 30.396,6.64 29.448,6.64 C28.764,6.64 28.164,6.952 27.708,7.264 L27.312,6.58 C27.852,6.232 28.668,5.824 29.604,5.824 C31.032,5.824 31.632,6.772 31.632,8.224 L31.632,11.8 L30.816,11.8 L30.732,11.104 L30.708,11.104 C30.144,11.56 29.496,11.944 28.776,11.944 C27.792,11.944 27.06,11.332 27.06,10.288 Z M28.032,10.216 C28.032,10.876 28.476,11.152 29.052,11.152 C29.616,11.152 30.084,10.876 30.648,10.372 L30.648,8.752 C28.692,8.992 28.032,9.472 28.032,10.216 Z M33.092,11.8 L33.092,5.968 L33.908,5.968 L33.992,6.808 L34.028,6.808 C34.58,6.256 35.18,5.824 35.984,5.824 C37.208,5.824 37.76,6.616 37.76,8.104 L37.76,11.8 L36.776,11.8 L36.776,8.236 C36.776,7.144 36.44,6.676 35.672,6.676 C35.072,6.676 34.664,6.988 34.076,7.576 L34.076,11.8 L33.092,11.8 Z M39.676,12.784 C39.676,13.408 40.312,13.804 41.368,13.804 C42.484,13.804 43.216,13.228 43.216,12.616 C43.216,12.076 42.796,11.896 42.04,11.896 L41.032,11.896 C40.804,11.896 40.528,11.872 40.276,11.8 C39.856,12.1 39.676,12.448 39.676,12.784 Z M38.812,12.916 C38.812,12.424 39.136,11.956 39.664,11.596 L39.664,11.548 C39.376,11.368 39.148,11.056 39.148,10.6 C39.148,10.108 39.484,9.724 39.784,9.52 L39.784,9.472 C39.4,9.16 39.028,8.596 39.028,7.9 C39.028,6.628 40.036,5.824 41.224,5.824 C41.548,5.824 41.836,5.884 42.052,5.968 L44.08,5.968 L44.08,6.724 L42.88,6.724 C43.156,6.988 43.36,7.432 43.36,7.924 C43.36,9.172 42.412,9.952 41.224,9.952 C40.936,9.952 40.612,9.88 40.348,9.748 C40.144,9.928 39.976,10.12 39.976,10.444 C39.976,10.816 40.216,11.08 41.008,11.08 L42.136,11.08 C43.492,11.08 44.176,11.5 44.176,12.472 C44.176,13.552 43.036,14.488 41.224,14.488 C39.796,14.488 38.812,13.924 38.812,12.916 Z M41.224,9.292 C41.896,9.292 42.46,8.752 42.46,7.9 C42.46,7.048 41.908,6.544 41.224,6.544 C40.54,6.544 39.988,7.048 39.988,7.9 C39.988,8.752 40.552,9.292 41.224,9.292 Z M44.424,10.288 C44.424,9.016 45.528,8.38 48.012,8.104 C48.012,7.36 47.76,6.64 46.812,6.64 C46.128,6.64 45.528,6.952 45.072,7.264 L44.676,6.58 C45.216,6.232 46.032,5.824 46.968,5.824 C48.396,5.824 48.996,6.772 48.996,8.224 L48.996,11.8 L48.18,11.8 L48.096,11.104 L48.072,11.104 C47.508,11.56 46.86,11.944 46.14,11.944 C45.156,11.944 44.424,11.332 44.424,10.288 Z M45.396,10.216 C45.396,10.876 45.84,11.152 46.416,11.152 C46.98,11.152 47.448,10.876 48.012,10.372 L48.012,8.752 C46.056,8.992 45.396,9.472 45.396,10.216 Z M50.96,4.768 C50.576,4.768 50.276,4.504 50.276,4.132 C50.276,3.748 50.576,3.496 50.96,3.496 C51.344,3.496 51.644,3.748 51.644,4.132 C51.644,4.504 51.344,4.768 50.96,4.768 Z M50.456,11.8 L50.456,5.968 L51.44,5.968 L51.44,11.8 L50.456,11.8 Z M52.72,10.288 C52.72,9.016 53.824,8.38 56.308,8.104 C56.308,7.36 56.056,6.64 55.108,6.64 C54.424,6.64 53.824,6.952 53.368,7.264 L52.972,6.58 C53.512,6.232 54.328,5.824 55.264,5.824 C56.692,5.824 57.292,6.772 57.292,8.224 L57.292,11.8 L56.476,11.8 L56.392,11.104 L56.368,11.104 C55.804,11.56 55.156,11.944 54.436,11.944 C53.452,11.944 52.72,11.332 52.72,10.288 Z M53.692,10.216 C53.692,10.876 54.136,11.152 54.712,11.152 C55.276,11.152 55.744,10.876 56.308,10.372 L56.308,8.752 C54.352,8.992 53.692,9.472 53.692,10.216 Z M60.776,11.8 L60.776,3.256 L61.748,3.256 L61.748,9.04 L61.784,9.04 L64.268,5.968 L65.36,5.968 L63.404,8.308 L65.624,11.8 L64.544,11.8 L62.84,8.992 L61.748,10.264 L61.748,11.8 L60.776,11.8 Z M66.8199999,4.768 C66.4359999,4.768 66.1359999,4.504 66.1359999,4.132 C66.1359999,3.748 66.4359999,3.496 66.8199999,3.496 C67.2039999,3.496 67.5039999,3.748 67.5039999,4.132 C67.5039999,4.504 67.2039999,4.768 66.8199999,4.768 Z M66.3159999,11.8 L66.3159999,5.968 L67.2999999,5.968 L67.2999999,11.8 L66.3159999,11.8 Z M71.0599999,10 L71.0599999,6.772 L70.1959999,6.772 L70.1959999,6.028 L71.1079999,5.968 L71.2279999,4.336 L72.0559999,4.336 L72.0559999,5.968 L73.6279999,5.968 L73.6279999,6.772 L72.0559999,6.772 L72.0559999,10.012 C72.0559999,10.732 72.2839999,11.14 72.9559999,11.14 C73.1599999,11.14 73.4239999,11.056 73.6159999,10.984 L73.8079999,11.728 C73.4839999,11.836 73.0879999,11.944 72.7279999,11.944 C71.4799999,11.944 71.0599999,11.152 71.0599999,10 Z M73.9959999,8.896 C73.9959999,6.988 75.2799999,5.824 76.6119999,5.824 C78.0999999,5.824 78.9399999,6.892 78.9399999,8.56 C78.9399999,8.764 78.9279999,8.956 78.9039999,9.1 L74.9679999,9.1 C75.0399999,10.36 75.7959999,11.152 76.9119999,11.152 C77.4639999,11.152 77.9319999,10.972 78.3639999,10.696 L78.7119999,11.344 C78.2079999,11.668 77.5839999,11.944 76.7919999,11.944 C75.2319999,11.944 73.9959999,10.804 73.9959999,8.896 Z M74.9559999,8.452 L78.0759999,8.452 C78.0759999,7.264 77.5479999,6.604 76.6359999,6.604 C75.8199999,6.604 75.0759999,7.276 74.9559999,8.452 Z M82.0639999,11.8 L82.0639999,3.928 L86.6119999,3.928 L86.6119999,4.768 L83.0719999,4.768 L83.0719999,7.432 L86.0719999,7.432 L86.0719999,8.272 L83.0719999,8.272 L83.0719999,11.8 L82.0639999,11.8 Z M87.4719999,10.624 L87.4719999,3.256 L88.4559999,3.256 L88.4559999,10.696 C88.4559999,11.008 88.5879999,11.128 88.7319999,11.128 C88.7919999,11.128 88.8399999,11.128 88.9479999,11.104 L89.0799999,11.848 C88.9479999,11.908 88.7799999,11.944 88.5159999,11.944 C87.7719999,11.944 87.4719999,11.476 87.4719999,10.624 Z M89.6999999,8.896 C89.6999999,6.94 90.9719999,5.824 92.3999999,5.824 C93.8279999,5.824 95.0999999,6.94 95.0999999,8.896 C95.0999999,10.828 93.8279999,11.944 92.3999999,11.944 C90.9719999,11.944 89.6999999,10.828 89.6999999,8.896 Z M90.7199999,8.896 C90.7199999,10.228 91.4039999,11.128 92.3999999,11.128 C93.4079999,11.128 94.0799999,10.228 94.0799999,8.896 C94.0799999,7.552 93.4079999,6.64 92.3999999,6.64 C91.4039999,6.64 90.7199999,7.552 90.7199999,8.896 Z M96.1519999,9.664 L96.1519999,5.968 L97.1479999,5.968 L97.1479999,9.532 C97.1479999,10.624 97.4719999,11.092 98.2399999,11.092 C98.8399999,11.092 99.2599999,10.792 99.8119999,10.108 L99.8119999,5.968 L100.796,5.968 L100.796,11.8 L99.9799999,11.8 L99.8959999,10.888 L99.8599999,10.888 C99.3199999,11.524 98.7439999,11.944 97.9399999,11.944 C96.7039999,11.944 96.1519999,11.152 96.1519999,9.664 Z M102.364,11.8 L102.364,5.968 L103.18,5.968 L103.264,7.024 L103.3,7.024 C103.696,6.292 104.296,5.824 104.956,5.824 C105.208,5.824 105.388,5.86 105.58,5.944 L105.388,6.808 C105.196,6.748 105.064,6.712 104.824,6.712 C104.332,6.712 103.744,7.072 103.348,8.056 L103.348,11.8 L102.364,11.8 Z M106.632,4.768 C106.248,4.768 105.948,4.504 105.948,4.132 C105.948,3.748 106.248,3.496 106.632,3.496 C107.016,3.496 107.316,3.748 107.316,4.132 C107.316,4.504 107.016,4.768 106.632,4.768 Z M106.128,11.8 L106.128,5.968 L107.112,5.968 L107.112,11.8 L106.128,11.8 Z M108.032,11.14 L108.524,10.48 C109.028,10.888 109.544,11.176 110.24,11.176 C111.008,11.176 111.392,10.768 111.392,10.264 C111.392,9.664 110.696,9.4 110.06,9.16 C109.232,8.86 108.32,8.464 108.32,7.48 C108.32,6.544 109.064,5.824 110.324,5.824 C111.056,5.824 111.692,6.124 112.136,6.484 L111.668,7.108 C111.272,6.808 110.852,6.592 110.336,6.592 C109.604,6.592 109.268,6.988 109.268,7.432 C109.268,7.972 109.904,8.188 110.564,8.44 C111.404,8.752 112.34,9.1 112.34,10.204 C112.34,11.152 111.584,11.944 110.204,11.944 C109.376,11.944 108.584,11.596 108.032,11.14 Z M113.308,11.8 L113.308,3.256 L114.292,3.256 L114.292,5.584 L114.256,6.784 C114.808,6.256 115.396,5.824 116.2,5.824 C117.424,5.824 117.976,6.616 117.976,8.104 L117.976,11.8 L116.992,11.8 L116.992,8.236 C116.992,7.144 116.656,6.676 115.888,6.676 C115.288,6.676 114.88,6.988 114.292,7.576 L114.292,11.8 L113.308,11.8 Z" fill="#000000"></path>
		<polygon fill="#C11F1F" fill-rule="nonzero" points="13.4236575 7.99539278 17 9.05830655 16.8810949 9.7141585 13.1458518 9.30709667 16.0492993 11.6817144 15.7023125 12.208022 12.432421 10.4193349 14.1760028 13.7181076 13.6711964 14.0660885 11.3130911 11.1749197 11.6995329 14.8812962 11.0747404 15 9.97540825 11.4231678 8.92525962 15 8.27128132 14.8812962 8.65772304 11.1749197 6.32934409 14.0660885 5.79427093 13.7181076 7.55785044 10.4193349 4.27823032 12.208022 3.93178396 11.6817144 6.85468865 9.30709667 3.11890515 9.7141585 3 9.05830655 6.52769949 7.99539278 3 6.94169345 3.11890515 6.28638352 6.85468865 6.69398738 3.93178396 4.31882767 4.27823032 3.79197801 7.55785044 5.58066514 5.79427093 2.28189245 6.32934409 1.93445352 8.65772304 4.82562236 8.27128132 1.11924581 8.92525962 1 9.97540825 4.57737427 11.0747404 1 11.6995329 1.11924581 11.3130911 4.82562236 13.6711964 1.93445352 14.1760028 2.28189245 12.432421 5.58066514 15.7023125 3.79197801 16.0492993 4.31882767 13.1458518 6.69398738 16.8810949 6.28638352 17 6.94169345"></polygon>
	</g>
</svg>