<?xml version="1.0" encoding="UTF-8"?>
<svg width="120px" height="16px" viewBox="0 0 120 16" version="1.1" xmlns="http://www.w3.org/2000/svg" xmlns:xlink="http://www.w3.org/1999/xlink">
	<g stroke="none" stroke-width="1" fill="none" fill-rule="evenodd">
		<path d="M26.588,7.864 C26.588,5.332 28.088,3.784 30.104,3.784 C31.04,3.784 31.784,4.24 32.252,4.756 L31.688,5.392 C31.268,4.948 30.764,4.66 30.116,4.66 C28.616,4.66 27.62,5.884 27.62,7.84 C27.62,9.82 28.568,11.068 30.068,11.068 C30.812,11.068 31.364,10.756 31.868,10.192 L32.432,10.804 C31.82,11.524 31.04,11.944 30.044,11.944 C28.064,11.944 26.588,10.432 26.588,7.864 Z M33.376,11.8 L33.376,5.968 L34.192,5.968 L34.276,7.024 L34.312,7.024 C34.708,6.292 35.308,5.824 35.968,5.824 C36.22,5.824 36.4,5.86 36.592,5.944 L36.4,6.808 C36.208,6.748 36.076,6.712 35.836,6.712 C35.344,6.712 34.756,7.072 34.36,8.056 L34.36,11.8 L33.376,11.8 Z M36.588,8.896 C36.588,6.988 37.872,5.824 39.204,5.824 C40.692,5.824 41.532,6.892 41.532,8.56 C41.532,8.764 41.52,8.956 41.496,9.1 L37.56,9.1 C37.632,10.36 38.388,11.152 39.504,11.152 C40.056,11.152 40.524,10.972 40.956,10.696 L41.304,11.344 C40.8,11.668 40.176,11.944 39.384,11.944 C37.824,11.944 36.588,10.804 36.588,8.896 Z M37.548,8.452 L40.668,8.452 C40.668,7.264 40.14,6.604 39.228,6.604 C38.412,6.604 37.668,7.276 37.548,8.452 Z M42.116,10.288 C42.116,9.016 43.22,8.38 45.704,8.104 C45.704,7.36 45.452,6.64 44.504,6.64 C43.82,6.64 43.22,6.952 42.764,7.264 L42.368,6.58 C42.908,6.232 43.724,5.824 44.66,5.824 C46.088,5.824 46.688,6.772 46.688,8.224 L46.688,11.8 L45.872,11.8 L45.788,11.104 L45.764,11.104 C45.2,11.56 44.552,11.944 43.832,11.944 C42.848,11.944 42.116,11.332 42.116,10.288 Z M43.088,10.216 C43.088,10.876 43.532,11.152 44.108,11.152 C44.672,11.152 45.14,10.876 45.704,10.372 L45.704,8.752 C43.748,8.992 43.088,9.472 43.088,10.216 Z M47.728,8.896 C47.728,7 48.928,5.824 50.26,5.824 C50.932,5.824 51.376,6.076 51.892,6.496 L51.844,5.5 L51.844,3.256 L52.84,3.256 L52.84,11.8 L52.024,11.8 L51.94,11.116 L51.904,11.116 C51.448,11.56 50.824,11.944 50.14,11.944 C48.676,11.944 47.728,10.84 47.728,8.896 Z M48.748,8.884 C48.748,10.276 49.336,11.116 50.356,11.116 C50.896,11.116 51.364,10.852 51.844,10.312 L51.844,7.264 C51.352,6.82 50.908,6.652 50.428,6.652 C49.492,6.652 48.748,7.552 48.748,8.884 Z M53.976,8.896 C53.976,6.94 55.248,5.824 56.676,5.824 C58.104,5.824 59.376,6.94 59.376,8.896 C59.376,10.828 58.104,11.944 56.676,11.944 C55.248,11.944 53.976,10.828 53.976,8.896 Z M54.996,8.896 C54.996,10.228 55.68,11.128 56.676,11.128 C57.684,11.128 58.356,10.228 58.356,8.896 C58.356,7.552 57.684,6.64 56.676,6.64 C55.68,6.64 54.996,7.552 54.996,8.896 Z M62.104,8.896 C62.104,6.94 63.412,5.824 64.912,5.824 C65.68,5.824 66.22,6.148 66.616,6.52 L66.124,7.156 C65.776,6.856 65.416,6.64 64.948,6.64 C63.892,6.64 63.124,7.552 63.124,8.896 C63.124,10.228 63.856,11.128 64.924,11.128 C65.476,11.128 65.944,10.852 66.292,10.54 L66.736,11.188 C66.208,11.656 65.536,11.944 64.84,11.944 C63.292,11.944 62.104,10.828 62.104,8.896 Z M66.924,8.896 C66.924,6.94 68.196,5.824 69.624,5.824 C71.052,5.824 72.324,6.94 72.324,8.896 C72.324,10.828 71.052,11.944 69.624,11.944 C68.196,11.944 66.924,10.828 66.924,8.896 Z M67.944,8.896 C67.944,10.228 68.628,11.128 69.624,11.128 C70.632,11.128 71.304,10.228 71.304,8.896 C71.304,7.552 70.632,6.64 69.624,6.64 C68.628,6.64 67.944,7.552 67.944,8.896 Z M73.4599999,11.8 L73.4599999,5.968 L74.2759999,5.968 L74.3599999,6.808 L74.3959999,6.808 C74.9479999,6.256 75.5479999,5.824 76.3519999,5.824 C77.5759999,5.824 78.1279999,6.616 78.1279999,8.104 L78.1279999,11.8 L77.1439999,11.8 L77.1439999,8.236 C77.1439999,7.144 76.8079999,6.676 76.0399999,6.676 C75.4399999,6.676 75.0319999,6.988 74.4439999,7.576 L74.4439999,11.8 L73.4599999,11.8 Z M81.7079999,11.8 L81.7079999,3.928 L86.2559999,3.928 L86.2559999,4.768 L82.7159999,4.768 L82.7159999,7.432 L85.7159999,7.432 L85.7159999,8.272 L82.7159999,8.272 L82.7159999,11.8 L81.7079999,11.8 Z M87.1159999,10.624 L87.1159999,3.256 L88.0999999,3.256 L88.0999999,10.696 C88.0999999,11.008 88.2319999,11.128 88.3759999,11.128 C88.4359999,11.128 88.4839999,11.128 88.5919999,11.104 L88.7239999,11.848 C88.5919999,11.908 88.4239999,11.944 88.1599999,11.944 C87.4159999,11.944 87.1159999,11.476 87.1159999,10.624 Z M89.3439999,8.896 C89.3439999,6.94 90.6159999,5.824 92.0439999,5.824 C93.4719999,5.824 94.7439999,6.94 94.7439999,8.896 C94.7439999,10.828 93.4719999,11.944 92.0439999,11.944 C90.6159999,11.944 89.3439999,10.828 89.3439999,8.896 Z M90.3639999,8.896 C90.3639999,10.228 91.0479999,11.128 92.0439999,11.128 C93.0519999,11.128 93.7239999,10.228 93.7239999,8.896 C93.7239999,7.552 93.0519999,6.64 92.0439999,6.64 C91.0479999,6.64 90.3639999,7.552 90.3639999,8.896 Z M95.7959999,9.664 L95.7959999,5.968 L96.7919999,5.968 L96.7919999,9.532 C96.7919999,10.624 97.1159999,11.092 97.8839999,11.092 C98.4839999,11.092 98.9039999,10.792 99.4559999,10.108 L99.4559999,5.968 L100.44,5.968 L100.44,11.8 L99.6239999,11.8 L99.5399999,10.888 L99.5039999,10.888 C98.9639999,11.524 98.3879999,11.944 97.5839999,11.944 C96.3479999,11.944 95.7959999,11.152 95.7959999,9.664 Z M102.008,11.8 L102.008,5.968 L102.824,5.968 L102.908,7.024 L102.944,7.024 C103.34,6.292 103.94,5.824 104.6,5.824 C104.852,5.824 105.032,5.86 105.224,5.944 L105.032,6.808 C104.84,6.748 104.708,6.712 104.468,6.712 C103.976,6.712 103.388,7.072 102.992,8.056 L102.992,11.8 L102.008,11.8 Z M106.276,4.768 C105.892,4.768 105.592,4.504 105.592,4.132 C105.592,3.748 105.892,3.496 106.276,3.496 C106.66,3.496 106.96,3.748 106.96,4.132 C106.96,4.504 106.66,4.768 106.276,4.768 Z M105.772,11.8 L105.772,5.968 L106.756,5.968 L106.756,11.8 L105.772,11.8 Z M107.676,11.14 L108.168,10.48 C108.672,10.888 109.188,11.176 109.884,11.176 C110.652,11.176 111.036,10.768 111.036,10.264 C111.036,9.664 110.34,9.4 109.704,9.16 C108.876,8.86 107.964,8.464 107.964,7.48 C107.964,6.544 108.708,5.824 109.968,5.824 C110.7,5.824 111.336,6.124 111.78,6.484 L111.312,7.108 C110.916,6.808 110.496,6.592 109.98,6.592 C109.248,6.592 108.912,6.988 108.912,7.432 C108.912,7.972 109.548,8.188 110.208,8.44 C111.048,8.752 111.984,9.1 111.984,10.204 C111.984,11.152 111.228,11.944 109.848,11.944 C109.02,11.944 108.228,11.596 107.676,11.14 Z M112.952,11.8 L112.952,3.256 L113.936,3.256 L113.936,5.584 L113.9,6.784 C114.452,6.256 115.04,5.824 115.844,5.824 C117.068,5.824 117.62,6.616 117.62,8.104 L117.62,11.8 L116.636,11.8 L116.636,8.236 C116.636,7.144 116.3,6.676 115.532,6.676 C114.932,6.676 114.524,6.988 113.936,7.576 L113.936,11.8 L112.952,11.8 Z" fill="#000000"></path>
		<polygon fill="#C11F1F" fill-rule="nonzero" points="20.4236575 7.99539278 24 9.05830655 23.8810949 9.7141585 20.1458518 9.30709667 23.0492993 11.6817144 22.7023125 12.208022 19.432421 10.4193349 21.1760028 13.7181076 20.6711964 14.0660885 18.3130911 11.1749197 18.6995329 14.8812962 18.0747404 15 16.9754083 11.4231678 15.9252596 15 15.2712813 14.8812962 15.657723 11.1749197 13.3293441 14.0660885 12.7942709 13.7181076 14.5578504 10.4193349 11.2782303 12.208022 10.931784 11.6817144 13.8546886 9.30709667 10.1189051 9.7141585 10 9.05830655 13.5276995 7.99539278 10 6.94169345 10.1189051 6.28638352 13.8546886 6.69398738 10.931784 4.31882767 11.2782303 3.79197801 14.5578504 5.58066514 12.7942709 2.28189245 13.3293441 1.93445352 15.657723 4.82562236 15.2712813 1.11924581 15.9252596 1 16.9754083 4.57737427 18.0747404 1 18.6995329 1.11924581 18.3130911 4.82562236 20.6711964 1.93445352 21.1760028 2.28189245 19.432421 5.58066514 22.7023125 3.79197801 23.0492993 4.31882767 20.1458518 6.69398738 23.8810949 6.28638352 24 6.94169345"></polygon>
	</g>
</svg>