<?xml version="1.0" encoding="UTF-8"?>
<svg width="105px" height="16px" viewBox="0 0 105 16" version="1.1" xmlns="http://www.w3.org/2000/svg" xmlns:xlink="http://www.w3.org/1999/xlink">
<polygon fill="#C11F1F" fill-rule="nonzero" points="10.4236575 7.99539278 14 9.05830655 13.8810949 9.7141585 10.1458518 9.30709667 13.0492993 11.6817144 12.7023125 12.208022 9.43242096 10.4193349 11.1760028 13.7181076 10.6711964 14.0660885 8.31309115 11.1749197 8.69953287 14.8812962 8.07474038 15 6.97540825 11.4231678 5.92525962 15 5.27128132 14.8812962 5.65772304 11.1749197 3.32934409 14.0660885 2.79427093 13.7181076 4.55785044 10.4193349 1.27823032 12.208022 0.931783963 11.6817144 3.85468865 9.30709667 0.118905146 9.7141585 0 9.05830655 3.52769949 7.99539278 0 6.94169345 0.118905146 6.28638352 3.85468865 6.69398738 0.931783963 4.31882767 1.27823032 3.79197801 4.55785044 5.58066514 2.79427093 2.28189245 3.32934409 1.93445352 5.65772304 4.82562236 5.27128132 1.11924581 5.92525962 1 6.97540825 4.57737427 8.07474038 1 8.69953287 1.11924581 8.31309115 4.82562236 10.6711964 1.93445352 11.1760028 2.28189245 9.43242096 5.58066514 12.7023125 3.79197801 13.0492993 4.31882767 10.1458518 6.69398738 13.8810949 6.28638352 14 6.94169345"></polygon>
<path d="M18.044,12 L18.968,12 L18.968,7.668 C18.968,6.972 18.896,6.036 18.848,5.34 L18.896,5.34 L19.52,7.092 L21.032,11.208 L21.608,11.208 L23.12,7.092 L23.744,5.34 L23.792,5.34 C23.744,6.036 23.66,6.972 23.66,7.668 L23.66,12 L24.608,12 L24.608,4.128 L23.432,4.128 L21.92,8.352 L21.368,9.96 L21.32,9.96 L20.756,8.352 L19.232,4.128 L18.044,4.128 L18.044,12 Z M25.96,10.488 C25.96,9.216 27.064,8.58 29.548,8.304 C29.548,7.56 29.296,6.84 28.348,6.84 C27.664,6.84 27.064,7.152 26.608,7.464 L26.212,6.78 C26.752,6.432 27.568,6.024 28.504,6.024 C29.932,6.024 30.532,6.972 30.532,8.424 L30.532,12 L29.716,12 L29.632,11.304 L29.608,11.304 C29.044,11.76 28.396,12.144 27.676,12.144 C26.692,12.144 25.96,11.532 25.96,10.488 Z M26.932,10.416 C26.932,11.076 27.376,11.352 27.952,11.352 C28.516,11.352 28.984,11.076 29.548,10.572 L29.548,8.952 C27.592,9.192 26.932,9.672 26.932,10.416 Z M31.572,9.096 C31.572,7.2 32.772,6.024 34.104,6.024 C34.776,6.024 35.22,6.276 35.736,6.696 L35.688,5.7 L35.688,3.456 L36.684,3.456 L36.684,12 L35.868,12 L35.784,11.316 L35.748,11.316 C35.292,11.76 34.668,12.144 33.984,12.144 C32.52,12.144 31.572,11.04 31.572,9.096 Z M32.592,9.084 C32.592,10.476 33.18,11.316 34.2,11.316 C34.74,11.316 35.208,11.052 35.688,10.512 L35.688,7.464 C35.196,7.02 34.752,6.852 34.272,6.852 C33.336,6.852 32.592,7.752 32.592,9.084 Z M37.82,9.096 C37.82,7.188 39.104,6.024 40.436,6.024 C41.924,6.024 42.764,7.092 42.764,8.76 C42.764,8.964 42.752,9.156 42.728,9.3 L38.792,9.3 C38.864,10.56 39.62,11.352 40.736,11.352 C41.288,11.352 41.756,11.172 42.188,10.896 L42.536,11.544 C42.032,11.868 41.408,12.144 40.616,12.144 C39.056,12.144 37.82,11.004 37.82,9.096 Z M38.78,8.652 L41.9,8.652 C41.9,7.464 41.372,6.804 40.46,6.804 C39.644,6.804 38.9,7.476 38.78,8.652 Z M46.752,12 L47.904,12 L48.72,8.88 C48.876,8.328 48.996,7.776 49.128,7.188 L49.176,7.188 C49.32,7.776 49.428,8.316 49.572,8.868 L50.412,12 L51.612,12 L53.172,6.168 L52.236,6.168 L51.384,9.54 C51.264,10.092 51.156,10.62 51.024,11.16 L50.976,11.16 C50.844,10.62 50.712,10.092 50.568,9.54 L49.656,6.168 L48.696,6.168 L47.796,9.54 C47.652,10.08 47.532,10.62 47.4,11.16 L47.352,11.16 C47.244,10.62 47.136,10.092 47.004,9.54 L46.14,6.168 L45.132,6.168 L46.752,12 Z M54.548,4.968 C54.932,4.968 55.232,4.704 55.232,4.332 C55.232,3.948 54.932,3.696 54.548,3.696 C54.164,3.696 53.864,3.948 53.864,4.332 C53.864,4.704 54.164,4.968 54.548,4.968 Z M54.044,12 L55.028,12 L55.028,6.168 L54.044,6.168 L54.044,12 Z M56.764,10.2 C56.764,11.352 57.184,12.144 58.432,12.144 C58.792,12.144 59.188,12.036 59.512,11.928 L59.32,11.184 C59.128,11.256 58.864,11.34 58.66,11.34 C57.988,11.34 57.76,10.932 57.76,10.212 L57.76,6.972 L59.332,6.972 L59.332,6.168 L57.76,6.168 L57.76,4.536 L56.932,4.536 L56.812,6.168 L55.9,6.228 L55.9,6.972 L56.764,6.972 L56.764,10.2 Z M60.252,12 L61.236,12 L61.236,7.776 C61.824,7.188 62.232,6.876 62.832,6.876 C63.6,6.876 63.936,7.344 63.936,8.436 L63.936,12 L64.92,12 L64.92,8.304 C64.92,6.816 64.368,6.024 63.144,6.024 C62.34,6.024 61.752,6.456 61.2,6.984 L61.236,5.784 L61.236,3.456 L60.252,3.456 L60.252,12 Z M68.4639999,12 L69.4719999,12 L69.4719999,8.472 L72.4719999,8.472 L72.4719999,7.632 L69.4719999,7.632 L69.4719999,4.968 L73.0119999,4.968 L73.0119999,4.128 L68.4639999,4.128 L68.4639999,12 Z M73.8719999,10.824 C73.8719999,11.676 74.1719999,12.144 74.9159999,12.144 C75.1799999,12.144 75.3479999,12.108 75.4799999,12.048 L75.3479999,11.304 C75.2399999,11.328 75.1919999,11.328 75.1319999,11.328 C74.9879999,11.328 74.8559999,11.208 74.8559999,10.896 L74.8559999,3.456 L73.8719999,3.456 L73.8719999,10.824 Z M76.0999999,9.096 C76.0999999,7.14 77.3719999,6.024 78.7999999,6.024 C80.2279999,6.024 81.4999999,7.14 81.4999999,9.096 C81.4999999,11.028 80.2279999,12.144 78.7999999,12.144 C77.3719999,12.144 76.0999999,11.028 76.0999999,9.096 Z M77.1199999,9.096 C77.1199999,10.428 77.8039999,11.328 78.7999999,11.328 C79.8079999,11.328 80.4799999,10.428 80.4799999,9.096 C80.4799999,7.752 79.8079999,6.84 78.7999999,6.84 C77.8039999,6.84 77.1199999,7.752 77.1199999,9.096 Z M82.5519999,9.864 C82.5519999,11.352 83.1039999,12.144 84.3399999,12.144 C85.1439999,12.144 85.7199999,11.724 86.2599999,11.088 L86.2959999,11.088 L86.3799999,12 L87.1959999,12 L87.1959999,6.168 L86.2119999,6.168 L86.2119999,10.308 C85.6599999,10.992 85.2399999,11.292 84.6399999,11.292 C83.8719999,11.292 83.5479999,10.824 83.5479999,9.732 L83.5479999,6.168 L82.5519999,6.168 L82.5519999,9.864 Z M88.7639999,12 L89.7479999,12 L89.7479999,8.256 C90.1439999,7.272 90.7319999,6.912 91.2239999,6.912 C91.4639999,6.912 91.5959999,6.948 91.7879999,7.008 L91.9799999,6.144 C91.7879999,6.06 91.6079999,6.024 91.3559999,6.024 C90.6959999,6.024 90.0959999,6.492 89.6999999,7.224 L89.6639999,7.224 L89.5799999,6.168 L88.7639999,6.168 L88.7639999,12 Z M93.0319999,4.968 C93.4159999,4.968 93.7159999,4.704 93.7159999,4.332 C93.7159999,3.948 93.4159999,3.696 93.0319999,3.696 C92.6479999,3.696 92.3479999,3.948 92.3479999,4.332 C92.3479999,4.704 92.6479999,4.968 93.0319999,4.968 Z M92.5279999,12 L93.5119999,12 L93.5119999,6.168 L92.5279999,6.168 L92.5279999,12 Z M94.4319999,11.34 C94.9839999,11.796 95.7759999,12.144 96.6039999,12.144 C97.9839999,12.144 98.7399999,11.352 98.7399999,10.404 C98.7399999,9.3 97.8039999,8.952 96.9639999,8.64 C96.3039999,8.388 95.6679999,8.172 95.6679999,7.632 C95.6679999,7.188 96.0039999,6.792 96.7359999,6.792 C97.2519999,6.792 97.6719999,7.008 98.0679999,7.308 L98.5359999,6.684 C98.0919999,6.324 97.4559999,6.024 96.7239999,6.024 C95.4639999,6.024 94.7199999,6.744 94.7199999,7.68 C94.7199999,8.664 95.6319999,9.06 96.4599999,9.36 C97.0959999,9.6 97.7919999,9.864 97.7919999,10.464 C97.7919999,10.968 97.4079999,11.376 96.6399999,11.376 C95.9439999,11.376 95.4279999,11.088 94.9239999,10.68 L94.4319999,11.34 Z M99.7079999,12 L100.692,12 L100.692,7.776 C101.28,7.188 101.688,6.876 102.288,6.876 C103.056,6.876 103.392,7.344 103.392,8.436 L103.392,12 L104.376,12 L104.376,8.304 C104.376,6.816 103.824,6.024 102.6,6.024 C101.796,6.024 101.208,6.456 100.656,6.984 L100.692,5.784 L100.692,3.456 L99.7079999,3.456 L99.7079999,12 Z" fill="#111111"></path>
</svg>