<?xml version="1.0" encoding="UTF-8"?>
<svg width="120px" height="16px" viewBox="0 0 120 16" version="1.1" xmlns="http://www.w3.org/2000/svg" xmlns:xlink="http://www.w3.org/1999/xlink">
	<g stroke="none" stroke-width="1" fill="none" fill-rule="evenodd">
		<path d="M30.044,11.8 L30.044,3.928 L34.58,3.928 L34.58,4.768 L31.052,4.768 L31.052,7.24 L34.028,7.24 L34.028,8.092 L31.052,8.092 L31.052,10.948 L34.7,10.948 L34.7,11.8 L30.044,11.8 Z M35.848,11.8 L35.848,5.968 L36.664,5.968 L36.748,7.024 L36.784,7.024 C37.18,6.292 37.78,5.824 38.44,5.824 C38.692,5.824 38.872,5.86 39.064,5.944 L38.872,6.808 C38.68,6.748 38.548,6.712 38.308,6.712 C37.816,6.712 37.228,7.072 36.832,8.056 L36.832,11.8 L35.848,11.8 Z M38.844,11.14 L39.336,10.48 C39.84,10.888 40.356,11.176 41.052,11.176 C41.82,11.176 42.204,10.768 42.204,10.264 C42.204,9.664 41.508,9.4 40.872,9.16 C40.044,8.86 39.132,8.464 39.132,7.48 C39.132,6.544 39.876,5.824 41.136,5.824 C41.868,5.824 42.504,6.124 42.948,6.484 L42.48,7.108 C42.084,6.808 41.664,6.592 41.148,6.592 C40.416,6.592 40.08,6.988 40.08,7.432 C40.08,7.972 40.716,8.188 41.376,8.44 C42.216,8.752 43.152,9.1 43.152,10.204 C43.152,11.152 42.396,11.944 41.016,11.944 C40.188,11.944 39.396,11.596 38.844,11.14 Z M44.288,10 L44.288,6.772 L43.424,6.772 L43.424,6.028 L44.336,5.968 L44.456,4.336 L45.284,4.336 L45.284,5.968 L46.856,5.968 L46.856,6.772 L45.284,6.772 L45.284,10.012 C45.284,10.732 45.512,11.14 46.184,11.14 C46.388,11.14 46.652,11.056 46.844,10.984 L47.036,11.728 C46.712,11.836 46.316,11.944 45.956,11.944 C44.708,11.944 44.288,11.152 44.288,10 Z M47.224,8.896 C47.224,6.988 48.508,5.824 49.84,5.824 C51.328,5.824 52.168,6.892 52.168,8.56 C52.168,8.764 52.156,8.956 52.132,9.1 L48.196,9.1 C48.268,10.36 49.024,11.152 50.14,11.152 C50.692,11.152 51.16,10.972 51.592,10.696 L51.94,11.344 C51.436,11.668 50.812,11.944 50.02,11.944 C48.46,11.944 47.224,10.804 47.224,8.896 Z M48.184,8.452 L51.304,8.452 C51.304,7.264 50.776,6.604 49.864,6.604 C49.048,6.604 48.304,7.276 48.184,8.452 Z M53.208,10.624 L53.208,3.256 L54.192,3.256 L54.192,10.696 C54.192,11.008 54.324,11.128 54.468,11.128 C54.528,11.128 54.576,11.128 54.684,11.104 L54.816,11.848 C54.684,11.908 54.516,11.944 54.252,11.944 C53.508,11.944 53.208,11.476 53.208,10.624 Z M55.868,10.624 L55.868,3.256 L56.852,3.256 L56.852,10.696 C56.852,11.008 56.984,11.128 57.128,11.128 C57.188,11.128 57.236,11.128 57.344,11.104 L57.476,11.848 C57.344,11.908 57.176,11.944 56.912,11.944 C56.168,11.944 55.868,11.476 55.868,10.624 Z M58.696,10 L58.696,6.772 L57.832,6.772 L57.832,6.028 L58.744,5.968 L58.864,4.336 L59.692,4.336 L59.692,5.968 L61.264,5.968 L61.264,6.772 L59.692,6.772 L59.692,10.012 C59.692,10.732 59.92,11.14 60.592,11.14 C60.796,11.14 61.06,11.056 61.252,10.984 L61.444,11.728 C61.12,11.836 60.724,11.944 60.364,11.944 C59.116,11.944 58.696,11.152 58.696,10 Z M64.2079999,11.8 L64.2079999,5.968 L65.0239999,5.968 L65.1079999,6.808 L65.1439999,6.808 C65.6479999,6.256 66.2599999,5.824 66.9559999,5.824 C67.8439999,5.824 68.3239999,6.244 68.5639999,6.94 C69.1759999,6.28 69.7759999,5.824 70.4839999,5.824 C71.6839999,5.824 72.2599999,6.616 72.2599999,8.104 L72.2599999,11.8 L71.2759999,11.8 L71.2759999,8.236 C71.2759999,7.144 70.9279999,6.676 70.1959999,6.676 C69.7399999,6.676 69.2719999,6.976 68.7319999,7.576 L68.7319999,11.8 L67.7479999,11.8 L67.7479999,8.236 C67.7479999,7.144 67.3999999,6.676 66.6559999,6.676 C66.2239999,6.676 65.7319999,6.976 65.1919999,7.576 L65.1919999,11.8 L64.2079999,11.8 Z M74.2599999,4.768 C73.8759999,4.768 73.5759999,4.504 73.5759999,4.132 C73.5759999,3.748 73.8759999,3.496 74.2599999,3.496 C74.6439999,3.496 74.9439999,3.748 74.9439999,4.132 C74.9439999,4.504 74.6439999,4.768 74.2599999,4.768 Z M73.7559999,11.8 L73.7559999,5.968 L74.7399999,5.968 L74.7399999,11.8 L73.7559999,11.8 Z M76.4759999,10 L76.4759999,6.772 L75.6119999,6.772 L75.6119999,6.028 L76.5239999,5.968 L76.6439999,4.336 L77.4719999,4.336 L77.4719999,5.968 L79.0439999,5.968 L79.0439999,6.772 L77.4719999,6.772 L77.4719999,10.012 C77.4719999,10.732 77.6999999,11.14 78.3719999,11.14 C78.5759999,11.14 78.8399999,11.056 79.0319999,10.984 L79.2239999,11.728 C78.8999999,11.836 78.5039999,11.944 78.1439999,11.944 C76.8959999,11.944 76.4759999,11.152 76.4759999,10 Z M82.0479999,11.8 L82.0479999,3.928 L86.5959999,3.928 L86.5959999,4.768 L83.0559999,4.768 L83.0559999,7.432 L86.0559999,7.432 L86.0559999,8.272 L83.0559999,8.272 L83.0559999,11.8 L82.0479999,11.8 Z M87.4559999,10.624 L87.4559999,3.256 L88.4399999,3.256 L88.4399999,10.696 C88.4399999,11.008 88.5719999,11.128 88.7159999,11.128 C88.7759999,11.128 88.8239999,11.128 88.9319999,11.104 L89.0639999,11.848 C88.9319999,11.908 88.7639999,11.944 88.4999999,11.944 C87.7559999,11.944 87.4559999,11.476 87.4559999,10.624 Z M89.6839999,8.896 C89.6839999,6.94 90.9559999,5.824 92.3839999,5.824 C93.8119999,5.824 95.0839999,6.94 95.0839999,8.896 C95.0839999,10.828 93.8119999,11.944 92.3839999,11.944 C90.9559999,11.944 89.6839999,10.828 89.6839999,8.896 Z M90.7039999,8.896 C90.7039999,10.228 91.3879999,11.128 92.3839999,11.128 C93.3919999,11.128 94.0639999,10.228 94.0639999,8.896 C94.0639999,7.552 93.3919999,6.64 92.3839999,6.64 C91.3879999,6.64 90.7039999,7.552 90.7039999,8.896 Z M96.1359999,9.664 L96.1359999,5.968 L97.1319999,5.968 L97.1319999,9.532 C97.1319999,10.624 97.4559999,11.092 98.2239999,11.092 C98.8239999,11.092 99.2439999,10.792 99.7959999,10.108 L99.7959999,5.968 L100.78,5.968 L100.78,11.8 L99.9639999,11.8 L99.8799999,10.888 L99.8439999,10.888 C99.3039999,11.524 98.7279999,11.944 97.9239999,11.944 C96.6879999,11.944 96.1359999,11.152 96.1359999,9.664 Z M102.348,11.8 L102.348,5.968 L103.164,5.968 L103.248,7.024 L103.284,7.024 C103.68,6.292 104.28,5.824 104.94,5.824 C105.192,5.824 105.372,5.86 105.564,5.944 L105.372,6.808 C105.18,6.748 105.048,6.712 104.808,6.712 C104.316,6.712 103.728,7.072 103.332,8.056 L103.332,11.8 L102.348,11.8 Z M106.616,4.768 C106.232,4.768 105.932,4.504 105.932,4.132 C105.932,3.748 106.232,3.496 106.616,3.496 C107,3.496 107.3,3.748 107.3,4.132 C107.3,4.504 107,4.768 106.616,4.768 Z M106.112,11.8 L106.112,5.968 L107.096,5.968 L107.096,11.8 L106.112,11.8 Z M108.016,11.14 L108.508,10.48 C109.012,10.888 109.528,11.176 110.224,11.176 C110.992,11.176 111.376,10.768 111.376,10.264 C111.376,9.664 110.68,9.4 110.044,9.16 C109.216,8.86 108.304,8.464 108.304,7.48 C108.304,6.544 109.048,5.824 110.308,5.824 C111.04,5.824 111.676,6.124 112.12,6.484 L111.652,7.108 C111.256,6.808 110.836,6.592 110.32,6.592 C109.588,6.592 109.252,6.988 109.252,7.432 C109.252,7.972 109.888,8.188 110.548,8.44 C111.388,8.752 112.324,9.1 112.324,10.204 C112.324,11.152 111.568,11.944 110.188,11.944 C109.36,11.944 108.568,11.596 108.016,11.14 Z M113.292,11.8 L113.292,3.256 L114.276,3.256 L114.276,5.584 L114.24,6.784 C114.792,6.256 115.38,5.824 116.184,5.824 C117.408,5.824 117.96,6.616 117.96,8.104 L117.96,11.8 L116.976,11.8 L116.976,8.236 C116.976,7.144 116.64,6.676 115.872,6.676 C115.272,6.676 114.864,6.988 114.276,7.576 L114.276,11.8 L113.292,11.8 Z" fill="#000000"></path>
		<polygon fill="#C11F1F" fill-rule="nonzero" points="23.4236575 7.99539278 27 9.05830655 26.8810949 9.7141585 23.1458518 9.30709667 26.0492993 11.6817144 25.7023125 12.208022 22.432421 10.4193349 24.1760028 13.7181076 23.6711964 14.0660885 21.3130911 11.1749197 21.6995329 14.8812962 21.0747404 15 19.9754083 11.4231678 18.9252596 15 18.2712813 14.8812962 18.657723 11.1749197 16.3293441 14.0660885 15.7942709 13.7181076 17.5578504 10.4193349 14.2782303 12.208022 13.931784 11.6817144 16.8546886 9.30709667 13.1189051 9.7141585 13 9.05830655 16.5276995 7.99539278 13 6.94169345 13.1189051 6.28638352 16.8546886 6.69398738 13.931784 4.31882767 14.2782303 3.79197801 17.5578504 5.58066514 15.7942709 2.28189245 16.3293441 1.93445352 18.657723 4.82562236 18.2712813 1.11924581 18.9252596 1 19.9754083 4.57737427 21.0747404 1 21.6995329 1.11924581 21.3130911 4.82562236 23.6711964 1.93445352 24.1760028 2.28189245 22.432421 5.58066514 25.7023125 3.79197801 26.0492993 4.31882767 23.1458518 6.69398738 26.8810949 6.28638352 27 6.94169345"></polygon>
	</g>
</svg>