<?xml version="1.0" encoding="UTF-8"?>
<svg width="120px" height="16px" viewBox="0 0 120 16" version="1.1" xmlns="http://www.w3.org/2000/svg" xmlns:xlink="http://www.w3.org/1999/xlink">
	<g stroke="none" stroke-width="1" fill="none" fill-rule="evenodd">
		<path d="M34.588,7.864 C34.588,5.332 36.088,3.784 38.104,3.784 C39.04,3.784 39.784,4.24 40.252,4.756 L39.688,5.392 C39.268,4.948 38.764,4.66 38.116,4.66 C36.616,4.66 35.62,5.884 35.62,7.84 C35.62,9.82 36.568,11.068 38.068,11.068 C38.812,11.068 39.364,10.756 39.868,10.192 L40.432,10.804 C39.82,11.524 39.04,11.944 38.044,11.944 C36.064,11.944 34.588,10.432 34.588,7.864 Z M41.376,11.8 L41.376,5.968 L42.192,5.968 L42.276,7.024 L42.312,7.024 C42.708,6.292 43.308,5.824 43.968,5.824 C44.22,5.824 44.4,5.86 44.592,5.944 L44.4,6.808 C44.208,6.748 44.076,6.712 43.836,6.712 C43.344,6.712 42.756,7.072 42.36,8.056 L42.36,11.8 L41.376,11.8 Z M44.588,8.896 C44.588,6.988 45.872,5.824 47.204,5.824 C48.692,5.824 49.532,6.892 49.532,8.56 C49.532,8.764 49.52,8.956 49.496,9.1 L45.56,9.1 C45.632,10.36 46.388,11.152 47.504,11.152 C48.056,11.152 48.524,10.972 48.956,10.696 L49.304,11.344 C48.8,11.668 48.176,11.944 47.384,11.944 C45.824,11.944 44.588,10.804 44.588,8.896 Z M45.548,8.452 L48.668,8.452 C48.668,7.264 48.14,6.604 47.228,6.604 C46.412,6.604 45.668,7.276 45.548,8.452 Z M48.536,3.232 L47.18,4.924 L46.424,4.924 L47.516,3.232 L48.536,3.232 Z M50.14,8.896 C50.14,6.988 51.424,5.824 52.756,5.824 C54.244,5.824 55.084,6.892 55.084,8.56 C55.084,8.764 55.072,8.956 55.048,9.1 L51.112,9.1 C51.184,10.36 51.94,11.152 53.056,11.152 C53.608,11.152 54.076,10.972 54.508,10.696 L54.856,11.344 C54.352,11.668 53.728,11.944 52.936,11.944 C51.376,11.944 50.14,10.804 50.14,8.896 Z M51.1,8.452 L54.22,8.452 C54.22,7.264 53.692,6.604 52.78,6.604 C51.964,6.604 51.22,7.276 51.1,8.452 Z M54.088,3.232 L52.732,4.924 L51.976,4.924 L53.068,3.232 L54.088,3.232 Z M57.86,10.288 C57.86,9.016 58.964,8.38 61.448,8.104 C61.448,7.36 61.196,6.64 60.248,6.64 C59.564,6.64 58.964,6.952 58.508,7.264 L58.112,6.58 C58.652,6.232 59.468,5.824 60.404,5.824 C61.832,5.824 62.432,6.772 62.432,8.224 L62.432,11.8 L61.616,11.8 L61.532,11.104 L61.508,11.104 C60.944,11.56 60.296,11.944 59.576,11.944 C58.592,11.944 57.86,11.332 57.86,10.288 Z M58.832,10.216 C58.832,10.876 59.276,11.152 59.852,11.152 C60.416,11.152 60.884,10.876 61.448,10.372 L61.448,8.752 C59.492,8.992 58.832,9.472 58.832,10.216 Z M65.152,11.8 L63.052,5.968 L64.072,5.968 L65.176,9.28 C65.344,9.856 65.536,10.444 65.716,10.996 L65.764,10.996 C65.932,10.444 66.124,9.856 66.292,9.28 L67.396,5.968 L68.368,5.968 L66.304,11.8 L65.152,11.8 Z M68.616,8.896 C68.616,6.988 69.9,5.824 71.232,5.824 C72.72,5.824 73.56,6.892 73.56,8.56 C73.56,8.764 73.548,8.956 73.524,9.1 L69.588,9.1 C69.66,10.36 70.416,11.152 71.532,11.152 C72.084,11.152 72.552,10.972 72.984,10.696 L73.332,11.344 C72.828,11.668 72.204,11.944 71.412,11.944 C69.852,11.944 68.616,10.804 68.616,8.896 Z M69.576,8.452 L72.696,8.452 C72.696,7.264 72.168,6.604 71.256,6.604 C70.44,6.604 69.696,7.276 69.576,8.452 Z M74.168,8.896 C74.168,6.94 75.476,5.824 76.976,5.824 C77.744,5.824 78.284,6.148 78.68,6.52 L78.188,7.156 C77.84,6.856 77.48,6.64 77.012,6.64 C75.956,6.64 75.188,7.552 75.188,8.896 C75.188,10.228 75.92,11.128 76.988,11.128 C77.54,11.128 78.008,10.852 78.356,10.54 L78.8,11.188 C78.272,11.656 77.6,11.944 76.904,11.944 C75.356,11.944 74.168,10.828 74.168,8.896 Z M81.7559999,11.8 L81.7559999,3.928 L86.3039999,3.928 L86.3039999,4.768 L82.7639999,4.768 L82.7639999,7.432 L85.7639999,7.432 L85.7639999,8.272 L82.7639999,8.272 L82.7639999,11.8 L81.7559999,11.8 Z M87.1639999,10.624 L87.1639999,3.256 L88.1479999,3.256 L88.1479999,10.696 C88.1479999,11.008 88.2799999,11.128 88.4239999,11.128 C88.4839999,11.128 88.5319999,11.128 88.6399999,11.104 L88.7719999,11.848 C88.6399999,11.908 88.4719999,11.944 88.2079999,11.944 C87.4639999,11.944 87.1639999,11.476 87.1639999,10.624 Z M89.3919999,8.896 C89.3919999,6.94 90.6639999,5.824 92.0919999,5.824 C93.5199999,5.824 94.7919999,6.94 94.7919999,8.896 C94.7919999,10.828 93.5199999,11.944 92.0919999,11.944 C90.6639999,11.944 89.3919999,10.828 89.3919999,8.896 Z M90.4119999,8.896 C90.4119999,10.228 91.0959999,11.128 92.0919999,11.128 C93.0999999,11.128 93.7719999,10.228 93.7719999,8.896 C93.7719999,7.552 93.0999999,6.64 92.0919999,6.64 C91.0959999,6.64 90.4119999,7.552 90.4119999,8.896 Z M95.8439999,9.664 L95.8439999,5.968 L96.8399999,5.968 L96.8399999,9.532 C96.8399999,10.624 97.1639999,11.092 97.9319999,11.092 C98.5319999,11.092 98.9519999,10.792 99.5039999,10.108 L99.5039999,5.968 L100.488,5.968 L100.488,11.8 L99.6719999,11.8 L99.5879999,10.888 L99.5519999,10.888 C99.0119999,11.524 98.4359999,11.944 97.6319999,11.944 C96.3959999,11.944 95.8439999,11.152 95.8439999,9.664 Z M102.056,11.8 L102.056,5.968 L102.872,5.968 L102.956,7.024 L102.992,7.024 C103.388,6.292 103.988,5.824 104.648,5.824 C104.9,5.824 105.08,5.86 105.272,5.944 L105.08,6.808 C104.888,6.748 104.756,6.712 104.516,6.712 C104.024,6.712 103.436,7.072 103.04,8.056 L103.04,11.8 L102.056,11.8 Z M106.324,4.768 C105.94,4.768 105.64,4.504 105.64,4.132 C105.64,3.748 105.94,3.496 106.324,3.496 C106.708,3.496 107.008,3.748 107.008,4.132 C107.008,4.504 106.708,4.768 106.324,4.768 Z M105.82,11.8 L105.82,5.968 L106.804,5.968 L106.804,11.8 L105.82,11.8 Z M107.724,11.14 L108.216,10.48 C108.72,10.888 109.236,11.176 109.932,11.176 C110.7,11.176 111.084,10.768 111.084,10.264 C111.084,9.664 110.388,9.4 109.752,9.16 C108.924,8.86 108.012,8.464 108.012,7.48 C108.012,6.544 108.756,5.824 110.016,5.824 C110.748,5.824 111.384,6.124 111.828,6.484 L111.36,7.108 C110.964,6.808 110.544,6.592 110.028,6.592 C109.296,6.592 108.96,6.988 108.96,7.432 C108.96,7.972 109.596,8.188 110.256,8.44 C111.096,8.752 112.032,9.1 112.032,10.204 C112.032,11.152 111.276,11.944 109.896,11.944 C109.068,11.944 108.276,11.596 107.724,11.14 Z M113,11.8 L113,3.256 L113.984,3.256 L113.984,5.584 L113.948,6.784 C114.5,6.256 115.088,5.824 115.892,5.824 C117.116,5.824 117.668,6.616 117.668,8.104 L117.668,11.8 L116.684,11.8 L116.684,8.236 C116.684,7.144 116.348,6.676 115.58,6.676 C114.98,6.676 114.572,6.988 113.984,7.576 L113.984,11.8 L113,11.8 Z" fill="#000000"></path>
		<polygon fill="#C11F1F" fill-rule="nonzero" points="28.4236575 7.99539278 32 9.05830655 31.8810949 9.7141585 28.1458518 9.30709667 31.0492993 11.6817144 30.7023125 12.208022 27.432421 10.4193349 29.1760028 13.7181076 28.6711964 14.0660885 26.3130911 11.1749197 26.6995329 14.8812962 26.0747404 15 24.9754083 11.4231678 23.9252596 15 23.2712813 14.8812962 23.657723 11.1749197 21.3293441 14.0660885 20.7942709 13.7181076 22.5578504 10.4193349 19.2782303 12.208022 18.931784 11.6817144 21.8546886 9.30709667 18.1189051 9.7141585 18 9.05830655 21.5276995 7.99539278 18 6.94169345 18.1189051 6.28638352 21.8546886 6.69398738 18.931784 4.31882767 19.2782303 3.79197801 22.5578504 5.58066514 20.7942709 2.28189245 21.3293441 1.93445352 23.657723 4.82562236 23.2712813 1.11924581 23.9252596 1 24.9754083 4.57737427 26.0747404 1 26.6995329 1.11924581 26.3130911 4.82562236 28.6711964 1.93445352 29.1760028 2.28189245 27.432421 5.58066514 30.7023125 3.79197801 31.0492993 4.31882767 28.1458518 6.69398738 31.8810949 6.28638352 32 6.94169345"></polygon>
	</g>
</svg>