<?xml version="1.0" encoding="UTF-8"?>
<svg width="120px" height="16px" viewBox="0 0 120 16" version="1.1" xmlns="http://www.w3.org/2000/svg" xmlns:xlink="http://www.w3.org/1999/xlink">
	<g stroke="none" stroke-width="1" fill="none" fill-rule="evenodd">
		<path d="M29.588,7.864 C29.588,5.332 31.088,3.784 33.104,3.784 C34.04,3.784 34.784,4.24 35.252,4.756 L34.688,5.392 C34.268,4.948 33.764,4.66 33.116,4.66 C31.616,4.66 30.62,5.884 30.62,7.84 C30.62,9.82 31.568,11.068 33.068,11.068 C33.812,11.068 34.364,10.756 34.868,10.192 L35.432,10.804 C34.82,11.524 34.04,11.944 33.044,11.944 C31.064,11.944 29.588,10.432 29.588,7.864 Z M36.376,11.8 L36.376,5.968 L37.192,5.968 L37.276,7.024 L37.312,7.024 C37.708,6.292 38.308,5.824 38.968,5.824 C39.22,5.824 39.4,5.86 39.592,5.944 L39.4,6.808 C39.208,6.748 39.076,6.712 38.836,6.712 C38.344,6.712 37.756,7.072 37.36,8.056 L37.36,11.8 L36.376,11.8 Z M39.588,8.896 C39.588,6.988 40.872,5.824 42.204,5.824 C43.692,5.824 44.532,6.892 44.532,8.56 C44.532,8.764 44.52,8.956 44.496,9.1 L40.56,9.1 C40.632,10.36 41.388,11.152 42.504,11.152 C43.056,11.152 43.524,10.972 43.956,10.696 L44.304,11.344 C43.8,11.668 43.176,11.944 42.384,11.944 C40.824,11.944 39.588,10.804 39.588,8.896 Z M40.548,8.452 L43.668,8.452 C43.668,7.264 43.14,6.604 42.228,6.604 C41.412,6.604 40.668,7.276 40.548,8.452 Z M45.116,10.288 C45.116,9.016 46.22,8.38 48.704,8.104 C48.704,7.36 48.452,6.64 47.504,6.64 C46.82,6.64 46.22,6.952 45.764,7.264 L45.368,6.58 C45.908,6.232 46.724,5.824 47.66,5.824 C49.088,5.824 49.688,6.772 49.688,8.224 L49.688,11.8 L48.872,11.8 L48.788,11.104 L48.764,11.104 C48.2,11.56 47.552,11.944 46.832,11.944 C45.848,11.944 45.116,11.332 45.116,10.288 Z M46.088,10.216 C46.088,10.876 46.532,11.152 47.108,11.152 C47.672,11.152 48.14,10.876 48.704,10.372 L48.704,8.752 C46.748,8.992 46.088,9.472 46.088,10.216 Z M51.316,10 L51.316,6.772 L50.452,6.772 L50.452,6.028 L51.364,5.968 L51.484,4.336 L52.312,4.336 L52.312,5.968 L53.884,5.968 L53.884,6.772 L52.312,6.772 L52.312,10.012 C52.312,10.732 52.54,11.14 53.212,11.14 C53.416,11.14 53.68,11.056 53.872,10.984 L54.064,11.728 C53.74,11.836 53.344,11.944 52.984,11.944 C51.736,11.944 51.316,11.152 51.316,10 Z M54.252,8.896 C54.252,6.94 55.524,5.824 56.952,5.824 C58.38,5.824 59.652,6.94 59.652,8.896 C59.652,10.828 58.38,11.944 56.952,11.944 C55.524,11.944 54.252,10.828 54.252,8.896 Z M55.272,8.896 C55.272,10.228 55.956,11.128 56.952,11.128 C57.96,11.128 58.632,10.228 58.632,8.896 C58.632,7.552 57.96,6.64 56.952,6.64 C55.956,6.64 55.272,7.552 55.272,8.896 Z M62.38,8.896 C62.38,6.94 63.688,5.824 65.188,5.824 C65.956,5.824 66.496,6.148 66.892,6.52 L66.4,7.156 C66.052,6.856 65.692,6.64 65.224,6.64 C64.168,6.64 63.4,7.552 63.4,8.896 C63.4,10.228 64.132,11.128 65.2,11.128 C65.752,11.128 66.22,10.852 66.568,10.54 L67.012,11.188 C66.484,11.656 65.812,11.944 65.116,11.944 C63.568,11.944 62.38,10.828 62.38,8.896 Z M67.2,8.896 C67.2,6.94 68.472,5.824 69.9,5.824 C71.328,5.824 72.6,6.94 72.6,8.896 C72.6,10.828 71.328,11.944 69.9,11.944 C68.472,11.944 67.2,10.828 67.2,8.896 Z M68.22,8.896 C68.22,10.228 68.904,11.128 69.9,11.128 C70.908,11.128 71.58,10.228 71.58,8.896 C71.58,7.552 70.908,6.64 69.9,6.64 C68.904,6.64 68.22,7.552 68.22,8.896 Z M73.7359999,11.8 L73.7359999,5.968 L74.5519999,5.968 L74.6359999,6.808 L74.6719999,6.808 C75.2239999,6.256 75.8239999,5.824 76.6279999,5.824 C77.8519999,5.824 78.4039999,6.616 78.4039999,8.104 L78.4039999,11.8 L77.4199999,11.8 L77.4199999,8.236 C77.4199999,7.144 77.0839999,6.676 76.3159999,6.676 C75.7159999,6.676 75.3079999,6.988 74.7199999,7.576 L74.7199999,11.8 L73.7359999,11.8 Z M81.9839999,11.8 L81.9839999,3.928 L86.5319999,3.928 L86.5319999,4.768 L82.9919999,4.768 L82.9919999,7.432 L85.9919999,7.432 L85.9919999,8.272 L82.9919999,8.272 L82.9919999,11.8 L81.9839999,11.8 Z M87.3919999,10.624 L87.3919999,3.256 L88.3759999,3.256 L88.3759999,10.696 C88.3759999,11.008 88.5079999,11.128 88.6519999,11.128 C88.7119999,11.128 88.7599999,11.128 88.8679999,11.104 L88.9999999,11.848 C88.8679999,11.908 88.6999999,11.944 88.4359999,11.944 C87.6919999,11.944 87.3919999,11.476 87.3919999,10.624 Z M89.6199999,8.896 C89.6199999,6.94 90.8919999,5.824 92.3199999,5.824 C93.7479999,5.824 95.0199999,6.94 95.0199999,8.896 C95.0199999,10.828 93.7479999,11.944 92.3199999,11.944 C90.8919999,11.944 89.6199999,10.828 89.6199999,8.896 Z M90.6399999,8.896 C90.6399999,10.228 91.3239999,11.128 92.3199999,11.128 C93.3279999,11.128 93.9999999,10.228 93.9999999,8.896 C93.9999999,7.552 93.3279999,6.64 92.3199999,6.64 C91.3239999,6.64 90.6399999,7.552 90.6399999,8.896 Z M96.0719999,9.664 L96.0719999,5.968 L97.0679999,5.968 L97.0679999,9.532 C97.0679999,10.624 97.3919999,11.092 98.1599999,11.092 C98.7599999,11.092 99.1799999,10.792 99.7319999,10.108 L99.7319999,5.968 L100.716,5.968 L100.716,11.8 L99.8999999,11.8 L99.8159999,10.888 L99.7799999,10.888 C99.2399999,11.524 98.6639999,11.944 97.8599999,11.944 C96.6239999,11.944 96.0719999,11.152 96.0719999,9.664 Z M102.284,11.8 L102.284,5.968 L103.1,5.968 L103.184,7.024 L103.22,7.024 C103.616,6.292 104.216,5.824 104.876,5.824 C105.128,5.824 105.308,5.86 105.5,5.944 L105.308,6.808 C105.116,6.748 104.984,6.712 104.744,6.712 C104.252,6.712 103.664,7.072 103.268,8.056 L103.268,11.8 L102.284,11.8 Z M106.552,4.768 C106.168,4.768 105.868,4.504 105.868,4.132 C105.868,3.748 106.168,3.496 106.552,3.496 C106.936,3.496 107.236,3.748 107.236,4.132 C107.236,4.504 106.936,4.768 106.552,4.768 Z M106.048,11.8 L106.048,5.968 L107.032,5.968 L107.032,11.8 L106.048,11.8 Z M107.952,11.14 L108.444,10.48 C108.948,10.888 109.464,11.176 110.16,11.176 C110.928,11.176 111.312,10.768 111.312,10.264 C111.312,9.664 110.616,9.4 109.98,9.16 C109.152,8.86 108.24,8.464 108.24,7.48 C108.24,6.544 108.984,5.824 110.244,5.824 C110.976,5.824 111.612,6.124 112.056,6.484 L111.588,7.108 C111.192,6.808 110.772,6.592 110.256,6.592 C109.524,6.592 109.188,6.988 109.188,7.432 C109.188,7.972 109.824,8.188 110.484,8.44 C111.324,8.752 112.26,9.1 112.26,10.204 C112.26,11.152 111.504,11.944 110.124,11.944 C109.296,11.944 108.504,11.596 107.952,11.14 Z M113.228,11.8 L113.228,3.256 L114.212,3.256 L114.212,5.584 L114.176,6.784 C114.728,6.256 115.316,5.824 116.12,5.824 C117.344,5.824 117.896,6.616 117.896,8.104 L117.896,11.8 L116.912,11.8 L116.912,8.236 C116.912,7.144 116.576,6.676 115.808,6.676 C115.208,6.676 114.8,6.988 114.212,7.576 L114.212,11.8 L113.228,11.8 Z"  fill="#000000"></path>
		<polygon fill="#C11F1F" fill-rule="nonzero" points="23.4236575 7.99539278 27 9.05830655 26.8810949 9.7141585 23.1458518 9.30709667 26.0492993 11.6817144 25.7023125 12.208022 22.432421 10.4193349 24.1760028 13.7181076 23.6711964 14.0660885 21.3130911 11.1749197 21.6995329 14.8812962 21.0747404 15 19.9754083 11.4231678 18.9252596 15 18.2712813 14.8812962 18.657723 11.1749197 16.3293441 14.0660885 15.7942709 13.7181076 17.5578504 10.4193349 14.2782303 12.208022 13.931784 11.6817144 16.8546886 9.30709667 13.1189051 9.7141585 13 9.05830655 16.5276995 7.99539278 13 6.94169345 13.1189051 6.28638352 16.8546886 6.69398738 13.931784 4.31882767 14.2782303 3.79197801 17.5578504 5.58066514 15.7942709 2.28189245 16.3293441 1.93445352 18.657723 4.82562236 18.2712813 1.11924581 18.9252596 1 19.9754083 4.57737427 21.0747404 1 21.6995329 1.11924581 21.3130911 4.82562236 23.6711964 1.93445352 24.1760028 2.28189245 22.432421 5.58066514 25.7023125 3.79197801 26.0492993 4.31882767 23.1458518 6.69398738 26.8810949 6.28638352 27 6.94169345"></polygon>
	</g>
</svg>