<svg width="14" height="13" viewBox="0 0 14 13" fill="none" xmlns="http://www.w3.org/2000/svg">
<path fill-rule="evenodd" clip-rule="evenodd" d="M1.042 6.265C1.042 9.309 3.249 11.383 5.728 11.812C5.79543 11.8237 5.85991 11.8485 5.91773 11.8851C5.97556 11.9218 6.02561 11.9694 6.06503 12.0253C6.10445 12.0813 6.13246 12.1444 6.14747 12.2112C6.16248 12.278 6.16419 12.3471 6.1525 12.4145C6.14081 12.4819 6.11596 12.5464 6.07935 12.6042C6.04275 12.6621 5.99511 12.7121 5.93917 12.7515C5.88322 12.791 5.82006 12.819 5.75328 12.834C5.68651 12.849 5.61743 12.8507 5.55 12.839C2.639 12.335 0 9.881 0 6.265C0 4.728 0.699 3.52 1.515 2.602C2.1 1.944 2.769 1.409 3.307 1H1.671C1.53839 1 1.41121 0.947322 1.31745 0.853553C1.22368 0.759785 1.171 0.632608 1.171 0.5C1.171 0.367392 1.22368 0.240215 1.31745 0.146447C1.41121 0.0526785 1.53839 0 1.671 0H4.671C4.80361 0 4.93079 0.0526785 5.02455 0.146447C5.11832 0.240215 5.171 0.367392 5.171 0.5V3.5C5.171 3.63261 5.11832 3.75979 5.02455 3.85355C4.93079 3.94732 4.80361 4 4.671 4C4.53839 4 4.41121 3.94732 4.31745 3.85355C4.22368 3.75979 4.171 3.63261 4.171 3.5V1.654L4.17 1.656C3.598 2.086 2.9 2.613 2.295 3.294C1.58 4.098 1.042 5.071 1.042 6.265ZM12.15 6.671C12.15 3.659 9.99 1.598 7.543 1.138C7.4748 1.12643 7.40958 1.10139 7.35116 1.06435C7.29274 1.0273 7.24228 0.978997 7.20273 0.922245C7.16317 0.865493 7.13532 0.801432 7.12078 0.7338C7.10625 0.666168 7.10533 0.596318 7.11808 0.528327C7.13083 0.460336 7.15699 0.395564 7.19503 0.337791C7.23308 0.280017 7.28225 0.230399 7.33968 0.191831C7.39711 0.153263 7.46164 0.126518 7.52951 0.113155C7.59738 0.0997917 7.66724 0.100079 7.735 0.114C10.609 0.654 13.192 3.094 13.192 6.671C13.192 8.208 12.493 9.415 11.677 10.334C11.092 10.992 10.423 11.527 9.885 11.936H11.521C11.6536 11.936 11.7808 11.9887 11.8746 12.0824C11.9683 12.1762 12.021 12.3034 12.021 12.436C12.021 12.5686 11.9683 12.6958 11.8746 12.7896C11.7808 12.8833 11.6536 12.936 11.521 12.936H8.521C8.38839 12.936 8.26121 12.8833 8.16745 12.7896C8.07368 12.6958 8.021 12.5686 8.021 12.436V9.436C8.021 9.30339 8.07368 9.17622 8.16745 9.08245C8.26121 8.98868 8.38839 8.936 8.521 8.936C8.65361 8.936 8.78079 8.98868 8.87455 9.08245C8.96832 9.17622 9.021 9.30339 9.021 9.436V11.281H9.023C9.594 10.849 10.293 10.323 10.897 9.641C11.612 8.838 12.15 7.866 12.15 6.671Z" fill="#333333"/>
</svg>
