<svg width="18" height="18" viewBox="0 0 18 18" fill="none" xmlns="http://www.w3.org/2000/svg">
<path d="M9.75003 2.25C6.92253 2.25 4.64253 4.4625 4.50003 7.245L3.06003 9.1425C2.88003 9.375 3.06003 9.75 3.37503 9.75H4.50003V12C4.50003 12.8325 5.16753 13.5 6.00003 13.5H6.75003V15.75H12V12.2325C13.7775 11.3925 15 9.6 15 7.5C15 4.605 12.66 2.25 9.75003 2.25ZM12.795 7.1775L11.325 7.5675L12.405 8.655C12.531 8.7815 12.6017 8.95274 12.6017 9.13125C12.6017 9.30976 12.531 9.481 12.405 9.6075C12.2785 9.73345 12.1073 9.80416 11.9288 9.80416C11.7503 9.80416 11.579 9.73345 11.4525 9.6075L10.3575 8.5275L9.97503 9.9975C9.88503 10.365 9.51003 10.575 9.15753 10.4775C9.07143 10.4556 8.99056 10.4167 8.91965 10.3631C8.84874 10.3096 8.7892 10.2425 8.74452 10.1657C8.69983 10.0889 8.6709 10.0039 8.6594 9.91582C8.64789 9.82771 8.65406 9.7382 8.67753 9.6525L9.07503 8.175L7.59753 8.5725C7.51183 8.5965 7.42218 8.60307 7.3339 8.5918C7.24561 8.58054 7.16048 8.55167 7.08356 8.50691C7.00663 8.46215 6.93946 8.40241 6.88604 8.33123C6.83262 8.26005 6.79402 8.17887 6.77253 8.0925C6.67503 7.74 6.88503 7.365 7.25253 7.275L8.72253 6.8925L7.64253 5.7975C7.5297 5.66863 7.47008 5.50168 7.47575 5.33049C7.48142 5.1593 7.55197 4.99667 7.67308 4.87555C7.7942 4.75443 7.95683 4.68389 8.12802 4.67822C8.29922 4.67255 8.46616 4.73217 8.59503 4.845L9.68253 5.925L10.0725 4.455C10.0936 4.37071 10.131 4.2914 10.1828 4.22162C10.2345 4.15184 10.2996 4.09296 10.3741 4.04836C10.4487 4.00377 10.5313 3.97433 10.6173 3.96174C10.7032 3.94915 10.7908 3.95366 10.875 3.975C11.25 4.0725 11.46 4.44 11.37 4.8075L10.9725 6.2775L12.4425 5.88C12.5297 5.85752 12.6205 5.8525 12.7096 5.86524C12.7987 5.87798 12.8844 5.90823 12.9618 5.95424C13.0392 6.00025 13.1067 6.06111 13.1605 6.13332C13.2142 6.20554 13.2532 6.28767 13.275 6.375C13.2964 6.45921 13.3009 6.54681 13.2883 6.63277C13.2757 6.71873 13.2463 6.80136 13.2017 6.87592C13.1571 6.95048 13.0982 7.0155 13.0284 7.06725C12.9586 7.119 12.8793 7.15647 12.795 7.1775Z" fill="black"/>
</svg>
