<svg width="12" height="12" viewBox="0 0 12 12" fill="none" xmlns="http://www.w3.org/2000/svg">
<path d="M12 8.66668L6.81667 4.61667C6.51667 4.38334 6.18067 4.29156 5.80867 4.34134C5.43622 4.39156 5.13889 4.57223 4.91667 4.88334L3.08333 7.41668L0.833333 5.63334C0.7 5.52223 0.561111 5.44445 0.416667 5.40001C0.272222 5.35556 0.133333 5.33334 0 5.33334V2.83334C0.0555556 2.83334 0.119556 2.84156 0.192 2.85801C0.264 2.8749 0.333333 2.91112 0.4 2.96667L2.66667 4.66667L5.58333 0.566675C5.69444 0.411119 5.84444 0.319564 6.03333 0.292008C6.22222 0.264008 6.39444 0.311119 6.55 0.433342L9.33333 2.66667H11.3333C11.5222 2.66667 11.6804 2.73045 11.808 2.85801C11.936 2.98601 12 3.14445 12 3.33334V8.66668ZM0.666667 11.3333C0.477778 11.3333 0.319556 11.2693 0.192 11.1413C0.0640001 11.0138 0 10.8556 0 10.6667V6.85001C0.0777778 6.85001 0.15 6.86112 0.216667 6.88334C0.283333 6.90556 0.35 6.94445 0.416667 7.00001L3.33333 9.33334L5.6 6.21667C5.71111 6.06112 5.85822 5.96934 6.04133 5.94134C6.22489 5.91379 6.39444 5.96112 6.55 6.08334L12 10.35V10.6667C12 10.8556 11.936 11.0138 11.808 11.1413C11.6804 11.2693 11.5222 11.3333 11.3333 11.3333H0.666667Z" fill="#333333"/>
</svg>
