<svg xmlns="http://www.w3.org/2000/svg" xmlns:xlink="http://www.w3.org/1999/xlink" width="500" zoomAndPan="magnify" viewBox="0 0 375 374.999991" height="500" preserveAspectRatio="xMidYMid meet" version="1.0"><defs><clipPath id="f139955f9f"><path d="M 25 73.359375 L 350 73.359375 L 350 301.359375 L 25 301.359375 Z M 25 73.359375 " clip-rule="nonzero"/></clipPath></defs><g clip-path="url(#f139955f9f)"><path fill="#ffffff" d="M 342.726562 109.003906 C 339 94.972656 328.023438 83.925781 314.082031 80.175781 C 288.816406 73.359375 187.5 73.359375 187.5 73.359375 C 187.5 73.359375 86.183594 73.359375 60.914062 80.175781 C 46.976562 83.925781 35.996094 94.972656 32.269531 109.003906 C 25.5 134.433594 25.5 187.496094 25.5 187.496094 C 25.5 187.496094 25.5 240.554688 32.269531 265.984375 C 35.996094 280.015625 46.976562 291.066406 60.914062 294.816406 C 86.183594 301.628906 187.5 301.628906 187.5 301.628906 C 187.5 301.628906 288.816406 301.628906 314.082031 294.816406 C 328.023438 291.066406 339 280.015625 342.726562 265.984375 C 349.496094 240.554688 349.496094 187.496094 349.496094 187.496094 C 349.496094 187.496094 349.496094 134.433594 342.726562 109.003906 " fill-opacity="1" fill-rule="nonzero"/></g><path fill="#252323" d="M 154.363281 235.667969 L 239.042969 187.496094 L 154.363281 139.320312 Z M 154.363281 235.667969 " fill-opacity="1" fill-rule="nonzero"/></svg>